<?xml version="1.0" standalone="no"?> <!DOCTYPE svg PUBLIC "-//W3C//DTD SVG 1.0//EN" "http://www.w3.org/TR/2001/REC-SVG-20010904/DTD/svg10.dtd" > <svg xmlns="http://www.w3.org/2000/svg" width="100%" height="100%">
<defs >
<font id="gracobl_" horiz-adv-x="454" ><font-face
    font-family="Gravur-CondensedBlack"
    units-per-em="1000"
    panose-1="2 0 5 6 3 0 0 2 0 4"
    ascent="898"
    descent="-215"
    alphabetic="0" />
<missing-glyph horiz-adv-x="588" d="M88 698H500V0H88V698ZM425 74V623H163V74H425Z" />
<glyph unicode=" " glyph-name="space" horiz-adv-x="245" />
<glyph unicode="!" glyph-name="exclam" horiz-adv-x="247" d="M182 263Q182 234 164 220T123 206Q101 206 83 220T65 263V639Q65 668 83 682T123 697Q146 697 164 683T182 639V263ZM182 52Q182 23 164 9T123 -5Q101 -5 83 9T65 52V72Q65 101 83 115T123 130Q146
130 164 116T182 72V52Z" />
<glyph unicode="&quot;" glyph-name="quotedbl" horiz-adv-x="382" d="M325 516Q325 487 307 473T267 458Q245 458 227 472T209 516V639Q209 668 227 682T267 697Q289 697 307 683T325 639V516ZM174 516Q174 487 156 473T116 458Q94 458 76 472T58 516V639Q58
668 76 682T116 697Q138 697 156 683T174 639V516Z" />
<glyph unicode="#" glyph-name="numbersign" horiz-adv-x="701" d="M672 464Q672 442 658 424T614 406H526L505 296H579Q608 296 622 279T637 239Q637 217 623 199T579 181H485L462 42Q457 17 441 6T406 -5Q384 -5 366 9T347 49V55Q347 61 348 62L369 181H269L246
42Q241 17 226 6T190 -5Q168 -5 150 9T131 50Q131 61 132 62L153 181H87Q58 181 44 199T29 239Q29 261 43 278T87 296H173L194 406H121Q92 406 78 424T64 463Q64 485 78 503T121 521H214L237 649Q242 674 258 685T293 697Q315 697 333 683T352 642Q352 630 351
629L330 521H429L451 649Q456 674 472 685T507 697Q529 697 547 683T566 641Q566 630 565 629L546 521H614Q643 521 657 503T672 464ZM310 406L289 296H393L412 406H310Z" />
<glyph unicode="$" glyph-name="dollar" horiz-adv-x="472" d="M443 185Q443 112 401 64T292 0V-28Q292 -57 274 -71T235 -86Q213 -86 195 -72T177 -28V0Q114 18 72 66T29 194Q29 223 47 237T87 252Q109 252 127 238T145 194Q145 152 168 131T230 109H239Q277
109 302 128T327 185Q327 216 306 239T252 283T182 323T112 368T58 426T36 505V526Q36 558 48 585T79 633T124 668T177 690V730Q177 759 195 773T234 788Q256 788 274 774T292 730V691Q322 684 348 670T393 637T423 592T434 537Q434 508 416 495T375 481Q354 481
337 494T319 534Q319 554 297 568T239 582H230Q197 582 175 566T152 520V505Q152 485 173 468T227 433T297 393T367 342T421 275T443 185Z" />
<glyph unicode="%" glyph-name="percent" horiz-adv-x="744" d="M708 116Q708 90 699 68T672 30T631 4T579 -5Q552 -5 529 4T488 29T461 68T451 116V248Q451 273 460 295T487 334T528 360T579 370Q607 370 630 361T671 335T698 296T708 248V116ZM552 641Q552 630
547 617L304 30Q296 10 282 2T253 -6Q230 -6 211 9T192 50Q192 59 197 74L440 661Q448 681 462 689T492 697Q515 697 533 682T552 641ZM293 443Q293 417 284 395T257 357T216 331T165 321Q137 321 114 330T73 356T46 395T36 443V573Q36 599 45 621T72 661T113 687T165
697Q192 697 215 688T256 661T283 622T293 573V443ZM608 243Q608 258 599 266T579 274Q569 274 560 266T551 243V121Q551 107 560 99T579 90Q589 90 598 98T608 121V243ZM193 570Q193 584 185 592T165 601Q155 601 146 593T136 570V448Q136 432 145 425T165 417Q176
417 184 425T193 448V570Z" />
<glyph unicode="&amp;" glyph-name="ampersand" horiz-adv-x="538" d="M538 50Q538 29 524 12T480 -5Q451 -5 421 6T372 38Q342 18 308 7T239 -5H230Q186 -5 149 9T86 49T44 111T29 193Q29 226 39 255T67 308T107 353T152 391Q124 437 114 463T104 509Q104 573
141 611T250 649H257Q276 649 301 643T350 621T390 578T407 507Q407 480 398 459T373 419T339 385T298 354L379 222Q380 224 386 231T395 240Q411 258 435 258Q458 258 476 243T495 201Q495 186 491 178Q486 164 474 148T454 119Q457 116 464 113T480 109Q509 108
523 90T538 50ZM291 507Q291 519 283 526T260 534H250Q237 534 228 527T218 503Q218 489 227 475T242 450Q264 465 277 479T291 507ZM305 130Q286 158 260 199T206 288Q180 267 163 245T145 193Q145 158 170 134T230 109H239Q254 109 271 114T305 130Z" />
<glyph unicode="&apos;" glyph-name="quotesingle" horiz-adv-x="205" d="M158 506Q158 478 139 464T100 450Q78 450 61 464T43 507V641Q43 669 60 683T100 697Q121 697 139 683T158 641V506Z" />
<glyph unicode="(" glyph-name="parenleft" horiz-adv-x="341" d="M319 -54Q319 -68 313 -80T297 -102Q288 -110 276 -115T250 -121Q238 -121 227 -117T204 -102Q134 -33 96 70T58 320Q58 464 96 566T203 738Q224 759 250 759Q263 759 275 754T298 739T313 717T319
692Q319 667 299 647Q253 601 222 521T191 320Q191 196 222 116T299 -9Q319 -29 319 -54Z" />
<glyph unicode=")" glyph-name="parenright" horiz-adv-x="341" d="M283 320Q283 173 245 70T137 -102Q126 -113 114 -117T91 -121Q77 -121 65 -116T43 -102Q34 -93 28 -81T22 -54Q22 -42 26 -31T42 -9Q89 36 119 116T150 320Q150 441 119 521T42 647Q22 667 22
692Q22 705 27 717T43 738T65 753T91 759Q116 759 137 738Q206 669 244 567T283 320Z" />
<glyph unicode="*" glyph-name="asterisk" horiz-adv-x="379" d="M358 444Q358 429 351 419Q334 392 305 392Q290 392 279 400L237 430L242 379Q242 357 227 342T190 326Q168 326 153 341T137 379L142 430L101 400Q88 393 74 393Q46 393 29 419Q22 429 22 445Q22
474 48 491L94 512L48 533Q22 550 22 579Q22 595 29 605Q46 631 74 631Q88 631 101 624L142 595L137 645Q137 667 152 682T190 698Q212 698 227 683T242 645L237 595L279 624Q293 632 305 632Q334 632 351 605Q358 595 358 580Q358 549 331 533L285 512L331 491Q358
474 358 444Z" />
<glyph unicode="+" glyph-name="plus" horiz-adv-x="457" d="M424 330Q424 308 410 290T366 272H286V191Q286 162 268 148T228 133Q206 133 188 147T170 191V272H90Q61 272 47 290T32 330Q32 352 46 369T90 387H170V467Q170 496 188 510T228 525Q250 525 268 511T286
467V387H366Q395 387 409 370T424 330Z" />
<glyph unicode="," glyph-name="comma" horiz-adv-x="214" d="M167 29Q167 4 165 -15T156 -51T140 -83T113 -116L100 -130Q83 -148 58 -148Q36 -148 18 -134T0 -94Q0 -75 15 -58L30 -42Q44 -28 50 -16T56 29V62Q56 88 73 101T112 114Q133 114 150 101T167 62V29Z" />
<glyph unicode="-" glyph-name="hyphen" horiz-adv-x="387" d="M354 330Q354 308 341 290T301 272H85Q59 272 46 290T32 330Q32 351 45 369T85 387H301Q328 387 341 369T354 330Z" />
<glyph unicode="." glyph-name="period" horiz-adv-x="188" d="M152 47Q152 21 134 8T94 -5Q72 -5 54 8T36 47V71Q36 97 54 110T94 124Q116 124 134 111T152 71V47Z" />
<glyph unicode="/" glyph-name="slash" horiz-adv-x="400" d="M404 703Q404 692 399 679L89 -84Q81 -104 67 -112T37 -121Q14 -121 -4 -106T-22 -66Q-22 -59 -17 -42L292 722Q300 742 314 750T344 758Q367 758 385 743T404 703Z" />
<glyph unicode="0" glyph-name="zero" horiz-adv-x="446" d="M401 157Q401 121 388 91T351 40T296 7T228 -5H218Q182 -5 151 6T95 39T58 91T44 157V534Q44 570 57 600T95 651T150 685T218 697H228Q264 697 295 685T350 652T387 600T401 534V157ZM285 529Q285 553
269 567T228 582H218Q194 582 177 568T160 529V162Q160 138 177 124T218 109H228Q252 109 268 123T285 162V529Z" />
<glyph unicode="1" glyph-name="one" horiz-adv-x="413" d="M311 52Q311 23 293 9T253 -5Q231 -5 213 9T195 52V497L176 474Q171 467 161 458T130 448Q107 448 90 464T72 502Q72 511 73 521T84 545Q88 551 98 564T120 594T144 627T164 655L177 672Q190 690 200
693T220 697H253Q276 697 293 680T311 639V52Z" />
<glyph unicode="2" glyph-name="two" horiz-adv-x="451" d="M414 58Q414 36 400 18T356 0H96Q68 0 53 21T37 69Q37 79 39 88T46 105L273 471Q282 485 283 494T285 515V525Q285 548 268 565T225 582H222Q197 582 181 565T164 525V514Q164 485 146 471T106 457Q84
457 66 471T48 514V529Q48 565 62 596T99 649T154 684T222 697H225Q260 697 292 685T348 650T386 597T401 529L400 518Q400 489 391 465T365 414L182 115H356Q385 115 399 97T414 58Z" />
<glyph unicode="3" glyph-name="three" horiz-adv-x="448" d="M406 162Q406 123 393 92T356 40T301 7T233 -5H216Q180 -5 149 6T93 39T56 92T42 163Q42 192 60 203T100 214Q122 214 140 203T158 163Q158 140 175 125T216 109H233Q257 109 274 125T291 165V231Q291
259 286 275T270 300T243 310T203 312Q173 312 158 329T143 369Q143 391 158 409T203 427Q222 427 238 428T266 437T284 460T291 503V526Q291 554 273 568T232 582H228Q205 582 186 569T167 530Q167 504 149 492T109 480Q87 480 69 494T51 538Q51 579 65 609T104
658T159 687T223 697H231Q264 697 295 688T351 658T391 605T406 526V503Q406 455 395 423T365 370Q406 320 406 231V162Z" />
<glyph unicode="4" glyph-name="four" horiz-adv-x="463" d="M440 195Q440 173 426 155T382 137H360V52Q360 23 342 9T302 -5Q280 -5 262 9T244 52V137H87Q57 137 40 153T22 198Q22 216 28 230L215 662Q223 681 237 689T266 697Q289 697 307 682T326 641Q326 631
321 616L156 252H244V310Q244 339 262 353T302 368Q324 368 342 354T360 310V252H382Q411 252 425 235T440 195Z" />
<glyph unicode="5" glyph-name="five" horiz-adv-x="444" d="M397 161Q397 125 384 95T347 42T292 8T224 -5H213Q139 -5 93 37T46 162Q46 191 64 205T104 220Q126 220 144 206T162 162Q162 147 167 137T181 121T198 112T213 109H224Q247 109 264 126T281 168V308Q281
332 264 349T224 367H213Q194 367 183 359T163 336Q157 325 143 319T113 313Q90 313 71 327T51 376V633Q51 656 68 673T109 691H319Q348 691 362 673T377 634Q377 612 363 594T319 576H167V472Q186 482 213 482H224Q260 482 291 470T346 435T383 382T397 315V161Z"
/>
<glyph unicode="6" glyph-name="six" horiz-adv-x="446" d="M401 164Q401 128 388 97T351 44T296 8T228 -5H218Q182 -5 151 7T95 42T58 96T44 163V527Q44 563 57 594T94 648T150 684T218 697H228Q254 697 281 690T332 667T372 628T394 573Q395 568 395 565T396
560Q396 534 379 521T340 507H339Q322 507 307 516T283 547Q271 582 228 582H218Q194 582 177 565T160 523V441Q168 447 185 452T218 458H228Q264 458 295 445T350 409T387 355T401 288V164ZM285 284Q285 308 269 325T228 343H218Q194 343 177 326T160 284V167Q160
143 177 126T218 109H228Q252 109 268 126T285 168V284Z" />
<glyph unicode="7" glyph-name="seven" horiz-adv-x="446" d="M403 616Q403 608 401 599T396 581L225 35Q218 13 204 4T172 -5Q149 -5 131 9T112 50Q112 55 112 59T115 69L273 576H160V564Q160 535 142 521T102 506Q80 506 62 520T44 564V633Q44 656 61 673T102
691H346Q369 691 386 674T403 633V616Z" />
<glyph unicode="8" glyph-name="eight" horiz-adv-x="446" d="M401 168Q401 129 388 97T351 43T296 8T228 -5H218Q182 -5 151 7T95 42T58 97T44 168V252Q44 286 56 315T88 368Q68 391 56 420T44 483V524Q44 562 57 594T95 649T150 684T218 697H228Q264 697 295
685T350 649T387 594T401 524V483Q401 450 390 421T357 368Q378 345 389 316T401 252V168ZM286 524Q286 548 269 565T228 582H218Q193 582 177 565T160 524V481Q160 457 177 441T218 424H228Q252 424 269 440T286 481V524ZM285 254Q285 278 269 295T228 312H218Q193
312 177 295T160 254V167Q160 143 177 126T218 109H228Q252 109 268 126T285 167V254Z" />
<glyph unicode="9" glyph-name="nine" horiz-adv-x="446" d="M401 164Q401 128 388 97T351 44T296 8T228 -5H218Q192 -5 165 2T115 25T74 63T51 118Q51 121 51 127T50 136Q50 162 67 176T107 190Q124 190 140 180T163 150Q169 133 182 121T218 109H228Q251 109
268 129T285 174V256Q277 250 260 245T228 239H218Q182 239 151 252T95 288T58 342T44 409V527Q44 563 57 594T95 648T150 684T218 697H228Q264 697 295 684T350 649T387 595T401 528V164ZM285 524Q285 548 269 565T228 582H218Q194 582 177 565T160 523V413Q160
389 177 372T218 354H228Q252 354 268 371T285 413V524Z" />
<glyph unicode=":" glyph-name="colon" horiz-adv-x="206" d="M161 316Q161 290 143 277T103 264Q81 264 63 277T45 316V341Q45 367 63 380T103 394Q125 394 143 381T161 341V316ZM161 47Q161 21 143 8T103 -5Q81 -5 63 8T45 47V71Q45 97 63 110T103 124Q125 124
143 111T161 71V47Z" />
<glyph unicode=";" glyph-name="semicolon" horiz-adv-x="206" d="M170 316Q170 290 152 277T112 264Q90 264 72 277T54 316V341Q54 367 72 380T112 394Q134 394 152 381T170 341V316ZM167 29Q167 4 165 -15T156 -51T140 -83T113 -116L100 -130Q83 -148 58 -148Q36
-148 18 -134T0 -94Q0 -75 15 -58L30 -42Q44 -28 50 -16T56 29V62Q56 88 73 101T112 114Q133 114 150 101T167 62V29Z" />
<glyph unicode="&lt;" glyph-name="less" horiz-adv-x="340" d="M297 49Q297 26 279 11T238 -5Q228 -5 219 -3T201 9L49 192Q41 202 35 214T29 241Q29 255 35 267T49 290L201 473Q209 483 218 485T238 488Q261 488 279 472T297 433Q297 422 291 412T276 391L154
241L276 91Q285 80 291 70T297 49Z" />
<glyph unicode="=" glyph-name="equal" horiz-adv-x="433" d="M400 417Q400 395 386 378T343 360H88Q60 360 46 377T32 417Q32 438 46 456T88 474H343Q372 474 386 456T400 417ZM400 246Q400 225 386 207T343 189H88Q60 189 46 207T32 246Q32 268 46 285T88 303H343Q372
303 386 286T400 246Z" />
<glyph unicode="&gt;" glyph-name="greater" horiz-adv-x="340" d="M311 241Q311 227 305 215T290 192L139 9Q131 -1 121 -3T102 -5Q79 -5 61 10T43 49Q43 60 48 70T63 91L185 241L63 391Q54 402 49 412T43 433Q43 456 61 472T102 488Q111 488 121 486T139 473L290
290Q298 280 304 268T311 241Z" />
<glyph unicode="?" glyph-name="question" horiz-adv-x="403" d="M367 494Q367 449 348 421T309 376Q296 365 285 356T264 336T250 313T245 282V241Q245 212 227 198T187 183Q165 183 147 197T129 241V281Q129 317 137 341T159 383T192 418T233 456Q244 467 247
475T251 494V527Q251 550 235 566T193 582H188Q163 582 147 566T130 527V526Q130 497 112 483T72 468Q50 468 32 482T14 526V535Q14 571 27 601T65 652T120 685T188 697H193Q229 697 260 685T316 652T353 601T367 535V494ZM245 47Q245 21 227 8T187 -5Q165 -5 147
8T129 47V71Q129 97 147 110T187 124Q209 124 227 111T245 71V47Z" />
<glyph unicode="@" glyph-name="at" horiz-adv-x="780" d="M726 143Q726 113 718 86T692 39T651 7T594 -5H576Q522 -5 488 29Q467 12 441 4T384 -5H375Q343 -5 313 5T259 37T221 88T207 158Q207 205 229 233T285 276T358 300T432 315Q434 316 437 317T441 322Q439
346 424 360T389 375H382Q363 375 350 369T329 345Q321 327 308 319T280 311Q258 311 240 326T221 366Q221 371 222 377T226 390Q239 418 257 437T297 467T340 483T382 488H389Q422 488 452 475T504 440T540 389T553 326V153Q553 129 557 118T575 107H593Q607 107
610 120T613 143V317Q613 359 597 395T554 459T491 502T412 518H368Q326 518 290 503T226 460T183 396T167 317V160Q167 118 183 82T226 18T289 -24T368 -40H412Q451 -40 489 -24Q506 -19 512 -19Q537 -19 552 -38T568 -79Q568 -94 560 -107T533 -128Q504 -139
474 -145T412 -152H368Q303 -152 246 -128T146 -61T79 38T54 160V317Q54 382 78 439T146 539T246 606T368 631H412Q477 631 534 607T634 540T701 440T726 317V143ZM441 212Q418 207 397 203T358 192T331 177T320 155Q320 135 333 121T375 106H384Q407 106 424 123T441
163V212Z" />
<glyph unicode="A" glyph-name="A" horiz-adv-x="542" d="M521 50Q521 24 503 10T461 -5Q444 -5 430 4T408 35L371 156H173L136 35Q129 13 114 4T82 -5Q59 -5 41 9T22 50Q22 55 22 59T25 69L208 648Q220 681 236 689T272 697Q291 697 307 689T336 648L518 69Q521
58 521 50ZM272 482L209 271H335L272 482Z" />
<glyph unicode="B" glyph-name="B" horiz-adv-x="511" d="M468 200Q468 158 452 122T409 58T345 16T266 0H123Q100 0 83 17T65 58V633Q65 656 82 673T123 691H266Q308 691 343 677T405 636T445 575T460 499Q460 449 442 418T396 358Q426 329 447 293T468 208V200ZM344
499Q344 536 323 556T267 576H181V413H267Q299 413 321 437T344 499ZM352 208Q352 227 345 243T326 272T299 291T267 298H181V115H267Q302 115 327 140T352 200V208Z" />
<glyph unicode="C" glyph-name="C" horiz-adv-x="491" d="M462 160Q456 124 439 94T395 41T335 7T263 -5H254Q213 -5 177 9T113 50T70 112T54 190V502Q54 544 70 579T113 641T176 682T254 697H263Q301 697 335 685T395 650T438 598T461 530Q462 529 462 520Q462
493 444 479T403 464Q383 464 368 476T347 514Q342 545 319 563T263 582H254Q219 582 194 560T169 502V190Q169 155 194 132T254 109H263Q295 109 318 127T347 177Q352 203 368 215T403 227Q426 227 444 213T462 171V160Z" />
<glyph unicode="D" glyph-name="D" horiz-adv-x="528" d="M474 197Q474 155 459 119T416 57T353 15T274 0H123Q100 0 83 17T65 58V633Q65 656 82 673T123 691H274Q316 691 352 676T416 635T458 573T474 495V197ZM358 495Q358 530 334 553T274 576H181V115H274Q309
115 333 138T358 196V495Z" />
<glyph unicode="E" glyph-name="E" horiz-adv-x="495" d="M474 57Q474 36 460 18T416 0H123Q100 0 83 17T65 58V633Q65 656 82 673T123 691H416Q445 691 459 673T474 634Q474 612 460 594T416 576H181V413H337Q366 413 380 395T395 355Q395 334 381 316T337 298H181V115H416Q445
115 459 97T474 57Z" />
<glyph unicode="F" glyph-name="F" horiz-adv-x="474" d="M474 634Q474 612 460 594T416 576H181V413H337Q366 413 380 395T395 355Q395 334 381 316T337 298H181V52Q181 23 163 9T123 -5Q101 -5 83 9T65 52V633Q65 656 82 673T123 691H416Q445 691 459 673T474 634Z" />
<glyph unicode="G" glyph-name="G" horiz-adv-x="517" d="M463 191Q463 149 448 113T405 51T342 10T263 -5H254Q213 -5 177 10T113 51T70 112T54 190V501Q54 543 70 578T113 640T176 682T254 697H263Q300 697 334 685T394 651T438 600T459 534V528Q459 504 442
492T403 480Q383 480 366 492T343 530Q337 559 314 570T263 582H254Q219 582 195 559T170 501V191Q170 156 194 133T254 109H263Q298 109 323 132T348 190V282H276Q247 282 233 300T219 340Q219 361 233 379T276 397H405Q428 397 445 380T463 339V191Z" />
<glyph unicode="H" glyph-name="H" horiz-adv-x="539" d="M474 52Q474 23 456 9T416 -5Q395 -5 377 9T359 52V298H181V52Q181 23 163 9T123 -5Q101 -5 83 9T65 52V639Q65 668 83 682T123 697Q145 697 163 683T181 639V413H359V639Q359 668 377 682T416 697Q438
697 456 683T474 639V52Z" />
<glyph unicode="I" glyph-name="I" horiz-adv-x="260" d="M188 52Q188 23 170 9T130 -5Q108 -5 90 9T72 52V639Q72 668 90 682T130 697Q152 697 170 683T188 639V52Z" />
<glyph unicode="J" glyph-name="J" horiz-adv-x="471" d="M406 190Q406 148 390 113T347 51T284 10T206 -5H197Q161 -5 129 5T71 35T27 81T2 141Q1 146 1 149T0 155Q0 182 18 197T60 212Q78 212 94 201T115 166Q121 137 143 123T197 109H206Q241 109 265 132T290
190V639Q290 668 308 682T348 697Q370 697 388 683T406 639V190Z" />
<glyph unicode="K" glyph-name="K" horiz-adv-x="496" d="M475 50Q475 25 457 10T415 -5Q400 -5 387 2T364 27L236 291L181 210V52Q181 23 163 9T123 -5Q101 -5 83 9T65 52V639Q65 668 83 682T123 697Q145 697 163 683T181 639V416L354 672Q364 686 376 691T401
697Q424 697 442 681T461 640Q461 624 450 607L311 402L469 77Q475 63 475 50Z" />
<glyph unicode="L" glyph-name="L" horiz-adv-x="457" d="M436 57Q436 36 422 18T378 0H123Q100 0 83 17T65 58V639Q65 668 83 682T123 697Q145 697 163 683T181 639V115H378Q407 115 421 97T436 57Z" />
<glyph unicode="M" glyph-name="M" horiz-adv-x="650" d="M585 52Q585 23 567 9T527 -5Q505 -5 487 9T469 52V418L384 222Q373 197 356 190T325 183Q311 183 294 190T266 222L181 418V52Q181 23 163 9T123 -5Q101 -5 83 9T65 52V639Q65 662 82 679T123 697H138Q166
697 179 682T201 647L325 367L449 647Q458 667 471 682T512 697H527Q550 697 567 680T585 639V52Z" />
<glyph unicode="N" glyph-name="N" horiz-adv-x="539" d="M474 52Q474 29 457 12T416 -5H405Q377 -5 364 9T342 44L181 418V52Q181 23 163 9T123 -5Q101 -5 83 9T65 52V639Q65 662 82 679T123 697H136Q164 697 177 682T199 647L358 287V640Q358 669 376 683T416
697Q438 697 456 683T474 640V52Z" />
<glyph unicode="O" glyph-name="O" horiz-adv-x="517" d="M463 191Q463 149 448 113T405 51T342 10T263 -5H254Q213 -5 177 10T113 51T70 112T54 190V501Q54 543 70 578T113 640T176 682T254 697H263Q305 697 341 682T405 641T447 579T463 501V191ZM347 501Q347
536 323 559T263 582H254Q219 582 195 559T170 501V191Q170 156 194 133T254 109H263Q298 109 322 132T347 190V501Z" />
<glyph unicode="P" glyph-name="P" horiz-adv-x="492" d="M474 492Q474 450 458 414T415 350T352 308T274 292H181V52Q181 23 163 9T123 -5Q101 -5 83 9T65 52V633Q65 656 82 673T123 691H274Q315 691 351 676T415 633T458 570T474 492ZM358 492Q358 509 352 524T334
551T307 569T274 576H181V407H274Q309 407 333 432T358 492Z" />
<glyph unicode="Q" glyph-name="Q" horiz-adv-x="517" d="M463 191Q463 162 455 135T433 85Q451 67 451 44Q451 24 436 10T401 -5Q390 -5 380 -2T359 13L356 16Q312 -5 263 -5H254Q213 -5 177 10T113 51T70 112T54 190V501Q54 543 70 578T113 640T176 682T254
697H263Q305 697 341 682T405 641T447 579T463 501V191ZM347 501Q347 536 323 559T263 582H254Q219 582 195 559T170 501V191Q170 156 194 133T254 109H265Q255 122 255 139Q255 160 270 175T306 190Q326 190 346 173Q347 174 347 181V501Z" />
<glyph unicode="R" glyph-name="R" horiz-adv-x="516" d="M480 482Q480 419 448 370T361 298L466 77Q473 64 473 51Q473 26 454 11T412 -5Q397 -5 384 2T362 28L241 282H181V52Q181 23 163 9T123 -5Q101 -5 83 9T65 52V633Q65 656 82 673T123 691H280Q322 691
358 676T422 633T464 570T480 491V482ZM364 491Q364 526 341 551T283 576H181V397H286Q320 397 342 422T364 482V491Z" />
<glyph unicode="S" glyph-name="S" horiz-adv-x="486" d="M450 185Q450 142 435 107T392 47T327 9T246 -5H237Q196 -5 160 8T96 47T52 110T36 194Q36 223 54 237T94 252Q116 252 134 238T152 194Q152 152 175 131T237 109H246Q284 109 309 128T334 185Q334 216
313 239T259 283T189 323T119 368T65 426T43 505V526Q43 566 61 598T107 652T170 685T237 697H246Q285 697 320 686T382 653T425 603T441 537Q441 508 423 495T382 481Q361 481 344 494T326 534Q326 554 304 568T246 582H237Q204 582 182 566T159 520V505Q159 485
180 468T234 433T304 393T374 342T428 275T450 185Z" />
<glyph unicode="T" glyph-name="T" horiz-adv-x="414" d="M403 634Q403 612 389 594T345 576H265V52Q265 23 247 9T207 -5Q185 -5 167 9T149 52V576H69Q40 576 26 594T11 634Q11 655 25 673T69 691H345Q374 691 388 673T403 634Z" />
<glyph unicode="U" glyph-name="U" horiz-adv-x="540" d="M475 194Q475 153 459 117T416 53T353 11T274 -5H265Q224 -5 188 10T124 53T81 116T65 194V639Q65 668 83 682T123 697Q145 697 163 683T181 639V194Q181 159 205 134T265 109H274Q309 109 334 134T359
194V639Q359 668 377 682T417 697Q439 697 457 683T475 639V194Z" />
<glyph unicode="V" glyph-name="V" horiz-adv-x="474" d="M445 641Q445 636 443 626L302 41Q297 20 280 8T237 -5Q211 -5 194 7T172 41L31 626Q30 631 30 635T29 641Q29 667 47 682T89 697Q106 697 122 687T143 653L237 253L331 653Q336 676 352 686T386 697Q408
697 426 682T445 641Z" />
<glyph unicode="W" glyph-name="W" horiz-adv-x="762" d="M733 641V636Q733 632 731 626L597 41Q592 20 575 8T532 -5Q506 -5 489 7T466 41L381 403L296 41Q291 20 274 8T230 -5Q204 -5 187 7T165 41L31 626Q29 632 29 636V641Q29 667 47 682T89 697Q106 697 122
687T143 653L230 245L324 653Q329 676 345 686T379 697H383Q402 697 417 687T438 653L532 245L619 653Q624 676 640 686T673 697Q696 697 714 682T733 641Z" />
<glyph unicode="X" glyph-name="X" horiz-adv-x="492" d="M456 50Q456 25 437 10T395 -5Q381 -5 368 2T345 26L246 226L146 26Q138 9 125 2T97 -5Q74 -5 55 10T36 50Q36 65 43 78L181 356L53 613Q49 621 48 627T47 641Q47 666 65 681T107 697Q121 697 135 690T157
665L246 486L335 665Q343 682 356 689T385 697Q408 697 426 682T445 641Q445 626 438 613L310 356L449 78Q456 65 456 50Z" />
<glyph unicode="Y" glyph-name="Y" horiz-adv-x="475" d="M446 641Q446 630 441 617L296 267V52Q296 23 278 9T238 -5Q216 -5 198 9T180 52V267L34 617Q29 630 29 641Q29 666 47 681T89 697Q105 697 119 689T141 661L238 430L334 661Q342 681 356 689T386 697Q409
697 427 682T446 641Z" />
<glyph unicode="Z" glyph-name="Z" horiz-adv-x="459" d="M430 58Q430 36 416 18T372 0H88Q60 0 45 19T29 70Q29 85 37 103L295 576H99Q70 576 56 594T41 634Q41 655 55 673T99 691H371Q399 691 414 671T430 625Q430 607 422 589L176 115H373Q402 115 416 97T430 58Z" />
<glyph unicode="[" glyph-name="bracketleft" horiz-adv-x="315" d="M280 -62Q280 -84 265 -102T221 -120H123Q100 -120 83 -103T65 -63V639Q65 662 82 679T123 697H221Q250 697 265 679T280 639Q280 618 266 600T222 582H176V-5H222Q251 -5 265 -23T280 -62Z" />
<glyph unicode="\" glyph-name="backslash" horiz-adv-x="400" d="M404 -66Q404 -90 386 -105T344 -121Q328 -121 314 -113T292 -85L-17 679Q-22 692 -22 703Q-22 728 -4 743T37 758Q53 758 67 750T89 722L399 -41Q404 -58 404 -65V-66Z" />
<glyph unicode="]" glyph-name="bracketright" horiz-adv-x="315" d="M250 -63Q250 -86 233 -103T192 -120H93Q64 -120 50 -102T35 -62Q35 -41 49 -23T93 -5H139V582H93Q64 582 50 600T35 639Q35 661 49 679T93 697H192Q215 697 232 680T250 639V-63Z" />
<glyph unicode="^" glyph-name="asciicircum" horiz-adv-x="494" d="M494 472Q494 449 477 432T436 415Q411 415 394 435L247 601L100 435Q83 415 58 415Q35 415 18 432T0 472Q0 481 3 490T15 509L180 700Q195 718 210 726T247 734Q268 734 283 726T313 700L479
509Q487 500 490 491T494 472Z" />
<glyph unicode="_" glyph-name="underscore" horiz-adv-x="558" d="M525 57Q525 36 511 18T469 0H88Q60 0 46 18T32 57Q32 79 46 97T88 115H469Q497 115 511 97T525 57Z" />
<glyph unicode="`" glyph-name="grave" horiz-adv-x="412" d="M348 561Q348 539 332 521T292 502Q286 502 280 503T266 508L96 589Q79 597 71 610T63 638Q63 660 79 678T119 697Q131 697 145 691L315 610Q332 602 340 589T348 561Z" />
<glyph unicode="a" glyph-name="a" horiz-adv-x="468" d="M443 49Q443 29 430 12T389 -5Q381 -5 373 -4T358 -1Q342 3 331 10T311 26Q291 12 266 4T214 -5H205Q173 -5 143 4T89 32T51 81T36 153V158Q36 203 59 231T115 273Q150 287 184 294T249 310Q263 314 265
320T268 331Q268 352 254 362T218 373H212Q192 373 180 369T159 350Q149 332 135 324T105 316Q83 316 66 329T49 366Q49 371 50 377T54 390Q66 418 84 437T123 467T167 483T212 488H218Q251 488 281 475T334 440T370 389T384 326V135Q384 124 386 116T402 104Q422
98 432 83T443 49ZM268 207Q247 202 227 198T190 189T163 176T152 154V148Q152 109 205 109H214Q237 109 252 124T268 163V207Z" />
<glyph unicode="b" glyph-name="b" horiz-adv-x="460" d="M413 163Q413 127 400 97T363 44T309 8T243 -5H237Q225 -5 210 -1T181 15Q169 4 156 0T123 -5Q100 -5 83 9T65 52V639Q65 668 82 682T123 697Q145 697 163 683T181 639V467Q192 478 210 483T239 488H243Q278
488 309 475T363 439T399 385T413 319V163ZM297 319Q297 342 282 357T243 373H235Q212 373 197 358T181 319V163Q181 140 196 125T235 109H243Q266 109 281 124T297 163V319Z" />
<glyph unicode="c" glyph-name="c" horiz-adv-x="429" d="M393 145Q393 119 380 93T344 44T290 9T224 -5H216Q181 -5 151 8T97 43T61 96T47 163V319Q47 354 60 385T97 439T150 475T216 488H224Q259 488 290 474T344 438T380 389T393 337Q393 308 376 294T338 279Q318
279 301 292T281 334Q279 351 263 362T224 373H216Q193 373 178 358T163 319V163Q163 140 178 125T216 109H224Q247 109 263 120T281 148Q283 176 300 189T338 203Q359 203 376 189T393 145Z" />
<glyph unicode="d" glyph-name="d" horiz-adv-x="460" d="M395 52Q395 23 377 9T337 -5Q317 -5 304 -1T279 15Q266 4 251 0T223 -5H217Q182 -5 151 8T97 43T61 96T47 163V319Q47 354 60 385T97 439T150 475T216 488H221Q232 488 249 483T279 467V639Q279 668 297
682T337 697Q359 697 377 683T395 639V52ZM279 319Q279 342 264 357T225 373H217Q194 373 179 358T163 319V163Q163 140 178 125T216 109H225Q248 109 263 124T279 163V319Z" />
<glyph unicode="e" glyph-name="e" horiz-adv-x="433" d="M394 247Q394 224 377 208T337 191H163V163Q163 140 178 125T216 109H224Q257 109 273 134Q282 149 294 155T319 162Q342 162 359 145T377 104Q377 100 372 83Q350 41 313 18T224 -5H216Q181 -5 151 8T97
43T61 96T47 163V319Q47 354 60 385T96 439T149 475T215 488H223Q259 488 290 475T344 440T380 386T394 319V247ZM278 319Q278 345 263 359T227 373H217Q194 373 179 358T163 319V289H278V319Z" />
<glyph unicode="f" glyph-name="f" horiz-adv-x="312" d="M294 640Q294 618 281 600T238 582Q225 582 220 574T215 552V485H233Q262 485 276 467T290 427Q290 406 276 388T233 370H215V50Q215 22 197 9T157 -5Q135 -5 117 8T99 50V370H87Q60 370 46 388T32 428Q32
449 45 467T87 485H99V555Q99 591 109 618T139 662T183 688T238 697Q267 697 280 679T294 640Z" />
<glyph unicode="g" glyph-name="g" horiz-adv-x="452" d="M398 -46Q398 -81 385 -111T348 -165T294 -201T229 -215H221Q195 -215 168 -208T117 -187T74 -152T46 -100Q43 -90 43 -81Q43 -56 59 -42T98 -27Q133 -27 154 -67Q159 -76 175 -88T221 -100H229Q252 -100
267 -85T282 -46V15Q272 7 258 1T227 -5H221Q186 -5 155 8T101 44T65 97T51 163V319Q51 354 64 385T101 439T155 475T221 488H227Q239 488 254 483T282 467Q294 478 307 483T341 488Q364 488 381 474T398 432V-46ZM282 317Q282 340 267 356T229 373H221Q197 373
182 357T167 317V164Q167 141 182 125T221 109H229Q252 109 267 125T282 164V317Z" />
<glyph unicode="h" glyph-name="h" horiz-adv-x="456" d="M413 50Q413 22 395 9T355 -5Q333 -5 315 8T297 50V319Q297 342 282 357T243 373H235Q212 373 197 358T181 319V50Q181 22 163 9T123 -5Q101 -5 83 8T65 50V639Q65 668 82 682T123 697Q145 697 163 683T181
639V467Q192 478 210 483T239 488H243Q278 488 309 475T363 439T399 385T413 319V50Z" />
<glyph unicode="i" glyph-name="i" horiz-adv-x="238" d="M177 621Q177 592 159 578T119 564Q97 564 80 578T62 621V641Q62 669 79 683T119 697Q141 697 159 683T177 641V621ZM177 50Q177 22 159 9T119 -5Q97 -5 79 8T61 50V432Q61 460 79 474T119 488Q141 488
159 474T177 432V50Z" />
<glyph unicode="j" glyph-name="j" horiz-adv-x="273" d="M212 621Q212 592 194 578T154 564Q132 564 114 578T96 621V641Q96 669 114 683T154 697Q176 697 194 683T212 641V621ZM212 -82Q212 -142 182 -178T88 -215H60Q32 -215 18 -197T4 -157Q4 -136 18 -118T60
-100H74Q82 -100 89 -96T96 -70V432Q96 460 114 474T154 488Q176 488 194 474T212 432V-82Z" />
<glyph unicode="k" glyph-name="k" horiz-adv-x="448" d="M423 50Q423 26 405 11T364 -5Q350 -5 338 1T317 23L215 204L181 170V50Q181 22 163 9T123 -5Q101 -5 83 8T65 50V641Q65 669 83 683T123 697Q145 697 163 683T181 641V334L309 469Q327 488 350 488Q373
488 390 471T408 431Q408 412 391 392L293 293L415 79Q423 58 423 50Z" />
<glyph unicode="l" glyph-name="l" horiz-adv-x="288" d="M259 51Q259 30 245 13T202 -5Q173 -5 147 1T102 24T72 67T61 135V641Q61 669 79 683T119 697Q141 697 159 683T177 641V136Q177 124 183 117T202 109Q231 109 245 91T259 51Z" />
<glyph unicode="m" glyph-name="m" horiz-adv-x="692" d="M645 50Q645 22 627 9T587 -5Q565 -5 547 8T529 50V319Q529 342 513 357T472 373H464Q441 373 425 358T408 319V50Q408 22 390 9T350 -5H349Q327 -5 309 8T291 50V319Q291 342 275 357T235 373H226Q203
373 187 358T170 319V50Q170 22 152 9T112 -5Q90 -5 72 8T54 50V432Q54 460 71 474T112 488Q134 488 146 483T170 467Q181 478 201 483T232 488H235Q267 488 297 477T350 445Q373 465 405 476T470 488H472Q507 488 538 476T593 441T631 389T645 323V50Z" />
<glyph unicode="n" glyph-name="n" horiz-adv-x="449" d="M402 50Q402 22 384 9T344 -5Q322 -5 304 8T286 50V319Q286 342 271 357T232 373H224Q200 373 185 358T170 319V50Q170 22 152 9T112 -5Q90 -5 72 8T54 50V432Q54 460 71 474T112 488Q134 488 146 483T170
467Q181 478 199 483T229 488H232Q267 488 298 476T352 441T388 389T402 323V50Z" />
<glyph unicode="o" glyph-name="o" horiz-adv-x="440" d="M394 163Q394 127 381 97T344 44T290 8T224 -5H216Q181 -5 150 8T96 43T60 96T46 163V319Q46 354 59 385T96 439T150 475T216 488H224Q259 488 290 475T344 439T380 385T394 319V163ZM278 319Q278 342
263 357T224 373H216Q193 373 178 358T162 319V163Q162 140 177 125T216 109H224Q247 109 262 124T278 163V319Z" />
<glyph unicode="p" glyph-name="p" horiz-adv-x="460" d="M413 163Q413 127 400 97T363 44T309 8T243 -5H239Q228 -5 210 -1T181 15V-157Q181 -186 163 -200T123 -215Q100 -215 83 -201T65 -157V430Q65 459 82 473T123 488Q143 488 156 483T181 467Q194 478 209
483T237 488H243Q278 488 309 475T363 439T399 385T413 319V163ZM297 319Q297 342 282 357T243 373H235Q212 373 197 358T181 319V163Q181 140 196 125T235 109H243Q266 109 281 124T297 163V319Z" />
<glyph unicode="q" glyph-name="q" horiz-adv-x="460" d="M395 -157Q395 -186 377 -200T337 -215Q315 -215 297 -201T279 -157V15Q267 4 250 0T221 -5H216Q181 -5 151 8T97 43T61 96T47 163V319Q47 354 60 385T97 439T151 475T217 488H223Q235 488 250 483T279
467Q291 478 304 483T337 488Q359 488 377 474T395 430V-157ZM279 319Q279 342 264 357T225 373H216Q193 373 178 358T163 319V163Q163 140 178 125T217 109H225Q248 109 263 124T279 163V319Z" />
<glyph unicode="r" glyph-name="r" horiz-adv-x="348" d="M333 394Q333 370 314 355T271 339Q243 339 227 361Q221 369 217 371T202 373H197Q166 373 166 345V53Q166 24 148 10T108 -5Q86 -5 68 9T50 53V432Q50 460 67 474T108 488Q130 488 142 483T166 467Q169
473 180 478Q188 482 198 485T224 488Q255 488 281 472T325 423Q333 409 333 394Z" />
<glyph unicode="s" glyph-name="s" horiz-adv-x="427" d="M395 151Q395 107 378 77T334 29T277 3T218 -5H202Q153 -5 107 22T39 97Q33 112 33 124Q33 147 50 161T89 176Q103 176 117 169T142 145Q150 131 167 120T202 109H218Q253 109 266 122T279 151Q279 171
270 178T245 189Q222 194 198 200T152 212Q106 224 74 255T42 347Q42 358 45 370Q52 403 71 425T114 462T166 482T219 488H222Q270 488 301 474T355 440Q375 420 375 399Q375 376 357 359T316 341Q297 341 280 355Q267 366 254 369T223 373H219Q190 373 174 366T157
348V341Q157 325 174 318T218 306T276 293T333 270T377 226T395 151Z" />
<glyph unicode="t" glyph-name="t" horiz-adv-x="332" d="M303 51Q303 30 289 13T246 -5Q217 -5 191 4T146 31T116 75T105 136V370H85Q57 370 43 388T29 428Q29 449 43 467T85 485H105V641Q105 669 123 683T163 697Q185 697 203 683T221 641V485H242Q270 485 284
467T298 428Q298 406 284 388T242 370H221V138Q221 126 227 118T246 109Q275 109 289 91T303 51Z" />
<glyph unicode="u" glyph-name="u" horiz-adv-x="445" d="M395 50Q395 22 377 9T337 -5Q314 -5 302 -1T279 15Q267 4 249 0T220 -5H217Q135 -5 91 37T47 159V432Q47 460 65 474T105 488Q127 488 145 474T163 432V163Q163 140 178 125T217 109H225Q248 109 263
124T279 163V432Q279 460 297 474T337 488Q359 488 377 474T395 432V50Z" />
<glyph unicode="v" glyph-name="v" horiz-adv-x="429" d="M400 434Q400 424 397 414L271 29Q265 10 248 3T217 -5H212Q198 -5 182 2T159 29L32 414Q29 424 29 434Q29 459 47 473T88 488Q104 488 118 479T139 449L215 219L290 449Q297 469 311 478T342 488Q364
488 382 474T400 434Z" />
<glyph unicode="w" glyph-name="w" horiz-adv-x="655" d="M626 434Q626 424 623 414L512 29Q506 9 489 2T458 -5H453Q439 -5 423 2T400 29L328 251L255 29Q249 10 233 3T202 -5H197Q183 -5 166 3T143 29L32 414Q29 424 29 434Q29 459 47 473T88 488Q104 488 119
479T139 449L199 219L276 457Q281 472 295 480T326 488H329Q344 488 359 480T379 457L456 219L516 449Q521 470 536 479T568 488Q590 488 608 474T626 434Z" />
<glyph unicode="x" glyph-name="x" horiz-adv-x="425" d="M392 50Q392 27 374 11T333 -5Q320 -5 308 1T287 21L212 141L137 21Q128 7 116 1T91 -5Q68 -5 50 11T32 50Q32 58 34 65T41 81L146 248L50 401Q45 409 43 416T41 432Q41 455 59 471T99 488Q112 488 124
482T146 461L212 354L278 461Q287 475 299 481T324 488Q347 488 365 472T383 432Q383 424 381 417T374 401L278 248L382 81Q392 65 392 50Z" />
<glyph unicode="y" glyph-name="y" horiz-adv-x="424" d="M399 434Q399 424 396 414L222 -128Q212 -159 196 -176T160 -202T120 -213T84 -215Q52 -215 39 -196T25 -157Q25 -136 38 -118T84 -100Q94 -100 105 -95T125 -67L168 64L43 413Q40 423 40 434Q40 458 58
473T98 488Q114 488 128 479T150 450L223 242L289 448Q296 469 310 478T340 488Q363 488 381 474T399 434Z" />
<glyph unicode="z" glyph-name="z" horiz-adv-x="411" d="M382 58Q382 36 368 18T326 0H88Q65 0 47 17T29 57Q29 80 33 91T48 116L235 367H94Q66 367 52 385T38 425Q38 446 52 464T94 482H323Q346 482 363 465T380 424Q380 404 377 395T368 377L183 115H326Q354
115 368 97T382 58Z" />
<glyph unicode="{" glyph-name="braceleft" horiz-adv-x="344" d="M308 -52Q308 -74 294 -92T252 -111H232Q215 -111 201 -110T172 -101Q146 -89 128 -65T109 -6V231Q109 251 107 260T90 285Q80 296 73 303T62 316T56 328T54 345Q54 364 62 374T90 406Q104 421
106 430T109 459V646Q109 681 127 705T172 741Q186 748 200 749T232 751H252Q279 751 293 733T308 692Q308 671 295 654T252 636Q237 636 231 627T225 596V429Q225 394 211 377T184 345Q197 332 211 314T225 262V43Q225 22 231 13T252 3Q281 3 294 -14T308 -52Z"
/>
<glyph unicode="|" glyph-name="bar" horiz-adv-x="386" d="M251 -98Q251 -127 233 -141T193 -156Q171 -156 153 -142T135 -98V710Q135 739 153 753T193 768Q215 768 233 754T251 710V-98Z" />
<glyph unicode="}" glyph-name="braceright" horiz-adv-x="344" d="M290 345Q290 335 288 329T282 316T271 303T254 285Q240 270 238 261T235 231V-6Q235 -41 216 -65T172 -101Q157 -108 141 -109T106 -111H92Q64 -111 50 -93T36 -52Q36 -31 49 -14T92 3Q107 3
113 12T119 43V262Q119 296 132 315T160 345Q153 352 146 359T133 376T123 399T119 429V596Q119 617 113 626T92 636Q63 636 50 653T36 692Q36 714 50 732T92 751H106Q125 751 141 750T172 741Q197 730 216 706T235 646V457Q235 440 237 430T254 406Q274 386 282
375T290 345Z" />
<glyph unicode="~" glyph-name="asciitilde" horiz-adv-x="433" d="M418 282Q418 258 403 242T366 217T320 203T277 199Q259 199 242 203T209 214T177 224T143 229Q131 229 124 225T109 214T93 204T71 199Q45 199 30 217T14 257Q14 277 28 294Q50 317 74 328T141
339Q162 339 180 335T214 324T247 314T279 309Q291 309 300 313T319 323T338 333T361 338Q385 338 401 322T418 282Z" />
</font>
</defs>
</svg>
