<?xml version="1.0" standalone="no"?> <!DOCTYPE svg PUBLIC "-//W3C//DTD SVG 1.0//EN" "http://www.w3.org/TR/2001/REC-SVG-20010904/DTD/svg10.dtd" > <svg xmlns="http://www.w3.org/2000/svg" width="100%" height="100%">
<defs >
<font id="gracoble" horiz-adv-x="561" ><font-face
    font-family="Gravur-CondensedBlackExtra"
    units-per-em="1000"
    panose-1="2 0 5 6 3 0 0 2 0 4"
    ascent="898"
    descent="-215"
    alphabetic="0" />
<missing-glyph horiz-adv-x="588" d="M88 698H500V0H88V698ZM425 74V623H163V74H425Z" />
<glyph unicode=" " glyph-name="space" horiz-adv-x="245" />
<glyph unicode="!" glyph-name="exclam" horiz-adv-x="231" d="M174 462Q174 433 156 419T116 404Q94 404 76 418T58 462V639Q58 668 76 682T116 697Q138 697 156 683T174 639V462ZM174 52Q174 23 156 9T116 -5Q94 -5 76 9T58 52V229Q58 258 76 272T116 287Q138
287 156 273T174 229V52Z" />
<glyph unicode="&quot;" glyph-name="quotedbl" horiz-adv-x="435" d="M402 639Q402 609 398 587T386 550T363 522T328 499Q308 488 278 488Q258 488 242 496T221 524Q219 534 219 533V543Q219 563 228 574T257 593Q262 595 274 605T286 639Q286 668 304 682T344
697Q366 697 384 683T402 639ZM216 639Q216 608 212 586T200 549T177 522T143 499Q119 488 92 488Q72 488 56 496T35 524Q34 529 34 533T33 543Q33 563 42 574T71 593Q76 595 88 605T100 639Q100 668 118 682T159 697Q180 697 198 683T216 639Z" />
<glyph unicode="#" glyph-name="numbersign" horiz-adv-x="490" d="M447 312Q447 287 432 271T395 246T349 233T306 229Q288 229 271 233T238 242T206 252T172 256Q160 256 153 252T138 243T122 233T100 229Q74 229 59 246T43 287Q43 307 57 324Q79 347 103 357T170
368Q191 368 209 364T243 355T276 345T308 341Q320 341 329 345T348 354T367 363T390 367Q414 367 430 351T447 312ZM447 144Q447 120 432 104T395 79T349 65T306 61Q288 61 271 65T238 75T206 84T172 89Q160 89 153 85T138 75T122 66T100 61Q74 61 59 79T43 119Q43
139 57 156Q79 179 103 190T170 201Q191 201 209 197T243 187T276 178T308 173Q320 173 329 177T348 186T367 196T390 200Q414 200 430 184T447 144Z" />
<glyph unicode="$" glyph-name="dollar" horiz-adv-x="352" d="M327 640Q327 618 312 600T267 582Q247 582 240 572T232 543V-61Q232 -92 227 -120T205 -169T160 -202T85 -215Q55 -215 40 -197T25 -157Q25 -136 40 -118T85 -100Q101 -100 108 -89T116 -61V543Q116
615 151 656T267 697Q296 697 311 679T327 640Z" />
<glyph unicode="%" glyph-name="percent" horiz-adv-x="588" d="M539 364Q539 322 514 296T446 270H374Q391 247 391 216Q391 174 366 149T298 123H49V371Q49 413 74 439T142 465Q171 465 197 448V519Q197 561 222 587T290 613Q332 613 357 587T383 519V457H446Q488
457 513 431T539 364ZM522 364Q522 398 501 419T446 440H367V519Q367 553 346 574T290 596Q256 596 235 575T214 519V287H446Q480 287 501 308T522 364Z" />
<glyph unicode="&amp;" glyph-name="ampersand" horiz-adv-x="569" d="M562 -151Q562 -173 547 -191T500 -209H85Q54 -209 38 -185T22 -134Q22 -112 32 -96L256 240L32 578Q26 586 24 596T22 616Q22 644 39 667T85 691H500Q531 691 546 673T562 634Q562 612 547
594T500 576H178L374 277Q385 260 385 240Q385 221 374 204L178 -94H500Q531 -94 546 -112T562 -151Z" />
<glyph unicode="&apos;" glyph-name="quotesingle" horiz-adv-x="588" d="M539 364Q539 322 514 296T446 270H374Q391 247 391 216Q391 174 366 149T298 123H49V371Q49 413 74 439T142 465Q171 465 197 448V519Q197 561 222 587T290 613Q332 613 357 587T383 519V457H446Q488
457 513 431T539 364ZM522 364Q522 398 501 419T446 440H367V519Q367 553 346 574T290 596Q256 596 235 575T214 519V287H446Q480 287 501 308T522 364Z" />
<glyph unicode="(" glyph-name="parenleft" horiz-adv-x="588" d="M541 241Q541 213 519 191L345 11Q329 -5 305 -5Q282 -5 265 12T247 52Q247 75 265 92L357 183H104Q81 183 64 200T47 241Q47 264 64 281T104 298H357L265 390Q247 408 247 430Q247 453 264 470T305
488Q328 488 345 471L519 291Q541 269 541 241Z" />
<glyph unicode=")" glyph-name="parenright" horiz-adv-x="588" d="M541 241Q541 213 519 191L345 11Q329 -5 305 -5Q282 -5 265 12T247 52Q247 75 265 92L357 183H104Q81 183 64 200T47 241V431Q47 460 65 474T104 488Q125 488 144 474T163 431V298H357L265 390Q247
408 247 430Q247 453 264 470T305 488Q328 488 345 471L519 291Q541 269 541 241Z" />
<glyph unicode="*" glyph-name="asterisk" horiz-adv-x="588" d="M539 364Q539 322 514 296T446 270H374Q391 247 391 216Q391 174 366 149T298 123H49V371Q49 413 74 439T142 465Q171 465 197 448V519Q197 561 222 587T290 613Q332 613 357 587T383 519V457H446Q488
457 513 431T539 364ZM522 364Q522 398 501 419T446 440H367V519Q367 553 346 574T290 596Q256 596 235 575T214 519V287H446Q480 287 501 308T522 364Z" />
<glyph unicode="+" glyph-name="plus" horiz-adv-x="588" d="M539 364Q539 322 514 296T446 270H374Q391 247 391 216Q391 174 366 149T298 123H49V371Q49 413 74 439T142 465Q171 465 197 448V519Q197 561 222 587T290 613Q332 613 357 587T383 519V457H446Q488
457 513 431T539 364ZM522 364Q522 398 501 419T446 440H367V519Q367 553 346 574T290 596Q256 596 235 575T214 519V287H446Q480 287 501 308T522 364Z" />
<glyph unicode="," glyph-name="comma" horiz-adv-x="365" d="M275 595Q275 576 268 559T249 530T219 510T183 502Q163 502 147 509T117 529T97 559T90 595Q90 614 97 631T117 660T146 680T183 688Q202 688 219 681T248 661T268 631T275 595ZM205 595Q205 604
199 610T183 616Q173 616 167 610T160 595Q160 585 166 579T183 572Q192 572 198 578T205 595Z" />
<glyph unicode="-" glyph-name="hyphen" horiz-adv-x="557" d="M518 240Q518 219 503 201T456 183H102Q71 183 56 201T40 241Q40 262 55 280T102 298H456Q487 298 502 280T518 240Z" />
<glyph unicode="." glyph-name="period" horiz-adv-x="364" d="M240 677Q240 651 222 638T182 624Q161 624 143 637T125 677V701Q125 727 143 740T182 754Q204 754 222 741T240 701V677Z" />
<glyph unicode="/" glyph-name="slash" horiz-adv-x="384" d="M366 642Q366 631 361 618L123 30Q115 10 101 3T71 -5Q48 -5 30 9T11 49Q11 60 16 73L254 661Q262 681 276 689T306 697Q329 697 347 682T366 642Z" />
<glyph unicode="0" glyph-name="zero" horiz-adv-x="556" d="M527 362Q527 334 511 318L322 128Q314 120 303 117T278 113Q266 113 255 116T235 128L43 318Q35 326 32 337T29 362Q29 375 32 386T43 405L235 596Q242 603 254 607T278 611Q307 611 322 596L511 405Q527
389 527 362ZM278 503L137 362L278 221L419 362L278 503Z" />
<glyph unicode="1" glyph-name="one" horiz-adv-x="287" d="M240 338Q240 310 223 296T185 282Q165 282 147 296T129 338V513Q115 504 99 504Q79 504 66 516Q55 524 51 534T47 554Q47 566 51 576T62 593L132 673Q142 684 153 690T185 697Q214 697 227 680T240 640V338Z" />
<glyph unicode="2" glyph-name="two" horiz-adv-x="350" d="M303 337Q303 317 289 300T247 282H99Q73 282 60 300T47 341Q47 362 58 379L176 550Q178 554 180 559T182 569V575Q182 578 180 582T170 586Q164 586 162 582T159 575V573Q159 544 141 531T103 517Q82
517 65 531T47 574V579Q47 637 82 667T166 697H174Q198 697 219 689T257 666T283 628T293 578V568Q293 542 272 509L196 393H247Q275 393 289 375T303 337Z" />
<glyph unicode="3" glyph-name="three" horiz-adv-x="338" d="M291 396Q291 371 282 350T256 314T219 291T173 282H164Q115 282 81 311T47 395Q47 419 63 431T101 444Q111 444 121 442T141 436T155 423T161 402Q161 393 169 393Q172 393 176 395T180 402V428Q180
436 177 441T157 447Q139 447 128 460T117 494Q117 514 128 525T157 537Q171 537 175 540T180 556V578Q180 586 170 586Q162 586 162 578Q162 565 155 558T139 548T121 543T106 542Q51 542 51 605Q51 650 85 673T171 697Q193 697 214 691T253 672T280 635T291 579V570Q291
547 286 532T269 499Q281 480 286 463T291 423V396Z" />
<glyph unicode="4" glyph-name="four" horiz-adv-x="850" d="M803 129Q803 120 800 110T789 91T772 76T749 70H734V50Q734 22 719 9T683 -5Q662 -5 647 8T631 50V70H511Q487 70 472 86T456 124Q456 139 464 153L588 380Q596 396 610 402T638 409Q660 409 676 395T692
358Q692 343 684 329L598 181H631V187Q631 212 645 226T683 241Q704 241 719 228T734 187V181H749Q775 181 789 165T803 129ZM615 639Q615 624 606 609L254 23Q238 -5 206 -5Q180 -5 163 11T146 51Q146 67 155 82L507 668Q524 697 555 697Q581 697 598 680T615
639ZM240 338Q240 310 223 296T185 282Q165 282 147 296T129 338V513Q115 504 99 504Q79 504 66 516Q55 524 51 534T47 554Q47 566 51 576T62 593L132 673Q142 684 153 690T185 697Q214 697 227 680T240 640V338Z" />
<glyph unicode="5" glyph-name="five" horiz-adv-x="806" d="M759 49Q759 29 745 12T703 -5H555Q529 -5 516 13T503 53Q503 74 514 91L632 262Q634 266 636 271T638 281V287Q638 291 636 294T626 298Q620 298 617 294T614 287V285Q614 256 597 243T559 229Q538
229 521 243T503 286V291Q503 348 538 378T621 409H629Q653 409 675 401T713 378T739 340T749 290V280Q749 254 728 221L652 105H703Q731 105 745 87T759 49ZM611 639Q611 624 602 609L250 23Q234 -5 202 -5Q176 -5 159 11T142 51Q142 67 151 82L503 668Q520 697
551 697Q577 697 594 680T611 639ZM240 338Q240 310 223 296T185 282Q165 282 147 296T129 338V513Q115 504 99 504Q79 504 66 516Q55 524 51 534T47 554Q47 566 51 576T62 593L132 673Q142 684 153 690T185 697Q214 697 227 680T240 640V338Z" />
<glyph unicode="6" glyph-name="six" horiz-adv-x="888" d="M841 129Q841 120 838 110T828 91T811 76T787 70H773V50Q773 22 758 9T721 -5Q700 -5 685 8T670 50V70H550Q526 70 511 86T495 124Q495 139 503 153L627 380Q635 396 648 402T676 409Q699 409 715 395T731
358Q731 343 723 329L636 181H670V187Q670 212 684 226T722 241Q743 241 758 228T773 187V181H787Q813 181 827 165T841 129ZM653 639Q653 623 645 609L292 23Q276 -5 244 -5Q219 -5 202 11T185 51Q185 67 194 82L546 668Q563 697 594 697Q620 697 636 680T653
639ZM291 396Q291 371 282 350T256 314T219 291T173 282H164Q115 282 81 311T47 395Q47 419 63 431T101 444Q111 444 121 442T141 436T155 423T161 402Q161 393 169 393Q172 393 176 395T180 402V428Q180 436 177 441T157 447Q139 447 128 460T117 494Q117 514
128 525T157 537Q171 537 175 540T180 556V578Q180 586 170 586Q162 586 162 578Q162 565 155 558T139 548T121 543T106 542Q51 542 51 605Q51 650 85 673T171 697Q193 697 214 691T253 672T280 635T291 579V570Q291 547 286 532T269 499Q281 480 286 463T291 423V396Z"
/>
<glyph unicode="7" glyph-name="seven" horiz-adv-x="588" d="M539 364Q539 322 514 296T446 270H374Q391 247 391 216Q391 174 366 149T298 123H49V371Q49 413 74 439T142 465Q171 465 197 448V519Q197 561 222 587T290 613Q332 613 357 587T383 519V457H446Q488
457 513 431T539 364ZM522 364Q522 398 501 419T446 440H367V519Q367 553 346 574T290 596Q256 596 235 575T214 519V287H446Q480 287 501 308T522 364Z" />
<glyph unicode="8" glyph-name="eight" horiz-adv-x="683" d="M654 232Q654 202 644 174T615 123T568 86T504 72Q461 72 419 94T341 147Q308 118 268 95T179 72Q143 72 115 86T68 122T39 173T29 232Q29 262 39 291T68 342T115 378T179 392Q222 392 264 370T342
317Q375 346 415 369T504 392Q540 392 568 379T615 343T644 291T654 232ZM541 232Q541 258 530 268T504 279Q483 279 460 264T417 232Q436 215 459 200T504 185Q518 185 529 195T541 232ZM266 232Q247 249 223 264T179 279Q165 279 154 269T142 232Q142 206 153
196T179 185Q199 185 223 200T266 232Z" />
<glyph unicode="9" glyph-name="nine" horiz-adv-x="470" d="M405 169Q405 133 392 101T354 46T299 9T231 -5H221Q185 -5 154 7T98 41T61 96T47 169V268Q47 308 60 340T98 395T153 429T221 441H231Q262 441 289 432V486Q289 516 275 534T239 564T195 580T153 589Q127
594 116 610T104 644Q104 664 117 680T155 697H160Q164 697 167 697T176 695L237 682Q313 665 359 612T405 478V169ZM289 268Q289 292 272 309T231 326H221Q197 326 180 309T163 268V169Q163 145 180 127T221 109H231Q255 109 272 127T289 169V268Z" />
<glyph unicode=":" glyph-name="colon" horiz-adv-x="407" d="M338 639Q338 608 328 584T299 543T257 517T206 508H201Q174 508 150 517T108 543T80 584T69 639Q69 668 87 682T127 697Q147 697 166 683T185 639Q185 623 201 623H206Q214 623 219 628T224 639Q224
668 242 682T280 697Q301 697 319 683T338 639Z" />
<glyph unicode=";" glyph-name="semicolon" horiz-adv-x="417" d="M361 645Q361 624 341 610L257 551Q237 537 211 537Q185 537 165 551L77 610Q66 618 61 627T56 646Q56 666 71 681T107 697Q122 697 135 687L211 636L279 687Q292 697 308 697Q329 697 345 681T361 645Z" />
<glyph unicode="&lt;" glyph-name="less" horiz-adv-x="426" d="M347 205Q347 182 331 163T289 144Q272 144 256 154L85 266Q72 274 66 289T59 319Q59 333 65 348T85 372L256 484Q272 494 289 494Q314 494 330 475T347 433Q347 420 340 408T319 386L210 320L319
251Q347 233 347 205ZM383 57Q383 36 369 18T325 0H101Q72 0 58 18T43 57Q43 79 57 97T101 115H325Q354 115 368 97T383 57Z" />
<glyph unicode="=" glyph-name="equal" horiz-adv-x="433" d="M435 251Q435 230 421 212T379 194H196L152 127Q142 113 131 107T106 101Q87 101 74 111Q62 119 54 131T46 158Q46 173 56 189L60 194H54Q26 194 12 212T-2 251Q-2 273 12 290T54 308H134L164 355H54Q26
355 12 372T-2 412Q-2 433 12 451T54 469H238L281 536Q290 550 302 556T327 562Q344 562 360 552Q372 544 379 532T387 505Q387 497 385 489T377 473L374 469H379Q407 469 421 451T435 412Q435 390 421 373T379 355H300L270 308H379Q407 308 421 291T435 251Z"
/>
<glyph unicode="&gt;" glyph-name="greater" horiz-adv-x="426" d="M367 319Q367 305 361 290T341 266L170 154Q154 144 138 144Q112 144 96 163T79 205Q79 233 107 251L216 320L107 386Q93 395 86 407T79 433Q79 456 95 475T138 494Q154 494 170 484L341 372Q354
364 360 349T367 319ZM383 57Q383 36 369 18T325 0H101Q72 0 58 18T43 57Q43 79 57 97T101 115H325Q354 115 368 97T383 57Z" />
<glyph unicode="?" glyph-name="question" horiz-adv-x="588" d="M539 364Q539 322 514 296T446 270H374Q391 247 391 216Q391 174 366 149T298 123H49V371Q49 413 74 439T142 465Q171 465 197 448V519Q197 561 222 587T290 613Q332 613 357 587T383 519V457H446Q488
457 513 431T539 364ZM522 364Q522 398 501 419T446 440H367V519Q367 553 346 574T290 596Q256 596 235 575T214 519V287H446Q480 287 501 308T522 364Z" />
<glyph unicode="@" glyph-name="at" horiz-adv-x="588" d="M539 364Q539 322 514 296T446 270H374Q391 247 391 216Q391 174 366 149T298 123H49V371Q49 413 74 439T142 465Q171 465 197 448V519Q197 561 222 587T290 613Q332 613 357 587T383 519V457H446Q488
457 513 431T539 364ZM522 364Q522 398 501 419T446 440H367V519Q367 553 346 574T290 596Q256 596 235 575T214 519V287H446Q480 287 501 308T522 364Z" />
<glyph unicode="A" glyph-name="A" horiz-adv-x="674" d="M659 63Q659 40 646 20T607 0H67Q41 0 28 20T14 63Q14 79 21 92L281 623Q288 637 303 645T336 654Q356 654 371 646T393 623L653 92Q659 78 659 63ZM337 504L140 101H534L337 504Z" />
<glyph unicode="B" glyph-name="B" horiz-adv-x="588" d="M539 364Q539 322 514 296T446 270H374Q391 247 391 216Q391 174 366 149T298 123H49V371Q49 413 74 439T142 465Q171 465 197 448V519Q197 561 222 587T290 613Q332 613 357 587T383 519V457H446Q488
457 513 431T539 364ZM522 364Q522 398 501 419T446 440H367V519Q367 553 346 574T290 596Q256 596 235 575T214 519V287H446Q480 287 501 308T522 364Z" />
<glyph unicode="C" glyph-name="C" horiz-adv-x="588" d="M539 364Q539 322 514 296T446 270H374Q391 247 391 216Q391 174 366 149T298 123H49V371Q49 413 74 439T142 465Q171 465 197 448V519Q197 561 222 587T290 613Q332 613 357 587T383 519V457H446Q488
457 513 431T539 364ZM522 364Q522 398 501 419T446 440H367V519Q367 553 346 574T290 596Q256 596 235 575T214 519V287H446Q480 287 501 308T522 364Z" />
<glyph unicode="D" glyph-name="D" horiz-adv-x="542" d="M488 200Q488 159 472 123T429 59T366 16T288 0H136Q113 0 96 17T78 58V323H58Q29 323 15 341T0 381Q0 403 14 420T58 438H78V633Q78 656 95 673T136 691H288Q329 691 365 676T429 633T472 570T488 491V200ZM373
491Q373 527 348 551T288 576H194V438H260Q289 438 303 421T318 381Q318 359 304 341T260 323H194V116H288L289 115Q324 115 348 140T373 200V491Z" />
<glyph unicode="E" glyph-name="E" horiz-adv-x="570" d="M534 152V146Q534 142 532 136Q523 104 504 78T460 34T404 5T340 -5H330Q288 -5 252 9T188 50T145 112T129 190V213H92Q64 213 50 231T36 270Q36 292 50 309T92 327H129V360H92Q64 360 50 378T36 417Q36
439 50 456T92 474H129V502Q129 544 145 579T188 641T252 682T330 697H339Q373 697 404 687T460 658T504 613T532 555Q534 551 534 545V539Q534 515 516 501T474 486Q459 486 446 494T425 519Q412 551 390 566T339 582H330Q295 582 270 560T244 502V474H356Q385
474 398 457T412 417Q412 396 399 378T356 360H244V327H356Q385 327 398 310T412 270Q412 249 399 231T356 213H244V190Q244 155 269 132T330 109H339Q365 109 388 124T425 172Q432 189 445 197T474 205Q497 205 515 191T534 152Z" />
<glyph unicode="F" glyph-name="F" horiz-adv-x="597" d="M568 51Q568 30 555 13T512 -5Q483 -5 457 1T412 24T382 67T371 135V582H238Q225 582 220 574T215 552V485H233Q262 485 276 467T290 427Q290 406 276 388T233 370H215V50Q215 22 197 9T157 -5Q135 -5
117 8T99 50V370H87Q60 370 46 388T32 428Q32 449 45 467T87 485H99V555Q99 591 109 618T139 662T183 688T238 697H429Q451 697 469 683T487 641V136Q487 124 493 117T512 109Q541 109 554 91T568 51Z" />
<glyph unicode="G" glyph-name="G" horiz-adv-x="588" d="M539 364Q539 322 514 296T446 270H374Q391 247 391 216Q391 174 366 149T298 123H49V371Q49 413 74 439T142 465Q171 465 197 448V519Q197 561 222 587T290 613Q332 613 357 587T383 519V457H446Q488
457 513 431T539 364ZM522 364Q522 398 501 419T446 440H367V519Q367 553 346 574T290 596Q256 596 235 575T214 519V287H446Q480 287 501 308T522 364Z" />
<glyph unicode="H" glyph-name="H" horiz-adv-x="588" d="M539 364Q539 322 514 296T446 270H374Q391 247 391 216Q391 174 366 149T298 123H49V371Q49 413 74 439T142 465Q171 465 197 448V519Q197 561 222 587T290 613Q332 613 357 587T383 519V457H446Q488
457 513 431T539 364ZM522 364Q522 398 501 419T446 440H367V519Q367 553 346 574T290 596Q256 596 235 575T214 519V287H446Q480 287 501 308T522 364Z" />
<glyph unicode="I" glyph-name="I" horiz-adv-x="588" d="M539 364Q539 322 514 296T446 270H374Q391 247 391 216Q391 174 366 149T298 123H49V371Q49 413 74 439T142 465Q171 465 197 448V519Q197 561 222 587T290 613Q332 613 357 587T383 519V457H446Q488
457 513 431T539 364ZM522 364Q522 398 501 419T446 440H367V519Q367 553 346 574T290 596Q256 596 235 575T214 519V287H446Q480 287 501 308T522 364Z" />
<glyph unicode="J" glyph-name="J" horiz-adv-x="588" d="M539 364Q539 322 514 296T446 270H374Q391 247 391 216Q391 174 366 149T298 123H49V371Q49 413 74 439T142 465Q171 465 197 448V519Q197 561 222 587T290 613Q332 613 357 587T383 519V457H446Q488
457 513 431T539 364ZM522 364Q522 398 501 419T446 440H367V519Q367 553 346 574T290 596Q256 596 235 575T214 519V287H446Q480 287 501 308T522 364Z" />
<glyph unicode="K" glyph-name="K" horiz-adv-x="588" d="M539 364Q539 322 514 296T446 270H374Q391 247 391 216Q391 174 366 149T298 123H49V371Q49 413 74 439T142 465Q171 465 197 448V519Q197 561 222 587T290 613Q332 613 357 587T383 519V457H446Q488
457 513 431T539 364ZM522 364Q522 398 501 419T446 440H367V519Q367 553 346 574T290 596Q256 596 235 575T214 519V287H446Q480 287 501 308T522 364Z" />
<glyph unicode="L" glyph-name="L" horiz-adv-x="486" d="M465 58Q465 36 451 18T407 0H151Q128 0 111 17T94 58V219L88 215Q79 209 71 207T55 205Q31 205 16 222T0 261Q0 291 30 309L94 348V639Q94 668 112 682T152 697Q173 697 191 683T209 639V416L315 479Q331
488 346 488Q370 488 385 471T401 431Q401 418 394 405T371 383L209 287V115H407Q436 115 450 97T465 58Z" />
<glyph unicode="M" glyph-name="M" horiz-adv-x="588" d="M539 364Q539 322 514 296T446 270H374Q391 247 391 216Q391 174 366 149T298 123H49V371Q49 413 74 439T142 465Q171 465 197 448V519Q197 561 222 587T290 613Q332 613 357 587T383 519V457H446Q488
457 513 431T539 364ZM522 364Q522 398 501 419T446 440H367V519Q367 553 346 574T290 596Q256 596 235 575T214 519V287H446Q480 287 501 308T522 364Z" />
<glyph unicode="N" glyph-name="N" horiz-adv-x="588" d="M539 364Q539 322 514 296T446 270H374Q391 247 391 216Q391 174 366 149T298 123H49V371Q49 413 74 439T142 465Q171 465 197 448V519Q197 561 222 587T290 613Q332 613 357 587T383 519V457H446Q488
457 513 431T539 364ZM522 364Q522 398 501 419T446 440H367V519Q367 553 346 574T290 596Q256 596 235 575T214 519V287H446Q480 287 501 308T522 364Z" />
<glyph unicode="O" glyph-name="O" horiz-adv-x="700" d="M667 57Q667 36 653 18T609 0H432Q409 0 392 17T374 58V150Q374 165 377 174T387 190T400 202T415 212Q443 230 467 245T509 280T537 326T547 390Q547 433 533 468T492 528T429 568T350 582Q307 582 271
568T209 529T168 468T153 390Q153 352 163 326T191 281T233 246T285 212Q301 202 313 191T326 150V58Q326 35 308 18T267 0H91Q62 0 47 18T32 57Q32 79 47 97T91 115H209V131Q171 151 139 176T85 234T50 304T37 390Q37 457 61 513T127 610T226 674T350 697Q417
697 474 674T573 611T638 514T662 390Q662 297 615 234T490 131V115H609Q638 115 652 97T667 57Z" />
<glyph unicode="P" glyph-name="P" horiz-adv-x="644" d="M590 -153Q590 -184 572 -199T532 -215Q511 -215 493 -200T475 -153V576H170V-153Q170 -184 152 -199T112 -215Q90 -215 72 -200T54 -153V629Q54 654 72 672T116 691H529Q554 691 572 673T590 629V-153Z" />
<glyph unicode="Q" glyph-name="Q" horiz-adv-x="588" d="M539 364Q539 322 514 296T446 270H374Q391 247 391 216Q391 174 366 149T298 123H49V371Q49 413 74 439T142 465Q171 465 197 448V519Q197 561 222 587T290 613Q332 613 357 587T383 519V457H446Q488
457 513 431T539 364ZM522 364Q522 398 501 419T446 440H367V519Q367 553 346 574T290 596Q256 596 235 575T214 519V287H446Q480 287 501 308T522 364Z" />
<glyph unicode="R" glyph-name="R" horiz-adv-x="588" d="M539 364Q539 322 514 296T446 270H374Q391 247 391 216Q391 174 366 149T298 123H49V371Q49 413 74 439T142 465Q171 465 197 448V519Q197 561 222 587T290 613Q332 613 357 587T383 519V457H446Q488
457 513 431T539 364ZM522 364Q522 398 501 419T446 440H367V519Q367 553 346 574T290 596Q256 596 235 575T214 519V287H446Q480 287 501 308T522 364Z" />
<glyph unicode="S" glyph-name="S" horiz-adv-x="486" d="M414 839Q414 829 409 819T392 800L393 801Q391 799 387 797T378 790Q369 783 352 771T304 736Q273 714 246 714Q217 714 186 736Q155 758 137 770T108 790Q103 794 99 796T92 801L94 800Q83 808 78 819T72
841Q72 863 88 879T128 896Q139 896 148 891T165 880L242 827L318 880Q327 886 336 891T356 896Q379 896 396 879T414 839ZM450 185Q450 142 435 107T392 47T327 9T246 -5H237Q196 -5 160 8T96 47T52 110T36 194Q36 223 54 237T94 252Q116 252 134 238T152 194Q152
152 175 131T237 109H246Q284 109 309 128T334 185Q334 216 313 239T259 283T189 323T119 368T65 426T43 505V526Q43 566 61 598T107 652T170 685T237 697H246Q285 697 320 686T382 653T425 603T441 537Q441 508 423 495T382 481Q361 481 344 494T326 534Q326 554
304 568T246 582H237Q204 582 182 566T159 520V505Q159 485 180 468T234 433T304 393T374 342T428 275T450 185Z" />
<glyph unicode="T" glyph-name="T" horiz-adv-x="460" d="M421 300Q421 264 408 233T370 178T315 141T247 127H181V52Q181 23 163 9T123 -5Q101 -5 83 9T65 52V639Q65 668 83 682T123 697Q145 697 163 683T181 639V564H247Q283 564 314 551T370 514T407 459T421
391V300ZM305 391Q305 415 288 432T247 449H181V242H247Q271 242 288 259T305 300V391Z" />
<glyph unicode="U" glyph-name="U" horiz-adv-x="588" d="M539 364Q539 322 514 296T446 270H374Q391 247 391 216Q391 174 366 149T298 123H49V371Q49 413 74 439T142 465Q171 465 197 448V519Q197 561 222 587T290 613Q332 613 357 587T383 519V457H446Q488
457 513 431T539 364ZM522 364Q522 398 501 419T446 440H367V519Q367 553 346 574T290 596Q256 596 235 575T214 519V287H446Q480 287 501 308T522 364Z" />
<glyph unicode="V" glyph-name="V" horiz-adv-x="462" d="M448 639Q448 628 445 619L240 34Q235 18 221 7T184 -5H179Q158 -5 144 6T124 31L27 248Q24 254 23 260T22 273Q22 299 41 314T83 330Q99 330 113 321T135 293L176 194L334 656Q341 676 356 686T388 697Q414
697 431 680T448 639Z" />
<glyph unicode="W" glyph-name="W" horiz-adv-x="588" d="M539 364Q539 322 514 296T446 270H374Q391 247 391 216Q391 174 366 149T298 123H49V371Q49 413 74 439T142 465Q171 465 197 448V519Q197 561 222 587T290 613Q332 613 357 587T383 519V457H446Q488
457 513 431T539 364ZM522 364Q522 398 501 419T446 440H367V519Q367 553 346 574T290 596Q256 596 235 575T214 519V287H446Q480 287 501 308T522 364Z" />
<glyph unicode="X" glyph-name="X" horiz-adv-x="588" d="M539 364Q539 322 514 296T446 270H374Q391 247 391 216Q391 174 366 149T298 123H49V371Q49 413 74 439T142 465Q171 465 197 448V519Q197 561 222 587T290 613Q332 613 357 587T383 519V457H446Q488
457 513 431T539 364ZM522 364Q522 398 501 419T446 440H367V519Q367 553 346 574T290 596Q256 596 235 575T214 519V287H446Q480 287 501 308T522 364Z" />
<glyph unicode="Y" glyph-name="Y" horiz-adv-x="475" d="M364 838Q364 823 357 810T332 789L171 713Q157 707 145 707Q121 707 106 725T90 766Q90 780 98 793T123 815L283 890Q296 897 309 897Q333 897 348 879T364 838ZM446 641Q446 630 441 617L296 267V52Q296
23 278 9T238 -5Q216 -5 198 9T180 52V267L34 617Q29 630 29 641Q29 666 47 681T89 697Q105 697 119 689T141 661L238 430L334 661Q342 681 356 689T386 697Q409 697 427 682T446 641Z" />
<glyph unicode="Z" glyph-name="Z" horiz-adv-x="459" d="M400 839Q400 818 379 800L380 801Q376 799 371 796T361 788Q350 780 333 768T290 736Q259 714 232 714Q203 714 172 736Q141 758 123 770T94 790Q89 794 85 796T78 801L80 800Q69 808 64 819T59 841Q59
863 75 879T115 896Q126 896 135 891T152 880L229 827L305 880Q313 886 322 891T343 896Q366 896 383 879T400 839ZM430 58Q430 36 416 18T372 0H88Q60 0 45 19T29 70Q29 85 37 103L295 576H99Q70 576 56 594T41 634Q41 655 55 673T99 691H371Q399 691 414 671T430
625Q430 607 422 589L176 115H373Q402 115 416 97T430 58Z" />
<glyph unicode="[" glyph-name="bracketleft" horiz-adv-x="588" d="M539 364Q539 322 514 296T446 270H374Q391 247 391 216Q391 174 366 149T298 123H49V371Q49 413 74 439T142 465Q171 465 197 448V519Q197 561 222 587T290 613Q332 613 357 587T383 519V457H446Q488
457 513 431T539 364ZM522 364Q522 398 501 419T446 440H367V519Q367 553 346 574T290 596Q256 596 235 575T214 519V287H446Q480 287 501 308T522 364Z" />
<glyph unicode="\" glyph-name="backslash" horiz-adv-x="588" d="M539 364Q539 322 514 296T446 270H374Q391 247 391 216Q391 174 366 149T298 123H49V371Q49 413 74 439T142 465Q171 465 197 448V519Q197 561 222 587T290 613Q332 613 357 587T383 519V457H446Q488
457 513 431T539 364ZM522 364Q522 398 501 419T446 440H367V519Q367 553 346 574T290 596Q256 596 235 575T214 519V287H446Q480 287 501 308T522 364Z" />
<glyph unicode="]" glyph-name="bracketright" horiz-adv-x="588" d="M539 364Q539 322 514 296T446 270H374Q391 247 391 216Q391 174 366 149T298 123H49V371Q49 413 74 439T142 465Q171 465 197 448V519Q197 561 222 587T290 613Q332 613 357 587T383 519V457H446Q488
457 513 431T539 364ZM522 364Q522 398 501 419T446 440H367V519Q367 553 346 574T290 596Q256 596 235 575T214 519V287H446Q480 287 501 308T522 364Z" />
<glyph unicode="^" glyph-name="asciicircum" horiz-adv-x="588" d="M539 364Q539 322 514 296T446 270H374Q391 247 391 216Q391 174 366 149T298 123H49V371Q49 413 74 439T142 465Q171 465 197 448V519Q197 561 222 587T290 613Q332 613 357 587T383 519V457H446Q488
457 513 431T539 364ZM522 364Q522 398 501 419T446 440H367V519Q367 553 346 574T290 596Q256 596 235 575T214 519V287H446Q480 287 501 308T522 364Z" />
<glyph unicode="_" glyph-name="underscore" horiz-adv-x="427" d="M384 570Q384 548 368 532T328 515Q317 515 308 520T291 531L214 584L138 531Q130 525 121 520T100 515Q77 515 60 532T43 572Q43 593 64 611L63 610Q67 612 72 615T82 623Q93 631 110 643T153
675Q184 697 211 697Q240 697 271 675Q302 654 320 641T349 621Q354 617 357 615T363 611Q374 603 379 592T384 570Z" />
<glyph unicode="`" glyph-name="grave" horiz-adv-x="588" d="M539 364Q539 322 514 296T446 270H374Q391 247 391 216Q391 174 366 149T298 123H49V371Q49 413 74 439T142 465Q171 465 197 448V519Q197 561 222 587T290 613Q332 613 357 587T383 519V457H446Q488
457 513 431T539 364ZM522 364Q522 398 501 419T446 440H367V519Q367 553 346 574T290 596Q256 596 235 575T214 519V287H446Q480 287 501 308T522 364Z" />
<glyph unicode="a" glyph-name="a" horiz-adv-x="448" d="M407 630Q407 611 398 596L291 414Q357 400 381 357T406 251V168Q406 132 393 100T355 45T300 9T232 -5H215Q179 -5 148 7T92 42T55 97T41 168Q41 197 59 211T99 226Q121 226 139 212T157 168Q157 144
174 127T215 109H232Q256 109 273 126T291 168V234Q291 260 285 275T270 297T249 306T225 308H200Q180 308 163 322T145 361Q145 379 155 395L259 576H158V560Q158 531 140 517T101 502Q79 502 61 516T42 560V633Q42 656 60 673T101 691H348Q370 691 384 679T404
648Q407 639 407 630Z" />
<glyph unicode="b" glyph-name="b" horiz-adv-x="588" d="M539 364Q539 322 514 296T446 270H374Q391 247 391 216Q391 174 366 149T298 123H49V371Q49 413 74 439T142 465Q171 465 197 448V519Q197 561 222 587T290 613Q332 613 357 587T383 519V457H446Q488
457 513 431T539 364ZM522 364Q522 398 501 419T446 440H367V519Q367 553 346 574T290 596Q256 596 235 575T214 519V287H446Q480 287 501 308T522 364Z" />
<glyph unicode="c" glyph-name="c" horiz-adv-x="388" d="M295 -102Q295 -115 291 -123Q280 -150 254 -166T197 -183H189Q149 -183 122 -156T94 -88V-78Q94 -51 108 -31T142 3T187 25T232 36Q234 36 236 36T240 37Q260 37 271 24T282 -5Q282 -19 274 -31T246 -46Q238
-48 221 -53T190 -67Q178 -72 178 -84Q178 -90 182 -94T195 -99H197Q203 -98 212 -90T224 -80Q230 -71 238 -67T256 -63Q271 -63 283 -73T295 -102Z" />
<glyph unicode="d" glyph-name="d" horiz-adv-x="485" d="M437 645Q437 634 432 623T415 603L382 579Q405 535 405 478V169Q405 133 392 101T354 46T299 9T231 -5H221Q185 -5 154 7T98 41T61 96T47 169V268Q47 308 60 340T98 395T153 429T221 441H231Q262 441
289 432V486Q289 496 286 508L253 484Q236 473 223 473Q202 473 187 490T171 527Q171 552 192 567L204 576L151 590Q127 596 116 611T105 644Q105 664 119 680T160 697Q164 697 167 697T176 695L237 682Q278 673 310 654L354 686Q364 693 372 695T389 697Q409 697
423 681T437 645ZM289 268Q289 292 272 309T231 326H221Q197 326 180 309T163 268V169Q163 145 180 127T221 109H231Q255 109 272 127T289 169V268Z" />
<glyph unicode="e" glyph-name="e" horiz-adv-x="588" d="M539 364Q539 322 514 296T446 270H374Q391 247 391 216Q391 174 366 149T298 123H49V371Q49 413 74 439T142 465Q171 465 197 448V519Q197 561 222 587T290 613Q332 613 357 587T383 519V457H446Q488
457 513 431T539 364ZM522 364Q522 398 501 419T446 440H367V519Q367 553 346 574T290 596Q256 596 235 575T214 519V287H446Q480 287 501 308T522 364Z" />
<glyph unicode="f" glyph-name="f" horiz-adv-x="548" d="M486 621Q486 592 468 578T428 564Q406 564 388 578T370 621V641Q370 669 388 683T428 697Q450 697 468 683T486 641V621ZM486 50Q486 22 468 9T428 -5Q406 -5 388 8T370 50V370H215V50Q215 22 197 9T157
-5Q135 -5 117 8T99 50V370H87Q60 370 46 388T32 428Q32 449 45 467T87 485H99V555Q99 591 109 618T139 662T183 688T238 697Q267 697 280 679T294 640Q294 618 281 600T238 582Q225 582 220 574T215 552V485H428Q450 485 468 471T486 429V50Z" />
<glyph unicode="g" glyph-name="g" horiz-adv-x="588" d="M539 364Q539 322 514 296T446 270H374Q391 247 391 216Q391 174 366 149T298 123H49V371Q49 413 74 439T142 465Q171 465 197 448V519Q197 561 222 587T290 613Q332 613 357 587T383 519V457H446Q488
457 513 431T539 364ZM522 364Q522 398 501 419T446 440H367V519Q367 553 346 574T290 596Q256 596 235 575T214 519V287H446Q480 287 501 308T522 364Z" />
<glyph unicode="h" glyph-name="h" horiz-adv-x="588" d="M539 364Q539 322 514 296T446 270H374Q391 247 391 216Q391 174 366 149T298 123H49V371Q49 413 74 439T142 465Q171 465 197 448V519Q197 561 222 587T290 613Q332 613 357 587T383 519V457H446Q488
457 513 431T539 364ZM522 364Q522 398 501 419T446 440H367V519Q367 553 346 574T290 596Q256 596 235 575T214 519V287H446Q480 287 501 308T522 364Z" />
<glyph unicode="i" glyph-name="i" horiz-adv-x="238" d="M177 50Q177 22 159 9T119 -5Q97 -5 79 8T61 50V432Q61 460 79 474T119 488Q141 488 159 474T177 432V50Z" />
<glyph unicode="j" glyph-name="j" horiz-adv-x="588" d="M539 364Q539 322 514 296T446 270H374Q391 247 391 216Q391 174 366 149T298 123H49V371Q49 413 74 439T142 465Q171 465 197 448V519Q197 561 222 587T290 613Q332 613 357 587T383 519V457H446Q488
457 513 431T539 364ZM522 364Q522 398 501 419T446 440H367V519Q367 553 346 574T290 596Q256 596 235 575T214 519V287H446Q480 287 501 308T522 364Z" />
<glyph unicode="k" glyph-name="k" horiz-adv-x="588" d="M539 364Q539 322 514 296T446 270H374Q391 247 391 216Q391 174 366 149T298 123H49V371Q49 413 74 439T142 465Q171 465 197 448V519Q197 561 222 587T290 613Q332 613 357 587T383 519V457H446Q488
457 513 431T539 364ZM522 364Q522 398 501 419T446 440H367V519Q367 553 346 574T290 596Q256 596 235 575T214 519V287H446Q480 287 501 308T522 364Z" />
<glyph unicode="l" glyph-name="l" horiz-adv-x="373" d="M373 457Q373 444 367 432T346 410L241 345V136Q241 124 247 117T266 109Q295 109 309 91T323 51Q323 30 309 12T266 -6Q237 -6 211 0T166 23T136 67T125 135V273L88 249Q72 239 57 239Q34 239 17 258T0
300Q0 313 6 325T29 348L125 408V639Q125 668 143 682T183 697Q205 697 223 683T241 639V480L284 506Q300 516 317 516Q341 516 357 498T373 457Z" />
<glyph unicode="m" glyph-name="m" horiz-adv-x="588" d="M539 364Q539 322 514 296T446 270H374Q391 247 391 216Q391 174 366 149T298 123H49V371Q49 413 74 439T142 465Q171 465 197 448V519Q197 561 222 587T290 613Q332 613 357 587T383 519V457H446Q488
457 513 431T539 364ZM522 364Q522 398 501 419T446 440H367V519Q367 553 346 574T290 596Q256 596 235 575T214 519V287H446Q480 287 501 308T522 364Z" />
<glyph unicode="n" glyph-name="n" horiz-adv-x="588" d="M539 364Q539 322 514 296T446 270H374Q391 247 391 216Q391 174 366 149T298 123H49V371Q49 413 74 439T142 465Q171 465 197 448V519Q197 561 222 587T290 613Q332 613 357 587T383 519V457H446Q488
457 513 431T539 364ZM522 364Q522 398 501 419T446 440H367V519Q367 553 346 574T290 596Q256 596 235 575T214 519V287H446Q480 287 501 308T522 364Z" />
<glyph unicode="o" glyph-name="o" horiz-adv-x="588" d="M539 364Q539 322 514 296T446 270H374Q391 247 391 216Q391 174 366 149T298 123H49V371Q49 413 74 439T142 465Q171 465 197 448V519Q197 561 222 587T290 613Q332 613 357 587T383 519V457H446Q488
457 513 431T539 364ZM522 364Q522 398 501 419T446 440H367V519Q367 553 346 574T290 596Q256 596 235 575T214 519V287H446Q480 287 501 308T522 364Z" />
<glyph unicode="p" glyph-name="p" horiz-adv-x="553" d="M532 425Q532 403 517 385T472 367H428V148Q428 133 431 125T440 114T451 109T460 107Q508 98 508 51Q508 26 491 11T432 -5Q398 -5 375 6T338 36T318 78T312 128V367H242V54Q242 24 224 10T184 -5Q162
-5 144 9T126 54V367H82Q53 367 38 385T22 425Q22 446 37 464T82 482H472Q502 482 517 464T532 425Z" />
<glyph unicode="q" glyph-name="q" horiz-adv-x="588" d="M539 364Q539 322 514 296T446 270H374Q391 247 391 216Q391 174 366 149T298 123H49V371Q49 413 74 439T142 465Q171 465 197 448V519Q197 561 222 587T290 613Q332 613 357 587T383 519V457H446Q488
457 513 431T539 364ZM522 364Q522 398 501 419T446 440H367V519Q367 553 346 574T290 596Q256 596 235 575T214 519V287H446Q480 287 501 308T522 364Z" />
<glyph unicode="r" glyph-name="r" horiz-adv-x="588" d="M539 364Q539 322 514 296T446 270H374Q391 247 391 216Q391 174 366 149T298 123H49V371Q49 413 74 439T142 465Q171 465 197 448V519Q197 561 222 587T290 613Q332 613 357 587T383 519V457H446Q488
457 513 431T539 364ZM522 364Q522 398 501 419T446 440H367V519Q367 553 346 574T290 596Q256 596 235 575T214 519V287H446Q480 287 501 308T522 364Z" />
<glyph unicode="s" glyph-name="s" horiz-adv-x="427" d="M384 640Q384 619 363 601L364 602Q360 600 355 597T345 589Q334 581 317 569T274 537Q243 515 216 515Q187 515 156 537Q125 559 107 571T78 591Q73 595 69 597T62 602L64 601Q53 609 48 620T43 642Q43
664 59 680T99 697Q110 697 119 692T136 681L213 628L289 681Q297 687 306 692T327 697Q350 697 367 680T384 640ZM395 151Q395 107 378 77T334 29T277 3T218 -5H202Q153 -5 107 22T39 97Q33 112 33 124Q33 147 50 161T89 176Q103 176 117 169T142 145Q150 131
167 120T202 109H218Q253 109 266 122T279 151Q279 171 270 178T245 189Q222 194 198 200T152 212Q106 224 74 255T42 347Q42 358 45 370Q52 403 71 425T114 462T166 482T219 488H222Q270 488 301 474T355 440Q375 420 375 399Q375 376 357 359T316 341Q297 341
280 355Q267 366 254 369T223 373H219Q190 373 174 366T157 348V341Q157 325 174 318T218 306T276 293T333 270T377 226T395 151Z" />
<glyph unicode="t" glyph-name="t" horiz-adv-x="467" d="M428 168Q428 132 414 100T375 45T319 9T251 -5H248Q232 -5 213 0T181 16V-157Q181 -186 163 -200T123 -215Q101 -215 83 -201T65 -157V639Q65 668 83 682T123 697Q145 697 163 683T181 639V466Q194 475
209 481T248 488H251Q287 488 319 475T375 438T413 383T428 315V168ZM313 315Q313 339 294 356T251 373H243Q219 373 200 356T181 315V168Q181 144 200 127T243 109H251Q275 109 294 126T313 168V315Z" />
<glyph unicode="u" glyph-name="u" horiz-adv-x="588" d="M539 364Q539 322 514 296T446 270H374Q391 247 391 216Q391 174 366 149T298 123H49V371Q49 413 74 439T142 465Q171 465 197 448V519Q197 561 222 587T290 613Q332 613 357 587T383 519V457H446Q488
457 513 431T539 364ZM522 364Q522 398 501 419T446 440H367V519Q367 553 346 574T290 596Q256 596 235 575T214 519V287H446Q480 287 501 308T522 364Z" />
<glyph unicode="v" glyph-name="v" horiz-adv-x="588" d="M539 364Q539 322 514 296T446 270H374Q391 247 391 216Q391 174 366 149T298 123H49V371Q49 413 74 439T142 465Q171 465 197 448V519Q197 561 222 587T290 613Q332 613 357 587T383 519V457H446Q488
457 513 431T539 364ZM522 364Q522 398 501 419T446 440H367V519Q367 553 346 574T290 596Q256 596 235 575T214 519V287H446Q480 287 501 308T522 364Z" />
<glyph unicode="w" glyph-name="w" horiz-adv-x="588" d="M539 364Q539 322 514 296T446 270H374Q391 247 391 216Q391 174 366 149T298 123H49V371Q49 413 74 439T142 465Q171 465 197 448V519Q197 561 222 587T290 613Q332 613 357 587T383 519V457H446Q488
457 513 431T539 364ZM522 364Q522 398 501 419T446 440H367V519Q367 553 346 574T290 596Q256 596 235 575T214 519V287H446Q480 287 501 308T522 364Z" />
<glyph unicode="x" glyph-name="x" horiz-adv-x="566" d="M530 53Q530 30 512 13T470 -5Q460 -5 450 -1T430 12L283 158L136 12Q119 -5 96 -5Q72 -5 54 12T36 53Q36 73 54 93L199 241L54 389Q36 408 36 429Q36 452 54 470T96 488Q116 488 136 470L283 324L430
470Q449 488 470 488Q494 488 512 470T530 429Q530 408 512 389L367 241L512 93Q530 73 530 53Z" />
<glyph unicode="y" glyph-name="y" horiz-adv-x="424" d="M356 638Q356 624 349 611T324 589L164 514Q151 507 138 507Q114 507 99 525T83 566Q83 580 90 593T115 615L275 691Q283 695 289 696T301 697Q325 697 340 679T356 638ZM399 434Q399 424 396 414L222
-128Q212 -159 196 -176T160 -202T120 -213T84 -215Q52 -215 39 -196T25 -157Q25 -136 38 -118T84 -100Q94 -100 105 -95T125 -67L168 64L43 413Q40 423 40 434Q40 458 58 473T98 488Q114 488 128 479T150 450L223 242L289 448Q296 469 310 478T340 488Q363 488
381 474T399 434Z" />
<glyph unicode="z" glyph-name="z" horiz-adv-x="411" d="M376 640Q376 619 355 601L356 602Q352 600 347 597T337 589Q326 581 309 569T266 537Q235 515 208 515Q179 515 148 537Q117 559 99 571T70 591Q65 595 61 597T54 602L56 601Q45 609 40 620T35 642Q35
664 51 680T91 697Q102 697 111 692T128 681L205 628L281 681Q289 687 298 692T319 697Q342 697 359 680T376 640ZM382 58Q382 36 368 18T326 0H88Q65 0 47 17T29 57Q29 80 33 91T48 116L235 367H94Q66 367 52 385T38 425Q38 446 52 464T94 482H323Q346 482 363
465T380 424Q380 404 377 395T368 377L183 115H326Q354 115 368 97T382 58Z" />
<glyph unicode="{" glyph-name="braceleft" horiz-adv-x="588" d="M539 364Q539 322 514 296T446 270H374Q391 247 391 216Q391 174 366 149T298 123H49V371Q49 413 74 439T142 465Q171 465 197 448V519Q197 561 222 587T290 613Q332 613 357 587T383 519V457H446Q488
457 513 431T539 364ZM522 364Q522 398 501 419T446 440H367V519Q367 553 346 574T290 596Q256 596 235 575T214 519V287H446Q480 287 501 308T522 364Z" />
<glyph unicode="|" glyph-name="bar" horiz-adv-x="588" d="M539 364Q539 322 514 296T446 270H374Q391 247 391 216Q391 174 366 149T298 123H49V371Q49 413 74 439T142 465Q171 465 197 448V519Q197 561 222 587T290 613Q332 613 357 587T383 519V457H446Q488
457 513 431T539 364ZM522 364Q522 398 501 419T446 440H367V519Q367 553 346 574T290 596Q256 596 235 575T214 519V287H446Q480 287 501 308T522 364Z" />
<glyph unicode="}" glyph-name="braceright" horiz-adv-x="588" d="M539 364Q539 322 514 296T446 270H374Q391 247 391 216Q391 174 366 149T298 123H49V371Q49 413 74 439T142 465Q171 465 197 448V519Q197 561 222 587T290 613Q332 613 357 587T383 519V457H446Q488
457 513 431T539 364ZM522 364Q522 398 501 419T446 440H367V519Q367 553 346 574T290 596Q256 596 235 575T214 519V287H446Q480 287 501 308T522 364Z" />
<glyph unicode="~" glyph-name="asciitilde" horiz-adv-x="588" d="M539 364Q539 322 514 296T446 270H374Q391 247 391 216Q391 174 366 149T298 123H49V371Q49 413 74 439T142 465Q171 465 197 448V519Q197 561 222 587T290 613Q332 613 357 587T383 519V457H446Q488
457 513 431T539 364ZM522 364Q522 398 501 419T446 440H367V519Q367 553 346 574T290 596Q256 596 235 575T214 519V287H446Q480 287 501 308T522 364Z" />
</font>
</defs>
</svg>
