<?xml version="1.0" standalone="no"?> <!DOCTYPE svg PUBLIC "-//W3C//DTD SVG 1.0//EN" "http://www.w3.org/TR/2001/REC-SVG-20010904/DTD/svg10.dtd" > <svg xmlns="http://www.w3.org/2000/svg" width="100%" height="100%">
<defs >
<font id="gracolt_" horiz-adv-x="479" ><font-face
    font-family="Gravur-CondensedLight"
    units-per-em="1000"
    panose-1="2 0 5 6 2 0 0 2 0 4"
    ascent="898"
    descent="-215"
    alphabetic="0" />
<missing-glyph horiz-adv-x="588" d="M88 698H500V0H88V698ZM425 74V623H163V74H425Z" />
<glyph unicode=" " glyph-name="space" horiz-adv-x="360" />
<glyph unicode="!" glyph-name="exclam" horiz-adv-x="260" d="M155 177Q155 165 147 159T130 153Q121 153 113 159T105 177V672Q105 685 113 691T130 697Q139 697 147 691T155 672V177ZM155 19Q155 6 147 1T130 -5Q121 -5 113 0T105 19V52Q105 64 113 70T130
77Q139 77 147 71T155 52V19Z" />
<glyph unicode="&quot;" glyph-name="quotedbl" horiz-adv-x="355" d="M261 508Q261 496 253 490T236 483Q227 483 219 489T211 508V672Q211 685 219 691T236 697Q245 697 253 691T261 672V508ZM143 508Q143 496 135 490T118 483Q109 483 101 489T93 508V672Q93
685 101 691T118 697Q127 697 135 691T143 672V508Z" />
<glyph unicode="#" glyph-name="numbersign" horiz-adv-x="635" d="M589 463Q589 438 564 438H439L410 279H529Q540 279 547 272T555 254Q555 243 548 236T529 229H401L363 15Q360 -5 339 -5Q328 -5 320 1T312 19Q312 21 312 21T313 24L350 229H236L198 15Q195
-5 174 -5Q163 -5 155 1T147 19Q147 21 147 21T148 24L185 229H72Q47 229 47 254Q47 279 72 279H194L223 439H107Q96 439 89 445T81 463Q81 474 88 481T107 488H232L264 676Q267 697 288 697Q299 697 306 690T314 672V667L283 488H397L429 676Q432 697 453 697Q464
697 471 690T479 672V667L448 488H564Q589 488 589 463ZM274 439L245 279H358L388 439H274Z" />
<glyph unicode="$" glyph-name="dollar" horiz-adv-x="499" d="M440 167Q440 129 427 99T392 47T338 12T270 -4V-44Q270 -56 263 -62T245 -69Q236 -69 229 -63T221 -44V-4Q186 -1 157 12T105 49T71 105T58 177Q58 190 65 196T83 202Q93 202 100 196T108 177Q108
145 118 121T147 79T189 53T242 44H252Q281 44 306 52T350 76T379 115T390 167Q390 217 366 248T307 302T230 341T153 382T93 438T69 526Q69 562 81 591T113 643T160 678T220 696V736Q220 749 227 755T244 761Q254 761 261 755T269 736V696Q302 694 331 683T381
652T414 604T427 542Q427 530 420 524T403 518Q394 518 386 524T378 543Q378 594 342 620T252 647H242Q217 647 195 639T155 615T128 576T118 525Q118 483 142 456T201 409T279 370T356 326T416 263T440 167Z" />
<glyph unicode="%" glyph-name="percent" horiz-adv-x="736" d="M277 428Q277 406 269 387T247 353T215 330T174 321Q129 321 100 352T70 428V589Q70 611 78 630T100 665T133 688T174 697Q196 697 214 689T247 665T269 631T277 589V428ZM666 101Q666 78 658 59T636
26T603 3T562 -5Q540 -5 522 3T489 25T467 59T459 101V263Q459 285 467 304T489 338T521 361T562 370Q607 370 636 339T666 263V101ZM525 673L523 663L253 9Q247 -5 231 -5Q221 -5 213 1T205 18L207 28L478 682Q484 697 500 697Q510 697 517 691T525 673ZM616 263Q616
288 600 304T562 321Q540 321 524 305T508 263V101Q508 76 524 60T562 43Q584 43 600 59T616 101V263ZM228 589Q228 614 212 631T174 648Q152 648 136 631T120 589V428Q120 403 136 387T174 370Q196 370 212 386T228 428V589Z" />
<glyph unicode="&amp;" glyph-name="ampersand" horiz-adv-x="554" d="M524 19Q524 -5 499 -5Q470 -5 446 12T401 59Q367 30 327 13T247 -5H236Q198 -5 165 9T106 48T67 106T52 178Q52 214 64 244T97 299T144 345T197 385Q188 400 178 418T159 455T144 493T138
530Q138 561 149 583T179 620T218 642T259 649H266Q286 649 308 643T349 622T380 586T393 532Q393 505 381 483T350 443T307 407T258 373L405 138Q423 162 434 188Q440 204 456 204Q467 204 474 198T482 180Q482 178 480 170Q473 150 462 131T436 95Q456 67 471
55T499 43Q524 43 524 19ZM344 532Q344 551 337 564T318 585T292 596T266 600H259Q247 600 235 596T212 582T195 560T188 530Q188 504 203 471T235 411Q255 425 274 438T309 466T334 497T344 532ZM220 347Q172 315 137 274T102 178Q102 151 112 127T141 84T183
54T236 43H247Q279 43 312 59T374 101L220 347Z" />
<glyph unicode="&apos;" glyph-name="quotesingle" horiz-adv-x="237" d="M143 500Q143 487 135 481T118 475Q109 475 101 481T93 500V672Q93 685 101 691T118 697Q127 697 135 691T143 672V500Z" />
<glyph unicode="(" glyph-name="parenleft" horiz-adv-x="345" d="M303 -78Q311 -86 311 -92Q311 -101 302 -108Q291 -116 283 -116Q277 -116 266 -108Q230 -77 199 -32T144 69T107 190T93 326Q93 394 106 458T143 579T196 680T262 757Q269 764 281 764Q292 764
299 758T307 743Q307 736 299 728Q268 700 240 659T190 565T156 453T143 326Q143 259 156 198T192 84T243 -10T303 -78Z" />
<glyph unicode=")" glyph-name="parenright" horiz-adv-x="345" d="M252 326Q252 256 239 191T202 70T147 -31T80 -108Q73 -115 63 -115Q52 -115 43 -108T34 -92Q34 -84 43 -78Q74 -51 103 -10T154 83T189 196T202 326Q202 392 189 452T155 565T105 658T46 728Q38
736 38 743Q38 751 45 757T64 764Q76 764 83 757Q118 726 149 681T203 579T239 459T252 326Z" />
<glyph unicode="*" glyph-name="asterisk" horiz-adv-x="417" d="M393 512Q393 503 387 496T370 488H368L243 493L309 387Q313 380 313 373Q313 362 306 356T288 349Q274 349 267 362L208 473L150 361Q143 348 129 348Q118 348 111 355T104 373Q104 380 107 386L174
493L49 488H47Q35 488 29 495T23 513Q23 521 29 529T47 537H49L174 532L107 638Q104 644 104 651Q104 662 111 669T129 676Q143 676 150 663L208 552L267 663Q274 676 288 676Q299 676 306 669T313 651Q313 648 313 645T310 638L244 532L368 537H370Q381 537 387
529T393 512Z" />
<glyph unicode="+" glyph-name="plus" horiz-adv-x="467" d="M414 266Q414 257 408 249T388 241H258V110Q258 97 251 91T233 85Q224 85 216 91T208 110V241H77Q64 241 58 249T52 266Q52 275 58 283T77 291H208V422Q208 435 216 441T233 447Q243 447 250 441T258
422V291H388Q401 291 407 283T414 266Z" />
<glyph unicode="," glyph-name="comma" horiz-adv-x="202" d="M126 42Q126 -13 110 -49T62 -121L44 -140Q36 -148 27 -148Q16 -148 8 -141T0 -122Q0 -113 8 -105L26 -86Q51 -61 63 -34T76 42V74Q76 87 83 93T101 99Q110 99 118 93T126 74V42Z" />
<glyph unicode="-" glyph-name="hyphen" horiz-adv-x="416" d="M364 266Q364 257 358 249T339 241H77Q64 241 58 249T52 266Q52 275 58 283T77 291H339Q352 291 358 283T364 266Z" />
<glyph unicode="." glyph-name="period" horiz-adv-x="167" d="M108 19Q108 6 100 1T83 -5Q74 -5 66 0T58 19V52Q58 64 66 70T83 77Q92 77 100 71T108 52V19Z" />
<glyph unicode="/" glyph-name="slash" horiz-adv-x="391" d="M371 741L369 731L31 -99Q24 -115 9 -115Q0 -115 -8 -109T-16 -91Q-16 -89 -14 -81L323 748Q329 765 345 765Q355 765 363 759T371 741Z" />
<glyph unicode="0" glyph-name="zero" horiz-adv-x="507" d="M412 148Q412 116 400 88T367 40T318 7T259 -5H247Q215 -5 188 7T139 39T106 88T94 148V545Q94 576 106 604T139 652T187 685T247 697H259Q290 697 318 685T367 653T400 604T412 545V148ZM363 545Q363
566 355 585T333 618T299 640T259 648H247Q226 648 207 640T174 618T151 585T143 545V148Q143 126 151 107T173 74T207 51T247 43H259Q280 43 299 51T332 73T355 107T363 148V545Z" />
<glyph unicode="1" glyph-name="one" horiz-adv-x="531" d="M328 19Q328 6 321 1T304 -5Q294 -5 287 0T279 19V636L201 526Q193 515 181 515Q171 515 164 522T156 539Q156 547 160 554L256 682Q261 689 267 693T285 697H304Q314 697 321 690T328 672V19Z" />
<glyph unicode="2" glyph-name="two" horiz-adv-x="504" d="M420 25Q420 15 414 8T395 0H119Q99 0 92 11T84 34Q84 44 88 51L344 466Q357 487 360 503T363 537V545Q363 567 355 585T332 618T298 640T256 648H246Q225 648 206 640T173 618T150 585T142 545V534Q142
521 135 515T118 509Q108 509 101 515T93 534V545Q93 576 105 604T138 652T186 685T246 697H256Q287 697 315 686T366 654T400 606T413 545V537Q413 514 409 492T387 441L142 49H395Q408 49 414 42T420 25Z" />
<glyph unicode="3" glyph-name="three" horiz-adv-x="506" d="M416 148Q416 116 404 88T371 40T322 7T263 -5H243Q211 -5 184 7T135 39T102 88T90 148Q90 160 97 166T115 173Q124 173 131 167T139 148Q139 126 147 107T169 74T203 51T243 43H263Q284 43 303 51T336
73T359 107T367 148V223Q367 264 359 288T334 326T292 343T232 347Q219 347 213 355T206 372Q206 381 212 389T232 397Q256 397 280 399T324 413T355 450T367 520V546Q367 571 358 590T334 622T300 641T261 648Q240 648 220 642T185 624T159 592T149 547Q149 534
142 528T125 522Q115 522 108 528T100 547Q100 586 114 614T150 660T202 688T262 697Q291 697 319 688T368 659T403 612T416 546V520Q416 459 397 425T350 373Q381 354 398 319T416 223V148Z" />
<glyph unicode="4" glyph-name="four" horiz-adv-x="500" d="M431 193Q431 184 425 177T406 169H341V19Q341 6 334 1T316 -5Q307 -5 300 0T292 19V169H98Q84 169 77 179T69 201Q69 202 69 205T71 213L82 237Q93 261 110 299T150 388T195 490T240 592T281 682Q288
697 302 697Q312 697 320 691T328 673Q328 672 326 662L127 218H292V317Q292 330 299 336T316 342Q326 342 333 336T341 317V218H406Q419 218 425 211T431 193Z" />
<glyph unicode="5" glyph-name="five" horiz-adv-x="506" d="M414 154Q414 121 402 92T369 42T318 8T256 -5H245Q176 -5 134 36T92 162Q92 176 100 182T117 188Q126 188 133 182T141 162Q141 100 171 72T245 43H256Q278 43 298 52T333 76T356 111T365 154V299Q365
321 357 341T333 377T298 401T256 410H245Q216 410 191 399T152 365Q141 350 124 350Q114 350 106 356T98 375V665Q98 676 105 683T123 691H367Q381 691 387 684T393 667Q393 658 387 650T367 642H147V425Q163 440 190 449T245 459H256Q289 459 318 447T368 412T402
361T414 299V154Z" />
<glyph unicode="6" glyph-name="six" horiz-adv-x="505" d="M418 154Q418 121 406 92T371 42T320 8T258 -5H246Q213 -5 184 7T133 41T99 92T86 154V537Q86 570 98 599T133 650T184 684T246 697H258Q287 697 314 687T362 660T397 619T417 567V561Q417 549 410 543T392
537Q384 537 377 542T367 558Q360 596 330 622T258 648H246Q223 648 203 639T168 615T144 580T135 537V392Q183 434 246 434H258Q291 434 320 422T371 388T405 337T418 274V154ZM368 274Q368 296 360 316T336 352T301 376T258 385H246Q223 385 203 376T168 352T144
317T135 274V152Q135 129 144 110T168 75T203 52T246 43H258Q281 43 301 51T336 75T359 109T368 152V274Z" />
<glyph unicode="7" glyph-name="seven" horiz-adv-x="506" d="M414 648L412 640L216 12Q211 -5 193 -5Q184 -5 176 1T168 18Q168 25 169 26L360 641H141V566Q141 554 134 548T117 542Q107 542 100 548T92 566V666Q92 676 99 683T117 691H377Q397 691 405 681T414
656V648Z" />
<glyph unicode="8" glyph-name="eight" horiz-adv-x="507" d="M412 148Q412 116 400 88T367 40T318 7T259 -5H247Q215 -5 188 7T139 39T106 88T94 148V242Q94 284 112 317T163 370Q131 391 113 424T94 499V544Q94 576 106 604T139 652T187 685T247 697H259Q290
697 318 685T367 653T400 604T412 544V499Q412 457 394 424T343 370Q375 350 393 317T412 242V148ZM363 544Q363 565 355 584T333 617T299 640T259 648H247Q226 648 207 640T174 618T151 584T143 544V499Q143 477 151 458T173 425T207 403T247 395H259Q280 395
299 403T332 425T355 458T363 499V544ZM363 242Q363 264 355 283T333 316T299 338T259 346H247Q226 346 207 338T174 316T151 283T143 242V148Q143 126 151 107T173 74T207 51T247 43H259Q280 43 299 51T332 73T355 107T363 148V242Z" />
<glyph unicode="9" glyph-name="nine" horiz-adv-x="505" d="M418 154Q418 120 406 91T371 41T320 7T258 -5H246Q217 -5 191 4T143 31T107 71T87 124V130Q87 142 94 148T112 154Q120 154 127 149T137 133Q145 95 175 69T246 43H258Q280 43 300 52T336 76T360 111T369
154V314Q321 272 258 272H246Q213 272 184 284T133 318T99 369T86 432V537Q86 570 98 599T133 650T184 684T246 697H258Q291 697 320 685T371 650T405 599T418 537V154ZM369 539Q369 561 360 581T336 616T301 639T258 648H246Q224 648 204 640T169 616T145 581T136
539V432Q136 409 145 389T169 354T204 330T246 321H258Q280 321 300 330T336 354T360 389T369 432V539Z" />
<glyph unicode=":" glyph-name="colon" horiz-adv-x="185" d="M118 331Q118 318 110 312T93 306Q84 306 76 312T68 331V364Q68 376 76 382T93 389Q102 389 110 383T118 364V331ZM118 19Q118 6 110 1T93 -5Q84 -5 76 0T68 19V52Q68 64 76 70T93 77Q102 77 110 71T118
52V19Z" />
<glyph unicode=";" glyph-name="semicolon" horiz-adv-x="185" d="M126 331Q126 318 118 312T101 306Q91 306 84 312T76 331V364Q76 376 83 382T101 389Q110 389 118 383T126 364V331ZM126 42Q126 -13 110 -49T62 -121L44 -140Q36 -148 27 -148Q16 -148 8 -141T0
-122Q0 -116 8 -105L26 -86Q51 -61 63 -34T76 42V74Q76 87 83 93T101 99Q110 99 118 93T126 74V42Z" />
<glyph unicode="&lt;" glyph-name="less" horiz-adv-x="331" d="M278 18Q278 7 271 1T254 -5Q242 -5 232 5L67 208Q60 216 56 223T52 241Q52 252 56 258T67 273L232 477Q243 488 254 488Q264 488 271 481T278 464Q278 453 271 446L106 241L271 36Q278 29 278 18Z" />
<glyph unicode="=" glyph-name="equal" horiz-adv-x="505" d="M424 337Q424 328 418 320T400 312H106Q94 312 88 320T82 337Q82 346 88 354T106 362H400Q412 362 418 354T424 337ZM424 196Q424 187 418 180T400 172H106Q94 172 88 179T82 196Q82 206 88 213T106
221H400Q412 221 418 214T424 196Z" />
<glyph unicode="&gt;" glyph-name="greater" horiz-adv-x="331" d="M278 241Q278 230 274 223T263 208L98 5Q88 -5 76 -5Q66 -5 59 1T52 18Q52 26 59 36L224 241L59 446Q52 456 52 464Q52 474 59 481T76 488Q87 488 98 477L263 273Q270 265 274 259T278 241Z" />
<glyph unicode="?" glyph-name="question" horiz-adv-x="396" d="M337 503Q337 465 318 437T280 389Q263 372 249 361T224 337T207 307T201 261V204Q201 192 194 186T176 179Q167 179 160 185T152 204V261Q152 297 159 319T180 358T211 389T250 425Q264 439 275
459T287 503V545Q287 566 279 585T257 618T224 640T183 648H177Q155 648 136 640T103 618T81 585T73 545V530Q73 518 65 512T48 506Q39 506 31 512T23 531V545Q23 576 35 604T68 652T117 685T177 697H183Q215 697 243 685T292 653T325 604T337 545V503ZM201 19Q201
6 194 1T176 -5Q167 -5 160 0T152 19V52Q152 64 159 70T176 77Q186 77 193 71T201 52V19Z" />
<glyph unicode="@" glyph-name="at" horiz-adv-x="887" d="M793 128Q793 62 761 29T680 -5H659Q628 -5 603 11T562 57Q540 28 508 12T437 -5H426Q395 -5 367 4T318 32T284 77T271 139V144Q271 189 295 216T354 258T429 280T500 294Q529 300 535 311T542 336Q541
380 513 409T442 438H434Q404 438 379 425T336 378Q330 363 314 363Q304 363 296 370T287 388Q287 393 290 399Q302 425 318 442T354 469T393 484T434 488H442Q472 488 499 477T548 445T581 398T593 340V139Q593 114 599 97T615 68T636 51T659 45H680Q691 45 702
49T723 62T737 88T743 128V330Q743 387 722 437T663 524T576 582T469 604H417Q360 604 311 583T224 524T165 437T143 330V147Q143 91 164 41T223 -46T310 -104T417 -126H469Q497 -126 523 -121T574 -105Q584 -103 585 -103Q596 -103 603 -111T610 -129Q610 -141
595 -150T557 -165T510 -173T469 -176H417Q350 -176 291 -151T188 -81T119 21T93 147V330Q93 397 118 456T188 560T291 629T417 655H469Q536 655 595 630T698 560T767 457T793 330V128ZM543 256Q519 246 482 241T409 227T347 199T321 143V138Q321 93 349 69T426
45H437Q459 45 478 53T511 75T534 109T543 150V256Z" />
<glyph unicode="A" glyph-name="A" horiz-adv-x="544" d="M509 18Q509 7 502 1T484 -5Q467 -5 461 12L408 172H133L83 12Q78 -5 60 -5Q50 -5 43 1T35 18Q35 25 36 26L248 679Q254 697 272 697Q289 697 295 679L508 26Q509 25 509 18ZM272 597L149 221H393L272 597Z" />
<glyph unicode="B" glyph-name="B" horiz-adv-x="543" d="M473 183Q473 145 459 112T420 54T362 15T290 0H129Q119 0 112 7T105 25V672Q105 682 112 689T129 697H290Q328 697 360 684T415 647T451 591T464 520V516Q464 465 442 423T380 357Q422 332 447 288T473
193V183ZM415 520Q415 577 380 612T290 648H154V383H290Q317 383 340 393T379 421T405 463T415 516V520ZM424 193Q424 221 414 246T385 291T342 321T290 333H154V49H290Q318 49 342 59T385 88T413 130T424 183V193Z" />
<glyph unicode="C" glyph-name="C" horiz-adv-x="509" d="M462 151Q458 117 442 89T402 39T347 7T281 -5H271Q233 -5 200 9T141 47T102 105T87 177V514Q87 552 101 585T141 643T199 682T271 697H281Q316 697 347 685T402 652T442 602T462 540V537Q462 526 455
519T438 512Q429 512 422 518T413 533Q410 557 399 578T370 614T329 639T281 648H271Q243 648 219 638T176 609T147 567T136 514V177Q136 149 146 125T175 82T218 54T271 43H281Q306 43 329 52T369 76T398 113T413 158Q415 167 422 173T438 179Q448 179 455 172T462
154V151Z" />
<glyph unicode="D" glyph-name="D" horiz-adv-x="568" d="M481 183Q481 145 467 112T428 54T370 15T298 0H130Q119 0 112 7T105 25V666Q105 676 112 683T130 691H298Q336 691 369 677T427 638T466 580T481 508V183ZM432 508Q432 536 422 560T393 603T351 631T298
642H154V49H298Q326 49 350 59T393 88T421 130T432 183V508Z" />
<glyph unicode="E" glyph-name="E" horiz-adv-x="516" d="M481 25Q481 15 475 8T456 0H130Q119 0 112 7T105 25V666Q105 676 112 683T130 691H456Q469 691 475 684T481 666Q481 657 475 650T456 642H159V383H368Q381 383 387 375T393 357Q393 348 387 341T368
333H154V49H456Q469 49 475 42T481 25Z" />
<glyph unicode="F" glyph-name="F" horiz-adv-x="481" d="M481 667Q481 658 475 650T456 642H154V383H368Q381 383 387 376T393 358Q393 348 387 341T368 333H154V19Q154 6 147 1T130 -5Q121 -5 113 0T105 19V666Q105 676 112 683T130 691H456Q469 691 475 684T481 667Z" />
<glyph unicode="G" glyph-name="G" horiz-adv-x="551" d="M463 177Q463 139 449 106T410 48T352 9T280 -5H270Q232 -5 199 9T141 47T102 105T87 177V514Q87 552 101 585T140 643T198 682T270 697H280Q317 697 350 684T408 649T448 595T463 528V526Q463 501 438
501Q414 501 413 525Q411 551 400 573T372 612T331 638T280 648H270Q242 648 218 638T175 609T147 567T136 514V177Q136 149 146 125T175 82T217 54T270 43H280Q308 43 332 53T375 82T403 124T414 177V314H292Q280 314 274 321T267 338Q267 348 273 355T292 363H438Q449
363 456 356T463 339V177Z" />
<glyph unicode="H" glyph-name="H" horiz-adv-x="586" d="M481 19Q481 6 474 1T456 -5Q447 -5 440 0T432 19V333H154V19Q154 6 147 1T130 -5Q120 -5 113 0T105 19V672Q105 685 112 691T130 697Q139 697 146 691T154 672V383H432V672Q432 685 439 691T456 697Q466
697 473 691T481 672V19Z" />
<glyph unicode="I" glyph-name="I" horiz-adv-x="283" d="M167 19Q167 6 159 1T142 -5Q133 -5 125 0T117 19V672Q117 685 125 691T142 697Q151 697 159 691T167 672V19Z" />
<glyph unicode="J" glyph-name="J" horiz-adv-x="477" d="M372 177Q372 139 358 106T319 48T261 9T189 -5H179Q146 -5 117 5T64 35T24 80T0 137V143Q0 154 7 160T25 167Q33 167 40 163T49 148Q59 103 95 73T179 43H189Q217 43 241 53T284 82T312 124T323 177V672Q323
685 330 691T348 697Q357 697 364 691T372 672V177Z" />
<glyph unicode="K" glyph-name="K" horiz-adv-x="516" d="M481 18Q481 7 473 1T455 -5Q441 -5 434 8L261 364L154 206V19Q154 6 147 1T129 -5Q120 -5 113 0T105 19V672Q105 685 112 691T129 697Q139 697 146 691T154 672V295L420 686Q428 697 440 697Q450 697
458 690T466 672Q466 666 461 658L293 411L478 30Q481 24 481 18Z" />
<glyph unicode="L" glyph-name="L" horiz-adv-x="474" d="M439 25Q439 16 433 8T414 0H130Q120 0 113 7T105 25V672Q105 685 112 691T130 697Q140 697 147 691T155 672V49H414Q427 49 433 42T439 25Z" />
<glyph unicode="M" glyph-name="M" horiz-adv-x="710" d="M605 19Q605 6 598 1T580 -5Q571 -5 564 0T556 19V600L382 219Q374 201 355 201Q348 201 340 205T328 219L154 600V19Q154 6 147 1T130 -5Q120 -5 113 0T105 19V672Q105 682 112 689T130 697H148Q153 697
160 692T170 682L355 271L540 682Q542 687 549 692T562 697H580Q590 697 597 690T605 672V19Z" />
<glyph unicode="N" glyph-name="N" horiz-adv-x="586" d="M481 20Q481 8 474 2T457 -5H439Q434 -5 426 -2T414 11L155 599V19Q155 6 147 1T130 -5Q121 -5 113 0T105 19V672Q105 682 112 689T130 697H148Q153 697 159 693T170 681L431 92V672Q431 685 439 691T456
697Q465 697 473 691T481 672V20Z" />
<glyph unicode="O" glyph-name="O" horiz-adv-x="551" d="M463 177Q463 139 449 106T410 48T352 9T280 -5H270Q232 -5 199 9T141 47T102 105T87 177V514Q87 552 101 585T140 643T198 682T270 697H280Q318 697 351 683T409 644T448 586T463 514V177ZM414 514Q414
542 404 566T375 609T333 637T280 648H270Q242 648 218 638T175 609T147 567T136 514V177Q136 149 146 125T175 82T217 54T270 43H280Q308 43 332 53T375 82T403 124T414 177V514Z" />
<glyph unicode="P" glyph-name="P" horiz-adv-x="510" d="M481 509Q481 471 467 438T428 380T370 341T298 327H154V19Q154 6 147 1T130 -5Q121 -5 113 0T105 19V666Q105 676 112 683T130 691H298Q336 691 369 677T427 638T466 580T481 509ZM432 509Q432 536 422
560T393 603T351 631T298 642H154V377H298Q326 377 350 387T393 415T421 457T432 509Z" />
<glyph unicode="Q" glyph-name="Q" horiz-adv-x="551" d="M463 177Q463 145 453 117T425 65L453 36Q460 29 460 19Q460 10 453 3T435 -5Q424 -5 417 2L389 30Q342 -5 280 -5H270Q232 -5 199 9T141 47T102 105T87 177V514Q87 552 101 585T140 643T198 682T270 697H280Q318
697 351 683T409 644T448 586T463 514V177ZM414 514Q414 542 404 566T375 609T333 637T280 648H270Q242 648 218 638T175 609T147 567T136 514V177Q136 149 146 125T175 82T217 54T270 43H280Q322 43 354 66L324 96Q317 103 317 113Q317 124 324 131T342 139Q352
139 360 131L390 100Q414 134 414 177V514Z" />
<glyph unicode="R" glyph-name="R" horiz-adv-x="545" d="M487 498Q487 464 476 434T445 379T398 339T338 317L475 30Q478 24 478 18Q478 7 470 1T452 -5Q437 -5 431 8L285 315H154V19Q154 6 147 1T129 -5Q120 -5 113 0T105 19V666Q105 676 112 683T129 691H304Q342
691 375 677T433 638T472 580T487 508V498ZM438 508Q438 536 428 560T399 603T357 631T304 642H154V364H304Q332 364 356 374T399 402T427 444T438 498V508Z" />
<glyph unicode="S" glyph-name="S" horiz-adv-x="499" d="M440 167Q440 128 426 96T386 42T326 7T252 -5H242Q204 -5 171 7T113 42T73 99T58 177Q58 190 65 196T83 202Q93 202 100 196T108 177Q108 145 118 121T147 79T189 53T242 44H252Q281 44 306 52T350 76T379
115T390 167Q390 217 366 248T307 302T230 341T153 382T93 438T69 526Q69 565 83 596T120 650T175 685T242 697H252Q288 697 320 687T375 657T413 608T427 542Q427 530 420 524T403 518Q394 518 386 524T378 543Q378 594 342 620T252 647H242Q217 647 195 639T155
615T128 576T118 525Q118 483 142 456T201 409T279 370T356 326T416 263T440 167Z" />
<glyph unicode="T" glyph-name="T" horiz-adv-x="392" d="M374 666Q374 657 368 650T349 642H220V19Q220 6 213 1T195 -5Q186 -5 179 0T171 19V642H42Q29 642 23 649T17 666Q17 676 23 683T42 691H349Q362 691 368 684T374 666Z" />
<glyph unicode="U" glyph-name="U" horiz-adv-x="586" d="M481 177Q481 139 467 106T428 48T370 9T298 -5H288Q250 -5 217 9T159 47T120 105T105 177V672Q105 685 112 691T130 697Q139 697 146 691T154 672V177Q154 149 164 125T193 82T235 54T288 43H298Q326
43 350 53T393 82T421 124T432 177V672Q432 685 439 691T456 697Q466 697 473 691T481 672V177Z" />
<glyph unicode="V" glyph-name="V" horiz-adv-x="477" d="M431 673Q431 667 430 666L278 24Q273 7 262 1T239 -5Q229 -5 217 1T201 24L48 666Q47 667 47 673Q47 684 55 690T73 697Q81 697 88 693T97 678L239 53L382 678Q384 688 391 692T406 697Q415 697 423 691T431
673Z" />
<glyph unicode="W" glyph-name="W" horiz-adv-x="767" d="M721 673Q721 667 720 666L585 23Q581 6 569 1T547 -5Q536 -5 524 0T508 23L384 565L260 23Q256 6 244 1T221 -5Q212 -5 200 0T183 23L48 666Q47 667 47 673Q47 684 55 690T74 697Q93 697 97 678L221 84L361
678Q365 697 384 697Q403 697 407 678L547 84L671 678Q675 697 694 697Q704 697 712 691T721 673Z" />
<glyph unicode="X" glyph-name="X" horiz-adv-x="503" d="M444 18Q444 7 436 1T418 -5Q404 -5 397 8L251 302L105 8Q98 -5 84 -5Q74 -5 66 1T58 18Q58 24 61 30L223 357L72 661Q69 667 69 673Q69 684 77 690T95 697Q109 697 117 683L251 413L385 683Q389 691 395
694T407 697Q417 697 425 691T433 673Q433 667 430 661L279 357L441 30Q444 24 444 18Z" />
<glyph unicode="Y" glyph-name="Y" horiz-adv-x="477" d="M431 673L429 663L264 267V19Q264 6 256 1T239 -5Q230 -5 222 0T214 19V267L49 663Q47 671 47 673Q47 684 55 690T73 697Q89 697 95 682L239 336L383 682Q389 697 405 697Q415 697 423 691T431 673Z" />
<glyph unicode="Z" glyph-name="Z" horiz-adv-x="445" d="M399 659Q399 654 398 649T391 633L106 49H373Q386 49 392 42T398 25Q398 16 392 8T373 0H72Q62 0 55 8T47 27V32Q47 37 48 42T55 58L340 642H82Q69 642 63 650T57 667Q57 676 63 683T82 691H374Q386 691
392 683T399 664V659Z" />
<glyph unicode="[" glyph-name="bracketleft" horiz-adv-x="348" d="M254 -92Q254 -102 248 -109T230 -117H151Q142 -117 135 -110T128 -93V673Q128 683 135 690T151 697H230Q242 697 248 689T254 672Q254 663 248 656T231 648H177V-67H231Q242 -67 248 -75T254 -92Z" />
<glyph unicode="\" glyph-name="backslash" horiz-adv-x="409" d="M371 -91Q371 -102 363 -108T345 -115Q330 -115 323 -99L-14 730Q-16 738 -16 740Q-16 751 -8 758T9 765Q24 765 31 749L369 -81L371 -91Z" />
<glyph unicode="]" glyph-name="bracketright" horiz-adv-x="348" d="M219 -93Q219 -102 212 -109T196 -117H117Q105 -117 99 -110T93 -92Q93 -83 99 -75T116 -67H170V648H116Q105 648 99 655T93 672Q93 681 99 689T117 697H196Q205 697 212 690T219 673V-93Z" />
<glyph unicode="^" glyph-name="asciicircum" horiz-adv-x="494" d="M494 434Q494 424 487 417T468 409Q459 409 450 418L247 646L44 418Q35 409 26 409Q15 409 8 416T0 434Q0 444 6 450L221 687Q228 697 247 697Q266 697 273 687L488 450Q494 444 494 434Z" />
<glyph unicode="_" glyph-name="underscore" horiz-adv-x="523" d="M470 25Q470 15 464 8T445 0H77Q64 0 58 7T52 25Q52 34 58 41T77 49H445Q458 49 464 42T470 25Z" />
<glyph unicode="`" glyph-name="grave" horiz-adv-x="501" d="M356 597Q356 587 349 579T332 571Q330 571 320 573L157 650Q142 657 142 671Q142 681 149 689T166 697Q172 697 178 694L341 618Q356 610 356 597Z" />
<glyph unicode="a" glyph-name="a" horiz-adv-x="483" d="M442 20Q442 -5 418 -5H413Q383 0 367 13T342 47Q320 22 290 9T224 -5H214Q182 -5 154 4T105 32T71 77T58 139V144Q58 194 84 220T147 260T227 280T301 298Q321 305 325 312T330 336Q330 358 322 376T301
408T269 430T229 438H222Q192 438 165 425T123 378Q115 363 101 363Q91 363 83 370T74 388Q74 393 77 399Q100 450 140 469T222 488H229Q259 488 286 477T333 445T366 398T379 340V139Q379 110 381 93T388 65T401 50T421 44Q442 41 442 20ZM330 256Q308 246 271
241T197 226T134 198T107 143V138Q107 93 136 68T214 43H224Q246 43 265 51T299 74T321 108T330 150V256Z" />
<glyph unicode="b" glyph-name="b" horiz-adv-x="503" d="M427 150Q427 118 415 90T382 40T333 7T271 -5H262Q247 -5 231 -2T201 8T174 24T155 43V19Q155 6 147 1T130 -5Q121 -5 113 0T105 19V672Q105 685 113 691T130 697Q139 697 147 691T155 672V439Q169 461
200 474T262 488H271Q303 488 331 476T381 443T414 394T427 332V150ZM377 333Q377 355 369 374T347 408T313 431T271 439H262Q239 439 220 431T186 407T164 372T155 330V152Q155 130 163 111T186 76T220 52T262 43H271Q293 43 312 51T346 74T368 108T377 149V333Z"
/>
<glyph unicode="c" glyph-name="c" horiz-adv-x="456" d="M398 150Q398 118 386 90T352 40T303 7T242 -5H232Q200 -5 172 7T122 40T89 89T76 150V332Q76 365 88 393T122 443T171 476T232 488H242Q274 488 302 476T352 443T385 394T398 332Q398 319 391 313T374
307Q365 307 357 313T349 332Q349 354 341 373T318 407T284 430T242 439H232Q210 439 191 431T157 408T134 374T125 332V150Q125 128 133 109T156 75T190 52T232 43H242Q264 43 283 51T317 74T340 108T349 150Q349 163 357 169T374 176Q383 176 390 170T398 150Z"
/>
<glyph unicode="d" glyph-name="d" horiz-adv-x="502" d="M397 19Q397 6 389 1T372 -5Q363 -5 355 0T347 19V43Q340 33 328 24T302 9T271 -1T240 -5H231Q198 -5 170 7T120 40T87 89T75 150V332Q75 365 87 393T121 443T170 476T231 488H240Q271 488 302 475T347
439V672Q347 685 355 691T372 697Q381 697 389 691T397 672V19ZM347 330Q347 352 339 372T316 407T282 430T240 439H231Q208 439 189 431T156 409T133 375T125 333V149Q125 127 133 108T156 75T189 52T231 43H240Q262 43 281 52T315 76T338 110T347 152V330Z" />
<glyph unicode="e" glyph-name="e" horiz-adv-x="461" d="M397 241Q397 231 390 224T372 216H124V150Q124 128 132 109T155 75T189 52T231 43H241Q276 43 302 63T340 115Q346 132 363 132Q373 132 381 126T390 108Q389 107 389 106Q389 104 389 103T388 99Q372
51 332 23T241 -5H231Q199 -5 171 7T121 40T88 89T75 150V332Q75 364 87 392T121 442T170 475T230 488H240Q273 488 301 477T351 444T384 395T397 332V241ZM348 332Q348 354 340 373T316 407T282 430T242 439H232Q210 439 191 431T156 408T133 374T124 332V266H348V332Z"
/>
<glyph unicode="f" glyph-name="f" horiz-adv-x="293" d="M263 673Q263 664 257 656T237 648Q205 648 185 628T164 572V485H231Q244 485 250 478T257 461Q257 452 251 444T231 436H164V19Q164 6 157 1T140 -5Q131 -5 123 0T115 19V436H77Q64 436 58 444T52 461Q52
470 58 477T77 485H115V572Q115 635 149 666T237 697Q250 697 256 690T263 673Z" />
<glyph unicode="g" glyph-name="g" horiz-adv-x="487" d="M400 -59Q400 -91 388 -119T355 -169T306 -202T245 -215H235Q209 -215 184 -209T136 -189T96 -155T71 -109Q70 -108 70 -101Q70 -90 78 -84T96 -77Q113 -77 119 -95Q128 -125 160 -145T235 -166H245Q267
-166 286 -158T319 -135T342 -101T350 -59V43Q336 22 306 9T244 -5H234Q202 -5 174 7T124 40T91 89T79 150V332Q79 365 91 393T124 443T173 476T234 488H244Q274 488 305 475T350 439V463Q350 476 358 482T375 488Q385 488 392 482T400 463V-59ZM350 330Q350 352
342 372T319 407T286 430T244 439H234Q211 439 192 431T159 409T136 375T128 333V149Q128 127 136 108T159 75T193 52T234 43H244Q266 43 285 52T318 76T341 110T350 152V330Z" />
<glyph unicode="h" glyph-name="h" horiz-adv-x="497" d="M427 19Q427 6 419 1T402 -5Q393 -5 385 0T377 19V333Q377 355 369 374T347 408T313 431T271 439H262Q239 439 220 431T186 407T164 372T155 330V19Q155 6 147 1T130 -5Q121 -5 113 0T105 19V672Q105 685
113 691T130 697Q139 697 147 691T155 672V439Q169 461 200 474T262 488H271Q303 488 331 476T381 443T414 394T427 332V19Z" />
<glyph unicode="i" glyph-name="i" horiz-adv-x="248" d="M149 639Q149 627 141 621T124 614Q115 614 107 620T99 639V672Q99 685 107 691T124 697Q133 697 141 691T149 672V639ZM149 19Q149 6 141 1T124 -5Q115 -5 107 0T99 19V463Q99 476 107 482T124 488Q133
488 141 482T149 463V19Z" />
<glyph unicode="j" glyph-name="j" horiz-adv-x="237" d="M138 639Q138 627 131 621T113 614Q104 614 97 620T89 639V672Q89 685 96 691T113 697Q123 697 130 691T138 672V639ZM138 -100Q138 -154 115 -184T35 -215Q21 -215 14 -207T6 -190Q6 -181 13 -174T34
-166Q63 -166 76 -148T89 -100V463Q89 476 96 482T113 488Q123 488 130 482T138 463V-100Z" />
<glyph unicode="k" glyph-name="k" horiz-adv-x="474" d="M433 462Q433 458 432 454T426 445L280 290L428 32Q432 25 432 19Q432 8 424 2T405 -5Q391 -5 384 7L244 251L154 156V19Q154 6 147 1T130 -5Q120 -5 113 0T105 19V672Q105 685 112 691T130 697Q139 697
146 691T154 672V230L389 480Q397 488 407 488Q418 488 425 481T433 462Z" />
<glyph unicode="l" glyph-name="l" horiz-adv-x="296" d="M249 19Q249 9 243 2T223 -5Q162 -5 131 31T99 119V672Q99 685 107 691T124 697Q133 697 141 691T149 672V119Q149 87 169 65T223 43Q236 43 242 36T249 19Z" />
<glyph unicode="m" glyph-name="m" horiz-adv-x="755" d="M679 19Q679 6 672 1T655 -5Q645 -5 638 0T630 19V333Q630 355 622 374T600 408T566 431T524 439H515Q492 439 473 431T439 407T417 372T408 330V19Q408 6 400 1T383 -5Q374 -5 366 0T358 19V333Q358 355
350 374T328 408T294 431T252 439H243Q220 439 201 431T167 407T145 372T136 330V19Q136 6 129 1T111 -5Q102 -5 95 0T87 19V463Q87 476 94 482T111 488Q121 488 128 482T136 463V439Q150 461 181 474T243 488H252Q294 488 328 468T384 416Q406 448 439 468T515
488H524Q556 488 584 476T634 443T667 394T679 332V19Z" />
<glyph unicode="n" glyph-name="n" horiz-adv-x="485" d="M409 19Q409 6 401 1T384 -5Q375 -5 367 0T359 19V333Q359 355 351 374T329 408T295 431T253 439H244Q221 439 202 431T168 407T146 372T137 330V19Q137 6 129 1T112 -5Q103 -5 95 0T87 19V463Q87 476
95 482T112 488Q121 488 129 482T137 463V439Q151 461 182 474T244 488H253Q285 488 313 476T363 443T396 394T409 332V19Z" />
<glyph unicode="o" glyph-name="o" horiz-adv-x="471" d="M397 150Q397 118 385 90T351 40T302 7T241 -5H231Q199 -5 171 7T121 40T88 89T75 150V332Q75 365 87 393T121 443T170 476T231 488H241Q273 488 301 476T351 443T384 394T397 332V150ZM348 332Q348 354
340 373T317 407T283 430T241 439H231Q209 439 190 431T156 408T133 374T124 332V150Q124 128 132 109T155 75T189 52T231 43H241Q263 43 282 51T316 74T339 108T348 150V332Z" />
<glyph unicode="p" glyph-name="p" horiz-adv-x="485" d="M409 150Q409 117 397 89T363 39T314 7T253 -5H244Q213 -5 182 8T137 43V-190Q137 -203 129 -209T112 -215Q103 -215 95 -209T87 -190V463Q87 476 95 482T112 488Q121 488 129 482T137 463V439Q144 449
156 458T182 473T213 484T244 488H253Q286 488 314 476T364 442T397 393T409 332V150ZM359 333Q359 355 351 374T328 407T295 430T253 439H244Q222 439 203 430T169 406T146 372T137 330V152Q137 129 145 110T168 75T201 52T244 43H253Q275 43 294 51T328 73T351
107T359 149V333Z" />
<glyph unicode="q" glyph-name="q" horiz-adv-x="485" d="M398 -190Q398 -203 390 -209T373 -215Q364 -215 356 -209T348 -190V43Q334 21 303 8T241 -5H232Q200 -5 172 6T122 39T89 88T76 150V332Q76 364 88 392T121 442T170 475T232 488H241Q256 488 272 484T302
474T329 458T348 439V463Q348 476 356 482T373 488Q382 488 390 482T398 463V-190ZM348 330Q348 352 340 371T317 406T283 430T241 439H232Q210 439 191 431T157 408T135 374T126 333V149Q126 126 134 107T156 74T190 51T232 43H241Q263 43 283 51T317 75T339 109T348
152V330Z" />
<glyph unicode="r" glyph-name="r" horiz-adv-x="345" d="M321 426Q321 415 313 408T295 401Q283 401 275 412Q263 429 248 434T211 439Q180 439 159 424T137 373V20Q137 7 130 1T112 -5Q103 -5 95 1T87 20V463Q87 476 95 482T113 488Q122 488 129 482T137 464Q148
475 169 481T211 488Q237 488 266 478T315 441Q321 433 321 426Z" />
<glyph unicode="s" glyph-name="s" horiz-adv-x="447" d="M394 136Q394 98 379 72T339 28T286 3T231 -5H213Q166 -5 122 21T55 93Q54 96 53 99T52 104Q52 115 60 122T79 129Q95 129 101 114Q116 82 148 63T213 43H231Q256 43 277 50T313 71T336 101T344 136Q344
176 324 196T274 227T209 243T143 261T93 298T73 368V373Q73 398 84 419T116 455T165 479T225 488H227Q258 488 284 481T329 464T358 443T368 423Q368 413 361 406T344 398Q334 398 327 405Q307 423 284 431T227 439H222Q207 439 190 435T157 423T132 403T122 372V368Q122
336 142 321T192 297T258 281T323 258T374 215T394 136Z" />
<glyph unicode="t" glyph-name="t" horiz-adv-x="303" d="M257 19Q257 9 251 2T232 -5Q175 -5 142 28T108 119V436H72Q59 436 53 443T47 460Q47 470 53 477T72 485H108V672Q108 685 115 691T133 697Q142 697 149 691T157 672V485H226Q239 485 245 478T252 460Q252
451 246 444T226 436H157V119Q157 87 177 65T232 43Q245 43 251 36T257 19Z" />
<glyph unicode="u" glyph-name="u" horiz-adv-x="485" d="M398 19Q398 6 390 1T373 -5Q364 -5 356 0T348 19V43Q334 21 303 8T241 -5H232Q200 -5 172 6T122 39T89 88T76 150V463Q76 476 84 482T101 488Q110 488 118 482T126 463V149Q126 126 134 107T156 74T190
51T232 43H241Q263 43 283 51T317 75T339 109T348 152V463Q348 476 356 482T373 488Q382 488 390 482T398 463V19Z" />
<glyph unicode="v" glyph-name="v" horiz-adv-x="443" d="M397 464Q397 456 396 455L253 15Q248 3 239 -1T222 -5Q214 -5 205 -1T191 15L48 455Q47 456 47 464Q47 475 55 481T73 488Q90 488 96 471L222 85L348 471Q354 488 371 488Q381 488 389 482T397 464Z" />
<glyph unicode="w" glyph-name="w" horiz-adv-x="665" d="M619 464Q619 462 618 460T617 455L494 15Q490 2 482 -1T463 -5Q454 -5 446 -2T433 15L333 378L233 15Q229 2 221 -1T203 -5Q192 -5 184 -2T172 15L49 455Q48 458 48 462Q48 463 47 464Q47 475 55 481T73
488Q81 488 88 484T97 471L202 85L306 471Q308 480 316 484T333 488Q342 488 350 484T360 471L464 85L569 471Q571 480 578 484T593 488Q603 488 611 482T619 464Z" />
<glyph unicode="x" glyph-name="x" horiz-adv-x="441" d="M388 19Q388 8 380 2T362 -5Q349 -5 341 6L220 201L99 6Q91 -5 78 -5Q68 -5 60 1T52 19Q52 26 56 33L190 248L66 449Q62 456 62 463Q62 474 70 481T88 488Q101 488 109 476L220 296L331 476Q338 488 352
488Q362 488 370 481T378 463Q378 460 378 457T374 449L250 248L384 33Q387 29 387 26T388 19Z" />
<glyph unicode="y" glyph-name="y" horiz-adv-x="412" d="M371 464Q371 456 370 455L199 -78Q192 -101 181 -125T153 -170T115 -202T65 -215Q54 -215 48 -208T41 -189Q41 -178 47 -173T63 -166Q82 -162 96 -152T120 -128T137 -98T150 -63L186 46L43 454Q42 455
42 464Q42 475 50 481T68 488Q75 488 81 484T91 471L211 125L322 470Q328 488 345 488Q355 488 363 482T371 464Z" />
<glyph unicode="z" glyph-name="z" horiz-adv-x="388" d="M342 25Q342 16 336 8T316 0H83Q71 0 59 5T47 33Q47 44 50 50T61 70L276 433H80Q67 433 61 441T55 458Q55 467 61 474T80 482H303Q314 482 326 476T338 449Q338 438 335 432T327 417L107 49H316Q329 49
335 42T342 25Z" />
<glyph unicode="{" glyph-name="braceleft" horiz-adv-x="346" d="M299 -80Q299 -90 293 -97T274 -105Q233 -105 209 -94T172 -63T155 -20T151 32V241Q151 267 132 286Q122 297 115 304T103 318T96 330T93 345Q93 354 95 360T102 373T114 386T132 405Q151 424
151 450V619Q151 646 155 671T172 715T209 745T274 757Q286 757 292 750T299 732Q299 723 293 716T274 708Q255 708 242 706T219 694T206 667T201 619V450Q201 431 196 417T181 390T162 367T141 345Q151 335 161 325T181 302T195 274T201 241V32Q201 2 205 -15T219
-42T241 -53T274 -56Q286 -56 292 -63T299 -80Z" />
<glyph unicode="|" glyph-name="bar" horiz-adv-x="330" d="M190 -131Q190 -144 182 -150T165 -156Q156 -156 148 -150T140 -131V743Q140 755 148 761T165 768Q174 768 182 762T190 743V-131Z" />
<glyph unicode="}" glyph-name="braceright" horiz-adv-x="346" d="M253 345Q253 336 251 330T245 318T233 305T214 286Q195 267 195 241V32Q195 5 191 -19T174 -63T137 -93T72 -105Q60 -105 54 -98T47 -80Q47 -71 53 -64T72 -56Q91 -56 104 -54T127 -42T140 -16T145
32V241Q145 259 150 274T165 301T184 324T205 345Q195 356 185 366T165 389T151 416T145 450V614Q145 644 141 662T127 689T105 700T72 703Q60 703 54 710T47 727Q47 737 53 744T72 752Q112 752 136 741T174 710T191 666T195 614V450Q195 424 214 405Q225 394 232
387T244 373T251 361T253 345Z" />
<glyph unicode="~" glyph-name="asciitilde" horiz-adv-x="489" d="M386 669Q386 649 360 636T297 623Q278 623 262 627T231 636T205 645T183 649Q170 649 161 645T146 636T134 627T122 623Q113 623 107 630T100 645Q100 656 108 664T129 679T155 688T179 691Q199
691 215 687T246 678T273 669T297 665Q315 665 324 669T340 678T350 687T363 691Q372 691 379 685T386 669Z" />
</font>
</defs>
</svg>
