<?xml version="1.0" standalone="no"?> <!DOCTYPE svg PUBLIC "-//W3C//DTD SVG 1.0//EN" "http://www.w3.org/TR/2001/REC-SVG-20010904/DTD/svg10.dtd" > <svg xmlns="http://www.w3.org/2000/svg" width="100%" height="100%">
<defs >
<font id="gracorg_" horiz-adv-x="469" ><font-face
    font-family="Gravur-Condensed"
    units-per-em="1000"
    panose-1="2 0 5 6 2 0 0 2 0 4"
    ascent="898"
    descent="-215"
    alphabetic="0" />
<missing-glyph horiz-adv-x="588" d="M88 698H500V0H88V698ZM425 74V623H163V74H425Z" />
<glyph unicode=" " glyph-name="space" horiz-adv-x="345" />
<glyph unicode="!" glyph-name="exclam" horiz-adv-x="256" d="M166 206Q166 186 154 177T128 168Q114 168 102 177T90 206V659Q90 678 102 687T128 697Q142 697 154 688T166 659V206ZM166 32Q166 13 154 4T128 -5Q114 -5 102 4T90 32V54Q90 73 102 82T128 92Q142
92 154 83T166 54V32Z" />
<glyph unicode="&quot;" glyph-name="quotedbl" horiz-adv-x="354" d="M274 521Q274 502 262 493T236 483Q222 483 210 492T198 521V660Q198 679 210 688T236 697Q250 697 262 688T274 660V521ZM156 521Q156 502 144 493T118 483Q104 483 92 492T80 521V660Q80
679 92 688T118 697Q132 697 144 688T156 660V521Z" />
<glyph unicode="#" glyph-name="numbersign" horiz-adv-x="698" d="M658 450Q658 436 649 424T620 412H487L465 290H585Q604 290 613 278T623 252Q623 238 614 226T585 214H452L419 25Q416 9 406 2T382 -5Q365 -5 354 5T343 31Q343 33 343 35T344 39L375 214H265L231
25Q228 9 218 2T195 -5Q178 -5 167 5T156 31Q156 38 157 39L188 214H78Q59 214 50 226T40 252Q40 266 49 278T78 290H201L223 412H113Q93 412 84 424T75 450Q75 464 84 476T113 488H236L268 666Q271 682 281 689T304 697Q321 697 332 687T343 660V652L313 488H424L455
666Q458 682 468 689T492 697Q509 697 519 687T530 660V652L501 488H620Q639 488 648 476T658 450ZM300 412L278 290H388L410 412H300Z" />
<glyph unicode="$" glyph-name="dollar" horiz-adv-x="498" d="M448 180Q448 102 407 54T291 -3L290 -48Q289 -67 278 -76T253 -86Q238 -86 227 -77T215 -48V-3Q181 1 151 15T99 52T63 107T50 179Q50 198 62 207T88 216Q102 216 114 207T126 178Q126 151 136 131T163
98T202 77T249 70H259Q319 70 345 98T372 181Q372 212 362 232T336 268T298 295T253 320Q217 340 183 356T121 395T77 447T60 526Q60 558 71 586T104 637T153 674T215 694V750Q215 769 226 778T252 788Q266 788 278 779T290 750V694Q321 689 348 676T395 641T428
594T440 537Q440 518 429 509T404 500Q390 500 378 509T364 536Q360 573 331 597T256 621H247Q216 621 195 611T161 587T143 556T137 526Q137 499 147 480T174 448T212 424T253 402Q290 382 325 364T388 322T431 265T448 180Z" />
<glyph unicode="%" glyph-name="percent" horiz-adv-x="736" d="M676 111Q676 87 668 66T644 29T608 4T563 -5Q539 -5 518 4T482 29T458 66T449 111V253Q449 277 457 298T481 335T518 360T563 370Q587 370 607 361T643 335T667 298T676 253V111ZM534 660Q534 652
531 645L271 18Q266 5 257 0T238 -5Q220 -5 209 5T198 31Q198 39 201 47L461 674Q466 687 475 692T494 697Q512 697 523 686T534 660ZM287 438Q287 414 279 393T255 356T219 331T174 321Q150 321 129 330T93 356T69 393T60 438V580Q60 604 68 625T92 662T129 687T174
697Q198 697 218 688T254 662T278 625T287 580V438ZM600 253Q600 271 589 282T563 294Q549 294 537 283T525 253V111Q525 93 537 82T563 70Q577 70 588 81T600 111V253ZM211 580Q211 598 200 609T174 621Q159 621 148 610T136 580V438Q136 420 147 409T174 397Q188
397 199 408T211 438V580Z" />
<glyph unicode="&amp;" glyph-name="ampersand" horiz-adv-x="551" d="M526 32Q526 18 517 7T487 -5Q458 -5 435 9T391 49Q359 23 321 9T245 -5H236Q197 -5 162 9T101 49T60 109T45 184Q45 219 56 248T87 302T130 348T179 387Q156 430 141 463T125 524Q125 555
137 578T167 617T209 641T257 649H264Q291 649 316 642T359 619T389 580T401 524Q401 498 392 476T366 435T328 399T283 366Q293 348 308 323T339 270T372 218T400 174Q404 182 407 188T412 199Q417 212 426 217T446 223Q461 223 473 214T486 187Q486 180 483 171Q476
153 467 137T445 105Q458 88 469 81T499 68Q513 64 519 54T526 32ZM325 524Q325 547 311 560T264 573H257Q239 573 220 559T201 522Q201 503 215 478T243 430Q278 454 301 476T325 524ZM348 112Q338 127 323 149T291 200T254 259T217 321Q177 292 149 260T121 184Q121
160 130 140T155 104T191 79T236 70H245Q298 70 348 112Z" />
<glyph unicode="&apos;" glyph-name="quotesingle" horiz-adv-x="236" d="M156 513Q156 494 144 485T118 475Q104 475 92 484T80 513V659Q80 678 92 687T118 697Q132 697 144 688T156 659V513Z" />
<glyph unicode="(" glyph-name="parenleft" horiz-adv-x="327" d="M286 -54Q298 -66 298 -79Q298 -94 285 -104Q273 -116 258 -116Q245 -116 233 -104Q201 -73 173 -28T125 72T92 192T80 326Q80 394 92 457T124 575T171 675T230 753Q242 765 256 765Q268 765 282
754Q294 742 294 728Q294 715 283 704Q258 679 235 640T193 552T164 446T153 326Q153 262 164 204T193 97T236 10T286 -54Z" />
<glyph unicode=")" glyph-name="parenright" horiz-adv-x="327" d="M247 326Q247 257 235 193T203 73T154 -28T94 -104Q82 -116 69 -116Q55 -116 42 -104Q30 -92 30 -78Q30 -65 41 -54Q67 -29 91 9T133 97T163 204T174 326Q174 388 164 445T135 552T94 640T44
704Q33 715 33 728Q33 742 45 754Q59 765 71 765Q85 765 97 753Q129 722 156 677T204 576T235 457T247 326Z" />
<glyph unicode="*" glyph-name="asterisk" horiz-adv-x="371" d="M351 440Q351 425 341 413T314 400Q303 400 294 406L215 461L224 365V360Q224 343 212 335T186 327Q172 327 160 335T148 360V365L156 461L77 406Q68 400 57 400Q41 400 31 412T20 440Q20 449 24
458T39 472L127 512L39 553Q28 558 24 567T20 584Q20 599 30 611T57 624Q68 624 77 618L156 563L148 659V663Q148 680 160 688T186 697Q200 697 212 689T224 663V659L215 563L294 618Q303 624 314 624Q330 624 340 612T351 584Q351 576 347 567T332 553L244 512L332
472Q343 467 347 458T351 440Z" />
<glyph unicode="+" glyph-name="plus" horiz-adv-x="452" d="M407 267Q407 253 398 241T369 229H264V124Q264 105 252 96T226 86Q212 86 200 95T188 124V229H83Q64 229 55 241T45 267Q45 281 54 293T83 305H188V410Q188 429 200 438T226 448Q240 448 252 439T264
410V305H369Q388 305 397 293T407 267Z" />
<glyph unicode="," glyph-name="comma" horiz-adv-x="206" d="M141 38Q141 11 139 -10T129 -50T111 -84T82 -119L66 -135Q53 -148 39 -148Q24 -148 12 -137T0 -109Q0 -97 11 -83L28 -65Q39 -54 46 -45T57 -24T63 3T65 39V61Q65 81 77 90T103 99Q117 99 129 90T141 61V38Z" />
<glyph unicode="-" glyph-name="hyphen" horiz-adv-x="427" d="M382 267Q382 253 373 241T344 229H83Q64 229 55 241T45 267Q45 281 54 293T83 305H343Q363 305 372 293T382 267Z" />
<glyph unicode="." glyph-name="period" horiz-adv-x="176" d="M126 32Q126 13 114 4T88 -5Q74 -5 62 4T50 32V54Q50 73 62 82T88 92Q102 92 114 83T126 54V32Z" />
<glyph unicode="/" glyph-name="slash" horiz-adv-x="391" d="M387 728Q387 719 384 712L57 -91Q46 -115 24 -115Q6 -115 -4 -104T-15 -78V-70L-13 -62L313 740Q319 754 328 759T347 765Q365 765 376 754T387 728Z" />
<glyph unicode="0" glyph-name="zero" horiz-adv-x="480" d="M407 155Q407 121 395 92T360 42T309 8T245 -5H234Q201 -5 172 7T120 41T86 92T73 155V536Q73 569 85 598T120 650T171 684T234 697H245Q279 697 308 685T360 650T394 599T407 536V155ZM331 536Q331
571 306 596T245 621H234Q199 621 174 596T149 536V155Q149 120 174 95T234 70H245Q281 70 306 95T331 155V536Z" />
<glyph unicode="1" glyph-name="one" horiz-adv-x="480" d="M313 32Q313 13 301 4T275 -5Q261 -5 249 4T237 32V580L188 510Q177 493 158 493Q143 493 131 504T118 532Q118 543 126 554L222 683Q231 697 253 697H285Q300 697 306 688T313 664V32Z" />
<glyph unicode="2" glyph-name="two" horiz-adv-x="480" d="M408 38Q408 24 399 12T370 0H112Q91 0 81 14T71 47Q71 66 81 82L308 462Q322 485 324 498T327 527V533Q327 569 305 595T242 621H239Q221 621 206 615T180 597T163 570T156 537V526Q156 507 144 498T118
488Q104 488 92 497T79 526V537Q79 570 91 599T125 650T176 684T238 697H241Q274 697 303 685T355 651T390 600T403 537V530Q403 508 399 484T377 430L166 76H369Q388 76 398 64T408 38Z" />
<glyph unicode="3" glyph-name="three" horiz-adv-x="480" d="M411 155Q411 121 398 92T363 42T312 8T249 -5H230Q197 -5 168 7T116 41T82 92T69 155Q69 175 81 184T107 193Q121 193 133 184T145 155Q145 120 170 95T230 70H249Q284 70 309 94T335 155V223Q335
259 328 281T307 314T270 328T219 332Q199 332 190 344T180 370Q180 384 189 396T219 408Q239 408 260 410T297 422T324 453T335 513V537Q335 558 327 574T307 600T278 616T244 622Q227 622 211 617T182 602T162 575T154 538Q154 519 142 510T116 500Q102 500 90
509T78 538Q78 578 92 608T130 657T183 687T244 697Q275 697 305 687T358 657T396 607T411 537V513Q411 458 395 424T356 370Q382 349 396 313T411 223V155Z" />
<glyph unicode="4" glyph-name="four" horiz-adv-x="480" d="M431 193Q431 179 422 167T393 155H348V32Q348 13 336 4T310 -5Q296 -5 284 4T272 32V155H94Q73 155 61 168T49 199Q49 204 54 221L253 674Q264 697 286 697Q304 697 315 686T326 660Q326 656 326 652T323
644L139 231H271V311Q271 331 283 340T309 349Q323 349 335 340T347 311V231H392Q412 231 421 219T431 193Z" />
<glyph unicode="5" glyph-name="five" horiz-adv-x="480" d="M404 155Q404 121 392 92T357 42T306 8T243 -5H232Q198 -5 170 6T120 38T88 91T76 163Q76 182 88 191T114 201Q128 201 140 192T152 163Q152 110 174 90T231 70H242Q277 70 302 94T328 155V311Q328
347 303 372T243 397H232Q209 397 190 386T159 356Q145 335 122 335Q106 335 94 345T81 374V653Q81 668 92 679T119 691H344Q363 691 373 679T383 653Q383 639 374 627T345 615H157V446Q168 457 189 465T231 473H242Q275 473 304 461T356 426T391 375T404 311V155Z"
/>
<glyph unicode="6" glyph-name="six" horiz-adv-x="480" d="M407 155Q407 121 395 92T360 42T309 8T245 -5H234Q201 -5 172 7T120 41T86 92T73 155V535Q73 568 85 597T120 649T171 684T234 697H245Q314 697 356 659T406 563Q407 562 407 558Q407 539 394 529T367
519Q355 519 345 526T331 551Q326 582 307 601T245 621H235Q217 621 202 614T174 596T156 569T149 535V409Q159 419 172 425T198 434T221 439T236 440H245Q279 440 308 428T360 394T394 343T407 280V155ZM331 280Q331 315 306 339T245 364H236Q201 364 175 344T149
285V155Q149 120 174 95T234 70H245Q281 70 306 95T331 155V280Z" />
<glyph unicode="7" glyph-name="seven" horiz-adv-x="480" d="M410 648Q410 633 406 625L218 21Q207 -5 183 -5Q166 -5 155 5T144 31Q144 42 145 43L323 615H147V564Q147 544 135 535T109 526Q95 526 83 535T70 564V653Q70 668 81 679T108 691H362Q386 691 398
679T410 648Z" />
<glyph unicode="8" glyph-name="eight" horiz-adv-x="480" d="M407 155Q407 121 395 92T360 42T309 8T245 -5H234Q201 -5 172 7T120 41T86 92T73 155V248Q73 285 90 315T133 369Q107 392 90 422T73 490V536Q73 569 85 598T120 650T171 684T234 697H245Q278 697
307 685T359 650T394 599T407 536V490Q407 453 390 423T347 369Q373 346 390 316T407 248V155ZM331 536Q331 571 306 596T245 621H234Q199 621 174 596T149 536V492Q149 474 156 459T174 432T201 413T235 406H244Q262 406 277 412T305 431T324 458T331 492V536ZM331
245Q331 281 306 306T244 331H236Q200 331 175 306T149 245V155Q149 120 174 95T234 70H245Q281 70 306 95T331 155V245Z" />
<glyph unicode="9" glyph-name="nine" horiz-adv-x="480" d="M407 156Q407 119 395 90T360 39T309 7T245 -5H235Q202 -5 174 5T125 32T91 74T74 128Q73 129 73 133Q73 152 86 162T113 172Q125 172 135 165T148 140Q153 109 174 90T235 70H245Q263 70 278 77T306
95T324 122T331 156V284Q322 274 310 268T286 257T262 252T244 250H235Q201 250 172 262T120 297T86 348T73 411V535Q73 569 85 598T120 650T171 684T235 697H245Q279 697 308 685T360 650T394 599T407 535V156ZM331 535Q331 571 306 596T245 621H235Q199 621 174
596T149 535V411Q149 376 174 351T235 326H244Q279 326 305 351T331 414V535Z" />
<glyph unicode=":" glyph-name="colon" horiz-adv-x="191" d="M134 319Q134 299 122 290T96 281Q82 281 70 290T58 319V341Q58 360 70 369T96 379Q110 379 122 370T134 341V319ZM134 32Q134 13 122 4T96 -5Q82 -5 70 4T58 32V54Q58 73 70 82T96 92Q110 92 122
83T134 54V32Z" />
<glyph unicode=";" glyph-name="semicolon" horiz-adv-x="191" d="M141 319Q141 299 129 290T103 281Q89 281 77 290T65 319V341Q65 360 77 369T103 379Q117 379 129 370T141 341V319ZM141 38Q141 11 139 -10T129 -50T111 -84T82 -119L66 -135Q53 -148 39 -148Q24
-148 12 -137T0 -109Q0 -97 11 -83L28 -65Q39 -54 46 -45T57 -24T63 3T65 39V61Q65 81 77 90T103 99Q117 99 129 90T141 61V38Z" />
<glyph unicode="&lt;" glyph-name="less" horiz-adv-x="331" d="M286 30Q286 16 275 6T246 -5Q229 -5 216 11L58 207Q45 223 45 241Q45 249 48 259T58 277L216 473Q228 488 246 488Q261 488 273 477T286 450Q286 438 277 426L130 241L276 52Q280 47 283 41T286 30Z" />
<glyph unicode="=" glyph-name="equal" horiz-adv-x="533" d="M463 348Q463 334 454 322T425 310H108Q89 310 80 322T70 348Q70 362 79 374T108 386H425Q444 386 453 374T463 348ZM463 208Q463 194 454 182T425 170H108Q89 170 80 182T70 208Q70 222 79 234T108
246H425Q444 246 453 234T463 208Z" />
<glyph unicode="&gt;" glyph-name="greater" horiz-adv-x="331" d="M286 241Q286 223 273 207L114 11Q101 -5 85 -5Q68 -5 57 5T45 30Q45 35 48 41T55 52L201 241L54 426Q45 438 45 450Q45 466 57 477T85 488Q102 488 114 473L273 277Q280 269 283 259T286 241Z" />
<glyph unicode="?" glyph-name="question" horiz-adv-x="399" d="M349 497Q349 460 335 437T304 394Q290 379 275 368T248 345T227 316T219 276V207Q219 187 207 178T181 169Q167 169 155 178T143 207V276Q143 312 150 334T169 371T200 401T240 436Q254 450 263
464T273 497V537Q273 572 248 597T188 622H181Q146 622 121 597T96 537V528Q96 509 84 500T58 490Q44 490 32 499T20 528V537Q20 570 32 599T67 651T118 685T181 698H188Q221 698 250 686T302 651T336 600T349 537V497ZM219 32Q219 13 207 4T181 -5Q167 -5 155
4T143 32V54Q143 73 155 82T181 92Q195 92 207 83T219 54V32Z" />
<glyph unicode="@" glyph-name="at" horiz-adv-x="849" d="M769 134Q769 62 734 29T641 -5H635Q600 -5 576 7T534 43Q489 -5 416 -5H409Q378 -5 349 4T298 32T262 76T248 138V145Q248 186 265 212T308 254T365 278T424 292T473 301T500 314Q502 317 502 322T503
331Q503 376 479 394T422 412H416Q385 412 367 400T334 362Q328 351 319 347T300 342Q286 342 274 351T262 377Q262 388 266 395Q278 422 295 440T333 468T374 483T416 488H422Q456 488 484 476T534 443T567 394T579 334V145Q579 121 585 106T601 83T619 73T635
70H641Q663 70 678 82T693 134V325Q693 376 674 420T621 498T544 550T449 569H400Q349 569 305 550T227 498T175 421T156 325V153Q156 102 175 58T227 -19T304 -71T400 -90H449Q500 -90 542 -72Q549 -68 558 -68Q575 -68 585 -80T595 -108Q595 -131 572 -142Q515
-166 449 -166H400Q334 -166 276 -141T174 -73T105 28T80 153V325Q80 391 105 449T173 551T275 620T400 645H449Q515 645 573 620T675 552T744 450T769 325V134ZM503 234Q476 227 445 223T386 210T342 188T324 148V140Q324 108 347 89T409 70H417Q452 70 477 94T503
155V234Z" />
<glyph unicode="A" glyph-name="A" horiz-adv-x="545" d="M515 31Q515 16 504 6T476 -5Q465 -5 455 1T440 21L396 165H149L104 21Q93 -5 69 -5Q52 -5 41 5T30 31Q30 32 30 35T32 43L227 669Q232 683 244 690T272 697Q288 697 300 690T318 669L513 43Q514 38 514
35T515 31ZM272 561L173 241H372L272 561Z" />
<glyph unicode="B" glyph-name="B" horiz-adv-x="532" d="M472 190Q472 151 457 116T417 56T356 15T282 0H128Q113 0 102 11T90 38V653Q90 668 101 679T128 691H282Q322 691 355 677T413 639T450 582T464 509V508Q464 451 441 413T386 356Q402 347 417 333T445
299T464 254T472 199V190ZM388 509Q388 557 359 586T282 615H166V394H282Q304 394 323 402T357 426T380 462T388 508V509ZM396 199Q396 223 387 245T362 283T326 308T282 318H166V76H282Q306 76 326 85T362 109T387 145T396 190V199Z" />
<glyph unicode="C" glyph-name="C" horiz-adv-x="503" d="M463 156Q458 122 442 93T400 42T342 8T275 -5H265Q226 -5 191 9T131 49T90 109T75 184V508Q75 547 90 581T130 641T191 682T265 697H275Q311 697 343 685T400 651T441 599T463 534V528Q463 510 452 501T426
491Q413 491 403 499T388 524Q380 566 349 593T275 621H265Q241 621 221 612T185 588T160 552T151 508V184Q151 160 160 140T184 104T220 79T265 70H275Q318 70 349 97T388 167Q392 184 403 192T426 200Q440 200 451 191T463 163V156Z" />
<glyph unicode="D" glyph-name="D" horiz-adv-x="554" d="M479 190Q479 151 464 116T424 56T364 15T290 0H128Q113 0 102 11T90 38V653Q90 668 101 679T128 691H290Q329 691 363 676T423 636T464 576T479 502V190ZM404 501Q404 525 395 545T371 581T336 606T291
615H166V76H290Q314 76 334 85T370 109T395 145T404 190V501Z" />
<glyph unicode="E" glyph-name="E" horiz-adv-x="509" d="M479 38Q479 24 470 12T441 0H128Q113 0 102 11T90 38V653Q90 668 101 679T128 691H441Q461 691 470 679T479 653Q479 639 470 627T441 615H166V395H357Q376 395 385 383T395 357Q395 343 386 331T357
319H166V76H441Q461 76 470 64T479 38Z" />
<glyph unicode="F" glyph-name="F" horiz-adv-x="479" d="M479 653Q479 639 470 627T441 615H166V395H357Q376 395 385 383T395 357Q395 343 386 331T357 319H166V32Q166 13 154 4T128 -5Q114 -5 102 4T90 32V653Q90 668 101 679T128 691H441Q461 691 470 679T479 653Z" />
<glyph unicode="G" glyph-name="G" horiz-adv-x="540" d="M465 184Q465 144 450 110T410 50T349 10T275 -5H265Q226 -5 191 9T131 49T90 109T75 184V507Q75 547 90 581T130 641T191 682T265 697H275Q311 697 343 685T401 651T443 599T465 534V528Q465 510 453
501T427 491Q414 491 403 498T389 523Q381 565 353 593T275 621H265Q241 621 221 612T185 588T160 552T151 508V184Q151 160 160 140T184 104T220 79T265 70H275Q299 70 319 79T355 103T380 139T389 184V301H284Q265 301 256 313T246 339Q246 353 255 365T284 377H427Q442
377 453 366T465 339V184Z" />
<glyph unicode="H" glyph-name="H" horiz-adv-x="569" d="M479 32Q479 12 467 4T441 -5Q427 -5 415 3T403 32V319H166V32Q166 13 154 4T128 -5Q114 -5 102 4T90 32V659Q90 678 102 687T128 697Q142 697 154 688T166 659V395H403V659Q403 678 415 687T441 697Q455
697 467 688T479 659V32Z" />
<glyph unicode="I" glyph-name="I" horiz-adv-x="276" d="M176 32Q176 13 164 4T138 -5Q124 -5 112 4T100 32V659Q100 678 112 687T138 697Q152 697 164 688T176 659V32Z" />
<glyph unicode="J" glyph-name="J" horiz-adv-x="476" d="M386 183Q386 144 371 110T331 50T270 10T196 -5H186Q117 -5 68 35T1 142Q0 143 0 152Q0 169 12 179T38 189Q49 189 59 182T75 161Q89 119 116 95T186 70H196Q220 70 240 79T276 103T301 139T310 183V659Q310
678 322 687T348 697Q362 697 374 688T386 659V183Z" />
<glyph unicode="K" glyph-name="K" horiz-adv-x="510" d="M480 32Q480 16 469 6T440 -5Q417 -5 407 16L252 335L166 208V32Q166 13 154 4T128 -5Q114 -5 102 4T90 32V659Q90 678 102 687T128 697Q142 697 154 688T166 659V343L395 680Q406 697 425 697Q442 697
453 686T465 659Q465 647 458 637L301 407L476 49Q480 42 480 32Z" />
<glyph unicode="L" glyph-name="L" d="M439 38Q439 24 430 12T401 0H128Q113 0 102 11T90 38V659Q90 678 102 687T128 697Q142 697 154 688T166 659V76H401Q420 76 429 64T439 38Z" />
<glyph unicode="M" glyph-name="M" horiz-adv-x="685" d="M595 32Q595 13 583 4T557 -5Q543 -5 531 4T519 32V521L387 218Q381 204 370 198T345 192Q314 192 302 218L166 521V32Q166 13 154 4T128 -5Q114 -5 102 4T90 32V653Q90 673 99 685T135 697H138Q158 697
168 688T183 668L343 310L502 668Q507 679 517 688T548 697H551Q577 697 586 685T595 653V32Z" />
<glyph unicode="N" glyph-name="N" horiz-adv-x="569" d="M479 39Q479 14 466 5T436 -5Q425 -5 410 -1T384 28L166 521V32Q166 13 154 4T128 -5Q114 -5 102 4T90 32V658Q90 678 104 687T135 697Q152 697 164 691T186 665L403 170V659Q403 678 415 687T442 697Q456
697 467 688T479 659V39Z" />
<glyph unicode="O" glyph-name="O" horiz-adv-x="539" d="M464 184Q464 144 449 110T409 50T349 10T275 -5H265Q226 -5 191 9T131 49T90 109T75 184V508Q75 547 90 581T130 641T191 682T265 697H275Q314 697 348 682T408 642T449 582T464 508V184ZM388 507Q388
531 379 551T355 587T320 612T275 621H265Q241 621 221 612T185 588T160 552T151 508V184Q151 160 160 140T184 104T220 79T265 70H275Q299 70 319 79T355 103T379 139T388 184V507Z" />
<glyph unicode="P" glyph-name="P" horiz-adv-x="504" d="M479 503Q479 464 464 429T424 369T363 328T289 313H166V32Q166 13 154 4T128 -5Q114 -5 102 4T90 32V653Q90 668 101 679T128 691H289Q328 691 363 677T423 637T464 577T479 503ZM403 503Q403 526 394
546T370 582T334 606T289 615H166V389H289Q313 389 333 398T369 422T394 458T403 503Z" />
<glyph unicode="Q" glyph-name="Q" horiz-adv-x="539" d="M464 184Q464 125 432 78L450 59Q462 47 462 33Q462 18 451 7T423 -5Q407 -5 396 6L378 24Q331 -5 275 -5H265Q226 -5 191 9T131 49T90 109T75 184V508Q75 547 90 581T130 641T191 682T265 697H275Q314
697 348 682T408 642T449 582T464 508V184ZM388 507Q388 531 379 551T355 587T320 612T275 621H265Q241 621 221 612T185 588T160 552T151 508V184Q151 160 160 140T184 104T220 79T265 70H275Q295 70 323 81L307 96Q295 109 295 123Q295 138 307 150T334 162Q349
162 361 150L377 134Q380 140 382 143T385 152T387 164T388 184V507Z" />
<glyph unicode="R" glyph-name="R" horiz-adv-x="536" d="M486 492Q486 459 476 430T448 376T405 335T349 308L473 49Q477 42 477 32Q477 16 466 6T437 -5Q428 -5 419 -1T404 16L268 302H166V32Q166 13 154 4T128 -5Q114 -5 102 4T90 32V653Q90 668 101 679T128
691H296Q335 691 370 676T430 636T471 575T486 501V492ZM410 501Q410 525 401 545T377 581T341 606T296 615H166V378H300Q324 378 344 387T378 411T401 447T410 492V501Z" />
<glyph unicode="S" glyph-name="S" horiz-adv-x="498" d="M448 180Q448 92 398 44T257 -5H248Q209 -5 174 6T111 41T67 99T50 179Q50 198 62 207T88 216Q102 216 114 207T126 178Q126 151 136 131T163 98T202 77T249 70H259Q319 70 345 98T372 181Q372 212 362
232T336 268T298 295T253 320Q217 340 183 356T121 395T77 447T60 526Q60 562 74 593T114 648T174 684T248 697H258Q294 697 327 685T385 652T425 601T440 537Q440 518 429 509T404 500Q390 500 378 509T364 536Q360 573 331 597T256 621H247Q216 621 195 611T161
587T143 556T137 526Q137 499 147 480T174 448T212 424T253 402Q290 382 325 364T388 322T431 265T448 180Z" />
<glyph unicode="T" glyph-name="T" horiz-adv-x="402" d="M387 653Q387 639 378 627T349 615H239V32Q239 13 227 4T201 -5Q187 -5 175 4T163 32V615H53Q34 615 25 627T15 653Q15 667 24 679T53 691H349Q368 691 377 679T387 653Z" />
<glyph unicode="U" glyph-name="U" horiz-adv-x="569" d="M479 184Q479 144 464 110T424 50T364 10T290 -5H280Q241 -5 206 9T146 49T105 109T90 184V659Q90 678 102 687T128 697Q142 697 154 688T166 659V184Q166 160 175 140T199 104T235 79T280 70H290Q314
70 334 79T370 103T394 139T403 184V659Q403 678 415 687T441 697Q455 697 467 688T479 659V184Z" />
<glyph unicode="V" glyph-name="V" horiz-adv-x="477" d="M435 650L279 24Q275 9 264 2T238 -5Q225 -5 214 2T198 24L41 650Q40 651 40 660Q40 676 51 686T79 697Q91 697 101 690T115 668L238 145L361 668Q365 683 375 690T397 697Q414 697 425 687T437 660L435 650Z" />
<glyph unicode="W" glyph-name="W" horiz-adv-x="774" d="M599 24Q597 13 588 4T562 -5H544Q528 -5 519 4T507 23L387 536L267 23Q265 12 256 4T230 -5H212Q196 -5 187 4T175 24L41 651Q40 653 40 660Q40 676 50 686T79 697Q91 697 101 690T115 667L223 164L341
670Q344 682 353 689T379 697H395Q411 697 420 690T433 670L551 164L659 667Q662 683 672 690T695 697Q713 697 723 687T734 660Q734 653 733 651L599 24Z" />
<glyph unicode="X" glyph-name="X" horiz-adv-x="499" d="M445 49Q449 42 449 31Q449 16 439 6T410 -5Q388 -5 377 15L250 271L122 15Q117 4 108 0T90 -5Q72 -5 61 5T50 31Q50 42 54 49L207 357L66 642Q62 649 62 661Q62 676 72 686T101 697Q110 697 119 692T134
676L250 442L366 676Q371 687 380 692T399 697Q417 697 427 687T438 661Q438 649 434 642L292 357L445 49Z" />
<glyph unicode="Y" glyph-name="Y" horiz-adv-x="476" d="M276 267V32Q276 13 264 4T238 -5Q224 -5 212 4T200 32V267L43 644Q40 651 40 660Q40 676 51 686T80 697Q90 697 99 692T113 673L238 373L363 673Q368 686 377 691T397 697Q414 697 425 686T436 660Q436
651 433 644L276 267Z" />
<glyph unicode="Z" glyph-name="Z" horiz-adv-x="464" d="M423 38Q423 24 414 12T385 0H84Q63 0 52 14T40 48Q40 61 46 72L329 615H92Q72 615 63 627T54 653Q54 667 63 679T92 691H378Q398 691 411 678T424 647Q424 634 417 621L133 76H385Q404 76 413 64T423 38Z" />
<glyph unicode="[" glyph-name="bracketleft" horiz-adv-x="315" d="M265 -79Q265 -93 256 -105T227 -117H148Q133 -117 122 -106T110 -79V659Q110 674 121 685T148 697H227Q246 697 255 685T265 659Q265 645 256 633T227 621H186V-41H227Q246 -41 255 -53T265 -79Z" />
<glyph unicode="\" glyph-name="backslash" horiz-adv-x="406" d="M415 -78Q415 -93 404 -104T375 -115Q352 -115 342 -91L15 711Q13 716 13 719T12 727Q12 742 23 753T52 765Q62 765 71 760T86 741L412 -62Q415 -70 415 -78Z" />
<glyph unicode="]" glyph-name="bracketright" horiz-adv-x="315" d="M205 -79Q205 -94 194 -105T167 -117H88Q69 -117 60 -105T50 -79Q50 -65 59 -53T88 -41H129V621H88Q69 621 60 633T50 659Q50 673 59 685T88 697H167Q182 697 193 686T205 659V-79Z" />
<glyph unicode="^" glyph-name="asciicircum" horiz-adv-x="494" d="M494 435Q494 418 482 408T455 397Q440 397 428 409L239 610L66 410Q54 397 38 397Q24 397 12 407T0 435Q0 441 2 447T9 460L202 684Q214 697 239 697Q258 697 272 686L483 461Q494 450 494 435Z" />
<glyph unicode="_" glyph-name="underscore" horiz-adv-x="495" d="M450 38Q450 24 441 12T412 0H83Q64 0 55 12T45 38Q45 52 54 64T83 76H412Q431 76 440 64T450 38Z" />
<glyph unicode="`" glyph-name="grave" horiz-adv-x="460" d="M347 588Q347 573 337 561T310 548Q299 548 292 552L135 624Q123 629 118 638T113 657Q113 672 123 684T150 697Q161 697 168 693L325 620Q337 615 342 606T347 588Z" />
<glyph unicode="a" glyph-name="a" horiz-adv-x="475" d="M440 33Q440 18 431 7T403 -5Q397 -5 396 -4Q370 0 354 10T328 34Q283 -5 220 -5H211Q181 -5 152 4T101 31T64 76T50 138V150Q50 189 67 214T110 255T167 279T226 292T275 301T303 314Q305 317 305 322T306
331Q306 376 282 394T225 412H218Q187 412 169 400T137 362Q131 351 122 347T103 342Q89 342 77 351T65 377Q65 388 69 395Q81 422 98 440T136 468T177 483T218 488H225Q258 488 287 476T337 443T370 394T382 334V102Q382 74 408 69Q425 66 432 56T440 33ZM306
234Q278 227 247 223T188 210T144 188T126 148V140Q126 108 149 89T211 70H220Q255 70 280 94T306 155V234Z" />
<glyph unicode="b" glyph-name="b" horiz-adv-x="487" d="M422 155Q422 121 409 92T374 42T323 8T260 -5H251Q219 -5 198 4T165 24Q163 9 152 2T128 -5Q114 -5 102 3T90 30V659Q90 678 102 687T128 697Q142 697 154 688T166 659V455Q179 471 203 479T253 488H260Q294
488 323 476T375 441T409 390T422 327V155ZM346 327Q346 362 321 387T260 412H251Q217 412 192 391T166 335V149Q166 112 191 91T251 70H260Q296 70 321 95T346 155V327Z" />
<glyph unicode="c" glyph-name="c" horiz-adv-x="447" d="M397 155Q397 121 385 92T350 42T299 8T236 -5H226Q193 -5 164 7T112 41T78 92T65 155V327Q65 361 78 390T112 441T163 475T226 488H236Q269 488 298 476T349 441T384 390T397 327Q397 308 385 299T359
289Q345 289 334 298T321 326Q319 364 295 388T236 412H226Q191 412 166 387T141 327V155Q141 120 166 95T227 70H236Q271 70 295 95T321 155Q322 175 333 184T359 194Q373 194 385 185T397 155Z" />
<glyph unicode="d" glyph-name="d" horiz-adv-x="486" d="M396 30Q396 12 384 4T358 -5Q345 -5 334 2T321 24Q310 13 289 4T235 -5H226Q192 -5 163 7T111 41T77 92T64 155V327Q64 360 76 389T111 441T162 475T226 488H233Q259 488 283 480T320 455V659Q320 678
332 687T358 697Q372 697 384 688T396 659V30ZM320 335Q320 370 295 391T235 412H226Q190 412 165 387T140 327V155Q140 120 165 95T225 70H235Q269 70 294 91T320 149V335Z" />
<glyph unicode="e" glyph-name="e" horiz-adv-x="451" d="M396 244Q396 229 385 218T358 206H140V155Q140 120 165 95T225 70H235Q264 70 283 85T313 121Q318 134 327 139T346 145Q361 145 373 134T385 106Q385 96 381 89Q363 47 325 21T235 -5H225Q192 -5 163
7T111 41T77 92T64 155V327Q64 360 76 389T111 441T162 475T225 488H235Q268 488 297 476T349 442T383 391T396 326V244ZM320 326Q320 363 295 387T236 412H226Q191 412 166 388T140 327V277H320V326Z" />
<glyph unicode="f" glyph-name="f" horiz-adv-x="297" d="M272 659Q272 645 263 633T234 621Q210 621 196 605T181 565V485H228Q248 485 257 473T266 447Q266 433 257 421T228 409H181V32Q181 13 169 4T143 -5Q129 -5 117 4T105 32V409H83Q64 409 55 421T45 447Q45
461 54 473T83 485H105V565Q105 593 114 617T141 659T182 687T234 697Q253 697 262 685T272 659Z" />
<glyph unicode="g" glyph-name="g" horiz-adv-x="476" d="M401 -53Q401 -87 389 -116T354 -168T303 -202T240 -215H231Q205 -215 179 -208T129 -188T88 -154T62 -105Q61 -100 61 -97T60 -92Q60 -75 72 -66T99 -56Q123 -56 134 -82Q143 -107 168 -123T231 -139H240Q275
-139 300 -114T325 -53V24Q312 10 288 3T238 -5H231Q198 -5 169 7T117 41T82 92T69 155V327Q69 360 82 389T117 441T168 475T231 488H240Q272 488 293 479T326 458Q328 473 339 480T363 488Q377 488 389 479T401 451V-53ZM325 333Q325 370 300 391T240 412H231Q196
412 171 388T145 327V155Q145 119 170 95T231 70H240Q274 70 299 91T325 147V333Z" />
<glyph unicode="h" glyph-name="h" horiz-adv-x="482" d="M422 32Q422 13 410 4T384 -5Q370 -5 358 4T346 32V327Q346 349 339 365T318 391T289 407T257 412Q240 412 224 407T195 392T174 366T166 332V32Q166 13 154 4T128 -5Q114 -5 102 4T90 32V659Q90 678 102
687T128 697Q142 697 154 688T166 659V458Q179 472 203 480T253 488H261Q294 488 323 476T375 441T409 390T422 327V32Z" />
<glyph unicode="i" glyph-name="i" horiz-adv-x="246" d="M161 637Q161 618 149 609T123 599Q109 599 97 608T85 637V659Q85 678 97 687T123 697Q137 697 149 688T161 659V637ZM161 32Q161 13 149 4T123 -5Q109 -5 97 4T85 32V450Q85 469 97 478T123 488Q137 488
149 479T161 450V32Z" />
<glyph unicode="j" glyph-name="j" horiz-adv-x="244" d="M159 637Q159 618 147 609T121 599Q107 599 95 608T83 637V659Q83 678 95 687T121 697Q135 697 147 688T159 659V637ZM159 -98Q159 -166 129 -190T43 -215Q24 -215 15 -203T5 -177Q5 -163 14 -151T43 -139Q65
-139 74 -126T83 -93V450Q83 469 95 478T121 488Q135 488 147 479T159 450V-98Z" />
<glyph unicode="k" glyph-name="k" horiz-adv-x="464" d="M429 32Q429 17 418 6T390 -5Q381 -5 373 -1T358 14L233 233L166 161V32Q166 13 154 4T128 -5Q114 -5 102 4T90 32V659Q90 678 102 687T128 697Q142 697 154 688T166 659V273L356 475Q368 488 383 488Q400
488 411 476T422 449Q422 434 411 423L287 291L424 51Q429 39 429 32Z" />
<glyph unicode="l" glyph-name="l" horiz-adv-x="294" d="M254 32Q254 18 245 7T216 -5Q189 -5 165 5T123 33T95 75T85 126V659Q85 678 97 687T123 697Q137 697 149 688T161 659V126Q161 103 177 87T216 70Q236 70 245 58T254 32Z" />
<glyph unicode="m" glyph-name="m" horiz-adv-x="729" d="M664 32Q664 13 652 4T626 -5Q612 -5 600 4T588 32V328Q588 370 565 391T503 412H494Q458 412 433 388T408 326V34Q408 14 396 5T370 -5Q356 -5 344 4T332 34V326Q332 364 307 388T246 412H237Q203 412
177 391T151 335V32Q151 13 139 4T113 -5Q99 -5 87 4T75 32V450Q75 468 87 478T114 488Q126 488 137 481T151 458Q165 472 188 480T237 488H246Q284 488 315 473T370 431Q393 457 424 472T494 488H503Q535 488 564 479T615 450T651 400T664 328V32Z" />
<glyph unicode="n" glyph-name="n" horiz-adv-x="472" d="M407 32Q407 13 396 4T370 -5Q356 -5 344 4T332 32V327Q332 362 307 387T246 412H237Q202 412 177 388T151 327V32Q151 13 139 4T113 -5Q99 -5 87 4T75 32V450Q75 468 87 478T114 488Q127 488 138 481T152
458Q166 472 189 480T238 488H247Q279 488 308 479T359 449T394 399T407 327V32Z" />
<glyph unicode="o" glyph-name="o" horiz-adv-x="460" d="M396 155Q396 121 384 92T349 42T298 8T235 -5H225Q192 -5 163 7T111 41T77 92T64 155V327Q64 360 76 389T111 441T162 475T225 488H235Q268 488 297 476T349 441T383 390T396 327V155ZM320 327Q320 362
295 387T235 412H225Q190 412 165 387T140 327V155Q140 120 165 95T226 70H235Q270 70 295 95T320 155V327Z" />
<glyph unicode="p" glyph-name="p" horiz-adv-x="486" d="M422 155Q422 121 410 92T375 42T324 8T260 -5H253Q227 -5 203 2T166 24V-177Q166 -196 154 -205T128 -215Q114 -215 102 -206T90 -177V451Q90 470 102 479T128 488Q141 488 152 481T165 458Q176 469 199
478T251 488H260Q293 488 322 476T374 441T409 390T422 327V155ZM346 327Q346 362 321 387T260 412H251Q217 412 192 391T166 333V147Q166 112 191 91T251 70H260Q296 70 321 95T346 155V327Z" />
<glyph unicode="q" glyph-name="q" horiz-adv-x="486" d="M396 -177Q396 -196 384 -205T358 -215Q344 -215 332 -206T320 -177V24Q307 10 283 3T233 -5H225Q192 -5 163 7T111 41T77 92T64 155V327Q64 360 76 389T111 441T162 475T226 488H235Q263 488 286 479T321
458Q323 473 334 480T358 488Q372 488 384 479T396 451V-177ZM320 333Q320 370 295 391T235 412H225Q190 412 165 387T140 327V155Q140 120 165 95T226 70H235Q269 70 294 91T320 147V333Z" />
<glyph unicode="r" glyph-name="r" horiz-adv-x="347" d="M327 413Q327 397 316 387T290 377Q273 377 259 391Q253 397 243 404T213 412Q190 412 177 406T157 391T148 369T146 345V34Q146 14 134 5T108 -5Q94 -5 82 4T70 34V450Q70 468 82 478T109 488Q119 488
128 484T142 468Q148 474 159 478Q168 482 181 485T214 488Q243 488 271 477T318 439Q327 425 327 413Z" />
<glyph unicode="s" glyph-name="s" horiz-adv-x="445" d="M400 135Q400 100 385 74T345 31T289 4T227 -5H221Q197 -5 172 2T123 21T81 52T50 94Q45 109 45 113Q45 130 57 140T84 150Q93 150 102 147T118 133Q137 108 166 89T223 70H228Q274 70 298 91T324 137V140Q324
172 305 187T257 212T194 227T132 248T84 287T64 360Q64 396 81 420T122 460T175 481T228 488H232Q258 488 279 483T317 472T345 458T363 445Q377 434 377 416Q377 402 367 391T341 380Q331 380 319 386Q303 394 284 403T231 413H227Q185 413 163 397T140 359V356Q140
330 159 318T207 298T270 283T332 260T380 216T400 139V135Z" />
<glyph unicode="t" glyph-name="t" horiz-adv-x="322" d="M282 32Q282 18 273 7T244 -5Q217 -5 193 5T151 33T123 75T113 126V409H78Q59 409 50 421T40 447Q40 461 49 473T78 485H113V659Q113 678 125 687T151 697Q165 697 177 688T189 659V485H243Q262 485 271
473T281 447Q281 433 272 421T243 409H189V127Q189 101 206 87T247 70Q265 68 273 57T282 32Z" />
<glyph unicode="u" glyph-name="u" d="M398 32Q398 14 386 5T360 -5Q347 -5 336 2T322 24Q308 10 285 3T236 -5H227Q195 -5 166 4T114 33T79 83T66 155V450Q66 469 78 478T104 488Q118 488 130 479T142 450V155Q142 120 167 95T227 70H236Q272 70 297 95T322 155V450Q322
469 334 478T360 488Q374 488 386 479T398 450V32Z" />
<glyph unicode="v" glyph-name="v" horiz-adv-x="439" d="M399 451Q399 444 396 438L260 20Q255 7 244 1T224 -5H215Q205 -5 194 0T178 20L42 438Q41 443 41 446T40 451Q40 466 51 477T79 488Q103 488 114 462L219 140L324 462Q335 488 359 488Q376 488 387 477T399 451Z" />
<glyph unicode="w" glyph-name="w" horiz-adv-x="670" d="M630 451Q630 441 629 440L511 22Q508 12 499 4T474 -5H466Q452 -5 442 4T428 23Q422 44 414 76T395 146T375 220T357 289T342 340T334 364Q333 360 328 339T314 287T296 219T276 146T257 77T242 23Q239
13 229 4T205 -5H196Q180 -5 171 3T159 22L42 440Q41 443 41 445T40 451Q40 467 51 477T79 488Q90 488 100 482T115 460L201 156L291 461Q298 488 334 488H335Q358 488 366 480T378 461L469 155L556 460Q566 488 591 488Q608 488 619 478T630 451Z" />
<glyph unicode="x" glyph-name="x" horiz-adv-x="436" d="M391 32Q391 17 380 6T351 -5Q343 -5 335 -2T320 12L218 176L116 12Q110 2 102 -1T85 -5Q68 -5 57 6T45 32Q45 43 51 52L173 248L60 429Q54 439 54 450Q54 465 65 476T94 488Q102 488 110 484T125 470L218
320L311 470Q321 488 342 488Q359 488 370 477T381 450Q381 439 375 429L263 248L384 52Q391 45 391 32Z" />
<glyph unicode="y" glyph-name="y" horiz-adv-x="413" d="M378 451Q378 448 378 445T376 438L211 -76Q194 -130 164 -167T78 -214Q77 -215 72 -215Q56 -215 46 -204T35 -176Q35 -163 43 -152T68 -139Q89 -136 106 -118T139 -53L174 56L41 438L39 444V451Q39 466
50 477T78 488Q102 488 113 462L212 177L303 462Q314 488 338 488Q355 488 366 477T378 451Z" />
<glyph unicode="z" glyph-name="z" horiz-adv-x="416" d="M376 38Q376 24 367 12T338 0H83Q63 0 52 14T40 46Q40 64 51 80L273 406H85Q66 406 57 418T47 444Q47 458 56 470T85 482H329Q350 482 362 469T375 437Q375 422 364 405L141 76H338Q357 76 366 64T376 38Z" />
<glyph unicode="{" glyph-name="braceleft" horiz-adv-x="397" d="M347 -67Q347 -81 338 -93T309 -105Q264 -105 241 -95T200 -67Q178 -45 171 -19T163 55V246Q163 260 150 275T126 301Q112 315 106 323T100 345Q100 360 107 369T126 389Q140 402 151 419T163
456V604Q163 647 171 673T200 721Q217 740 242 748T309 757Q329 757 338 745T347 719Q347 705 338 693T309 681Q272 681 256 663T239 594V453Q239 435 234 419T220 390T201 365T182 345Q204 325 221 303T239 249V61Q239 9 256 -10T309 -29Q329 -29 338 -41T347
-67Z" />
<glyph unicode="|" glyph-name="bar" horiz-adv-x="346" d="M211 -118Q211 -137 199 -146T173 -156Q159 -156 147 -147T135 -118V730Q135 749 147 758T173 768Q187 768 199 759T211 730V-118Z" />
<glyph unicode="}" glyph-name="braceright" horiz-adv-x="397" d="M297 345Q297 331 291 323T271 301Q260 290 247 275T234 246V55Q234 7 227 -19T197 -67Q180 -85 157 -95T88 -105Q68 -105 59 -93T50 -67Q50 -53 59 -41T88 -29Q124 -29 141 -10T158 61V249Q158
281 175 303T215 345Q206 353 196 364T178 389T164 419T158 453V594Q158 645 142 663T88 681Q68 681 59 693T50 719Q50 733 59 745T88 757Q130 757 155 749T197 721Q217 699 225 673T234 604V456Q234 436 245 419T271 389Q282 379 289 370T297 345Z" />
<glyph unicode="~" glyph-name="asciitilde" horiz-adv-x="460" d="M385 281Q385 266 372 254Q360 243 350 237T331 228T310 223T282 222Q263 222 247 226T218 235T193 244T170 248Q163 248 154 246T135 234Q124 223 111 223Q97 223 86 234T75 260Q75 274 84 283Q100
300 117 309T165 318Q185 318 201 314T232 305T259 296T283 292Q301 292 312 300T329 310Q339 317 350 317Q365 317 375 306T385 281Z" />
</font>
</defs>
</svg>
