<?xml version="1.0" standalone="no"?> <!DOCTYPE svg PUBLIC "-//W3C//DTD SVG 1.0//EN" "http://www.w3.org/TR/2001/REC-SVG-20010904/DTD/svg10.dtd" > <svg xmlns="http://www.w3.org/2000/svg" width="100%" height="100%">
<defs >
<font id="gracobd_" horiz-adv-x="460" ><font-face
    font-family="Gravur-CondensedBold"
    units-per-em="1000"
    panose-1="2 0 5 6 2 0 0 2 0 4"
    ascent="898"
    descent="-215"
    alphabetic="0" />
<missing-glyph horiz-adv-x="588" d="M88 698H500V0H88V698ZM425 74V623H163V74H425Z" />
<glyph unicode=" " glyph-name="space" horiz-adv-x="290" />
<glyph unicode="!" glyph-name="exclam" horiz-adv-x="248" d="M172 251Q172 226 157 215T124 203Q106 203 91 214T76 251V649Q76 673 91 685T124 697Q142 697 157 685T172 649V251ZM172 42Q172 18 158 7T125 -5Q106 -5 91 6T76 42V64Q76 88 91 100T124 112Q142
112 157 100T172 64V42Z" />
<glyph unicode="&quot;" glyph-name="quotedbl" horiz-adv-x="363" d="M296 532Q296 507 281 495T248 483Q230 483 215 495T200 532V649Q200 673 215 685T248 697Q266 697 281 685T296 649V532ZM164 532Q164 507 149 495T116 483Q98 483 83 495T68 532V649Q68
673 83 685T116 697Q134 697 149 685T164 649V532Z" />
<glyph unicode="#" glyph-name="numbersign" horiz-adv-x="703" d="M665 450Q665 429 652 416T617 402H503L485 300H583Q604 300 617 287T631 252Q631 231 617 218T582 205H468L438 34Q435 16 423 6T392 -5Q371 -5 358 7T344 41Q344 50 345 51L372 205H270L240
34Q237 17 227 6T197 -5Q176 -5 162 8T147 42Q147 50 148 51L174 205H86Q65 205 52 218T38 252Q38 273 51 286T86 300H193L211 402H121Q100 402 86 415T72 450Q72 471 86 484T121 497H228L256 657Q259 675 271 686T303 697Q323 697 336 684T350 650Q350 648 350
645T349 640L324 497H424L452 657Q455 675 467 686T499 697Q519 697 532 684T546 650Q546 648 546 645T545 640L520 497H617Q638 497 651 484T665 450ZM306 402L288 300H389L407 402H306Z" />
<glyph unicode="$" glyph-name="dollar" horiz-adv-x="489" d="M446 180Q446 143 434 112T401 57T351 18T287 -2V-33Q287 -58 274 -69T244 -81Q228 -81 215 -70T201 -33V-2Q168 3 139 18T89 58T55 116T42 189Q42 213 57 225T90 237Q108 237 123 225T138 189Q138
141 166 115T237 89H247Q292 89 321 112T350 180Q350 215 328 240T272 285T199 325T127 369T71 425T48 502V520Q48 555 61 584T95 636T143 672T201 693V724Q201 749 214 761T244 773Q260 773 273 761T287 724V694Q317 689 344 678T391 647T424 603T436 544V538Q436
518 423 506T390 493Q369 493 357 505T340 537Q331 578 309 590T247 602H238Q221 602 205 597T175 582T153 558T144 525V505Q144 481 166 462T222 424T295 384T367 335T423 270T446 180Z" />
<glyph unicode="%" glyph-name="percent" horiz-adv-x="730" d="M679 117Q679 91 670 69T645 31T607 5T559 -5Q533 -5 511 4T473 30T447 69T438 117V246Q438 271 447 293T472 333T511 360T559 370Q585 370 607 360T645 333T670 294T679 246V117ZM539 649Q539 637
535 630L284 24Q277 8 266 2T241 -5Q218 -5 204 8T190 42Q190 54 194 61L445 667Q452 683 463 690T488 697Q511 697 525 683T539 649ZM292 444Q292 419 283 397T258 358T220 331T172 321Q146 321 124 331T86 357T60 396T51 444V572Q51 597 60 619T85 659T124 687T172
697Q198 697 220 687T258 660T283 620T292 572V444ZM584 246Q584 259 576 267T559 275Q551 275 543 267T534 246V117Q534 104 542 97T559 89Q568 89 576 96T584 117V246ZM197 572Q197 586 189 594T172 602Q163 602 155 594T147 572V444Q147 430 155 423T172 416Q181
416 189 423T197 444V572Z" />
<glyph unicode="&amp;" glyph-name="ampersand" horiz-adv-x="565" d="M544 46Q544 26 531 11T492 -5Q463 -5 436 8T389 44Q357 21 321 8T246 -5H236Q194 -5 158 9T96 49T54 110T38 187Q38 226 48 255T77 306T119 347T169 383Q152 413 134 445T116 515Q116 555
130 581T165 622T210 643T257 649H265Q288 649 314 642T362 619T398 577T413 513Q413 486 404 463T378 421T341 384T298 350L392 198L407 224Q416 239 428 245T452 252Q471 252 486 239T501 204Q501 199 496 181Q490 164 481 148T460 116Q472 102 481 98T495 94Q520
94 532 79T544 46ZM317 513Q317 518 314 525T305 538T289 549T265 554H257Q238 554 225 543T212 509Q212 495 224 472T249 429Q278 449 297 471T317 513ZM327 124Q320 134 310 151T287 189T261 230T238 268T220 296Q215 305 214 306Q197 293 183 281T157 256T140
229T133 196Q133 175 141 156T163 122T197 98T237 89H247Q267 89 287 98T327 124Z" />
<glyph unicode="&apos;" glyph-name="quotesingle" horiz-adv-x="231" d="M164 525Q164 499 150 487T118 475Q99 475 84 488T68 525V647Q68 672 83 684T118 697Q135 697 149 685T164 647V525Z" />
<glyph unicode="(" glyph-name="parenleft" horiz-adv-x="310" d="M271 -31Q286 -48 286 -65Q286 -76 282 -85T270 -101Q255 -116 238 -116Q222 -116 206 -100Q177 -69 152 -24T108 76T79 194T68 326Q68 393 78 455T107 572T149 672T203 749Q218 765 236 765Q254
765 268 750T282 715Q282 697 269 681Q248 658 228 622T193 540T168 440T158 326Q158 264 168 210T193 109T229 28T271 -31Z" />
<glyph unicode=")" glyph-name="parenright" horiz-adv-x="310" d="M243 326Q243 258 232 195T203 76T159 -24T104 -100Q89 -115 73 -115Q54 -115 40 -100T25 -64Q25 -45 39 -31Q61 -8 81 28T117 110T142 210T152 326Q152 385 143 439T118 539T83 621T42 681Q28
697 28 715Q28 735 42 750T75 765Q92 765 107 749Q136 717 161 672T204 573T232 456T243 326Z" />
<glyph unicode="*" glyph-name="asterisk" horiz-adv-x="427" d="M391 488Q386 479 378 473T357 466H351L281 473L322 417Q330 406 330 394Q330 381 324 372Q318 360 306 353T280 345Q269 345 259 351Q248 357 242 369L214 434L185 370Q172 345 149 345Q135 345
121 353Q110 358 103 369T96 392Q96 404 105 416L146 473L76 466H69Q58 466 51 471Q40 477 35 488T29 511Q29 524 36 537Q41 546 49 552T70 559H76L146 551L105 608Q97 619 97 632Q97 643 103 654Q116 679 146 679Q157 679 168 673Q181 665 185 655L214 590L243
655Q249 669 259 674T280 680Q293 680 306 673Q317 667 324 657T332 633Q332 621 323 609L281 551L351 559H355Q362 559 366 557T376 553Q387 547 392 536T398 513Q398 501 391 488Z" />
<glyph unicode="+" glyph-name="plus" horiz-adv-x="468" d="M430 267Q430 250 418 235T381 220H282V119Q282 96 267 84T233 72Q215 72 201 84T186 119V220H86Q62 220 50 235T38 267Q38 285 50 300T86 315H186V416Q186 440 201 452T234 464Q252 464 267 452T282
416V315H381Q405 315 417 300T430 267Z" />
<glyph unicode="," glyph-name="comma" horiz-adv-x="211" d="M156 35Q156 8 153 -12T143 -49T125 -83T97 -117L83 -132Q68 -148 49 -148Q30 -148 15 -134T0 -99Q0 -81 14 -67L28 -52Q37 -42 43 -35T53 -18T58 3T60 36V67Q60 90 75 102T107 114Q125 114 140 102T156
66V35Z" />
<glyph unicode="-" glyph-name="hyphen" horiz-adv-x="383" d="M345 267Q345 249 334 234T298 219H86Q62 219 50 234T38 267Q38 284 50 299T86 314H298Q322 314 333 299T345 267Z" />
<glyph unicode="." glyph-name="period" horiz-adv-x="181" d="M138 42Q138 18 123 7T90 -5Q72 -5 57 6T42 42V64Q42 88 57 100T90 112Q108 112 123 100T138 64V42Z" />
<glyph unicode="/" glyph-name="slash" horiz-adv-x="393" d="M390 714Q390 700 386 693L81 -82Q67 -115 37 -115Q15 -115 1 -100T-13 -64Q-13 -50 -9 -43L294 732Q301 749 313 757T338 765Q361 765 375 750T390 714Z" />
<glyph unicode="0" glyph-name="zero" horiz-adv-x="459" d="M403 158Q403 123 390 94T354 42T301 8T235 -5H225Q190 -5 160 7T106 42T70 93T57 158V534Q57 569 70 599T106 650T159 684T225 697H235Q270 697 300 685T354 651T390 599T403 534V158ZM307 534Q307
564 286 583T235 602H225Q195 602 174 583T153 534V158Q153 129 174 109T225 89H235Q265 89 286 109T307 158V534Z" />
<glyph unicode="1" glyph-name="one" horiz-adv-x="441" d="M315 42Q315 18 300 7T267 -5Q249 -5 234 6T219 42V551L180 496Q165 475 142 475Q122 475 107 489T91 523Q91 539 101 552L190 673Q203 690 215 693T238 697H276Q295 697 305 683T315 649V42Z" />
<glyph unicode="2" glyph-name="two" horiz-adv-x="463" d="M417 48Q417 30 405 15T369 0H97Q73 0 60 19T47 60Q47 77 55 91L291 469Q301 485 303 498T305 522V534Q305 563 284 582T232 602H226Q196 602 175 583T154 534V527Q154 503 139 491T106 478Q88 478 73
490T58 527V534Q58 569 71 599T107 650T160 684T226 697H232Q266 697 296 686T350 653T387 601T401 534V517Q401 502 397 487T388 458T378 434T369 417L172 95H369Q393 95 405 80T417 48Z" />
<glyph unicode="3" glyph-name="three" d="M406 162Q406 127 393 97T357 44T303 8T235 -5H225Q187 -5 156 7T102 42T67 92T54 152Q54 176 69 188T102 200Q120 200 135 188T150 152Q150 126 173 108T225 89H235Q250 89 263 95T287 111T304 134T310 162V227Q310
260 304 279T286 307T255 320T211 323Q185 323 173 338T160 371Q160 388 172 403T211 418Q230 418 248 420T280 430T302 457T310 508V531Q310 566 287 584T235 602Q206 602 183 589T159 543Q159 519 144 507T111 494Q93 494 78 506T63 543Q63 582 78 611T117 659T172
687T235 697Q267 697 298 687T353 655T391 603T406 531V508Q406 457 393 424T360 370Q406 324 406 227V162Z" />
<glyph unicode="4" glyph-name="four" horiz-adv-x="467" d="M433 193Q433 175 421 160T385 145H351V42Q351 18 337 7T304 -5Q286 -5 271 6T255 42V145H86Q61 145 48 162T35 200Q35 209 40 224L232 668Q239 683 250 690T274 697Q297 697 310 683T324 649Q324 644
324 639T320 629L151 240H255V309Q255 333 270 345T303 357Q321 357 336 345T351 309V240H385Q409 240 421 225T433 193Z" />
<glyph unicode="5" glyph-name="five" horiz-adv-x="458" d="M399 162Q399 127 386 97T350 44T297 8T231 -5H221Q185 -5 156 7T105 42T71 94T59 162Q59 186 74 198T107 210Q125 210 140 198T155 162Q155 128 173 109T221 89H231Q261 89 282 111T303 162V314Q303
344 282 365T231 387H221Q201 387 184 379T153 346Q148 338 137 333T112 327Q95 327 80 338T65 376V643Q65 662 79 676T113 691H330Q354 691 366 676T378 644Q378 626 366 611T330 596H161V465Q170 473 187 477T221 482H231Q266 482 296 470T350 437T386 384T399
315V162Z" />
<glyph unicode="6" glyph-name="six" horiz-adv-x="459" d="M403 555Q403 533 389 522T356 510Q339 510 326 520T307 551Q302 575 282 588T235 602H225Q196 602 175 580T153 529V427Q165 437 185 443T225 450H235Q270 450 300 437T353 401T389 348T402 282V162Q402
127 389 97T354 44T301 8T235 -5H225Q190 -5 160 8T106 43T70 96T57 162V529Q57 563 70 594T106 647T159 683T225 697H235Q282 697 314 681T366 643T394 596T403 555ZM306 282Q306 312 286 333T235 355H225Q195 355 174 334T153 282V162Q153 133 174 111T225 89H235Q265
89 285 111T306 162V282Z" />
<glyph unicode="7" glyph-name="seven" d="M406 638Q406 626 403 616L223 28Q218 10 205 3T178 -5Q156 -5 142 8T128 42Q128 47 130 57L294 596H150V564Q150 540 135 528T102 516Q84 516 69 528T54 564V643Q54 662 68 676T102 691H350Q377 691 391 676T406 638Z" />
<glyph unicode="8" glyph-name="eight" horiz-adv-x="459" d="M403 162Q403 127 390 97T354 44T301 8T235 -5H225Q190 -5 160 8T106 43T70 96T57 162V249Q57 284 72 315T111 369Q88 392 73 422T57 488V530Q57 565 70 595T106 648T159 684T225 697H235Q270 697
300 684T354 649T390 596T403 530V488Q403 453 389 423T351 369Q374 346 388 315T403 249V162ZM307 530Q307 559 286 580T235 602H225Q195 602 174 581T153 530V488Q153 458 174 438T225 417H235Q265 417 286 437T307 488V530ZM307 249Q307 279 286 300T235 322H225Q195
322 174 301T153 249V161Q153 132 174 111T225 89H235Q265 89 286 110T307 161V249Z" />
<glyph unicode="9" glyph-name="nine" horiz-adv-x="459" d="M403 162Q403 127 390 97T354 44T301 8T235 -5H225Q184 -5 153 10T101 47T68 95T57 142Q57 165 72 177T106 189Q122 189 135 179T153 149Q158 125 178 107T225 89H235Q264 89 285 111T307 162V269Q296
260 276 254T235 247H225Q190 247 160 260T106 295T70 348T57 414V529Q57 564 70 594T106 648T159 684T225 697H235Q270 697 300 684T354 648T390 595T403 529V162ZM307 530Q307 560 286 581T235 602H225Q195 602 174 581T153 530V414Q153 384 174 363T225 342H235Q265
342 286 363T307 414V530Z" />
<glyph unicode=":" glyph-name="colon" horiz-adv-x="211" d="M154 308Q154 285 139 273T106 261Q88 261 73 273T58 308V331Q58 355 73 367T106 379Q124 379 139 367T154 331V308ZM154 42Q154 18 139 7T106 -5Q88 -5 73 6T58 42V64Q58 88 73 100T106 112Q124 112
139 100T154 64V42Z" />
<glyph unicode=";" glyph-name="semicolon" horiz-adv-x="211" d="M156 308Q156 285 142 273T109 261Q91 261 76 273T61 308V331Q61 355 76 367T109 379Q127 379 141 367T156 331V308ZM156 35Q156 8 153 -12T143 -49T125 -83T97 -117L83 -132Q68 -148 49 -148Q30
-148 15 -134T0 -99Q0 -81 14 -67L28 -52Q37 -42 43 -35T53 -18T58 3T60 36V67Q60 90 75 102T107 114Q125 114 140 102T156 66V35Z" />
<glyph unicode="&lt;" glyph-name="less" horiz-adv-x="349" d="M298 38Q298 20 285 8T246 -5Q235 -5 228 -1T210 15L58 198Q42 217 42 241Q42 265 58 284L210 470Q218 480 227 484T246 488Q268 488 283 473T298 438Q298 430 296 423T287 408L150 241L286 73Q298
58 298 38Z" />
<glyph unicode="=" glyph-name="equal" horiz-adv-x="468" d="M430 337Q430 319 418 305T383 290H85Q61 290 50 304T38 337Q38 355 49 370T85 385H383Q406 385 418 370T430 337ZM430 197Q430 179 418 164T383 149H85Q61 149 50 164T38 197Q38 214 49 229T85 244H383Q406
244 418 229T430 197Z" />
<glyph unicode="&gt;" glyph-name="greater" horiz-adv-x="349" d="M307 241Q307 217 291 198L139 15Q129 4 122 0T103 -5Q77 -5 64 7T51 38Q51 58 63 73L199 241L62 408Q51 422 51 438Q51 458 66 473T103 488Q112 488 121 484T139 470L291 284Q307 265 307 241Z" />
<glyph unicode="?" glyph-name="question" horiz-adv-x="401" d="M359 496Q359 463 350 441T326 402T296 373T266 347T243 318T233 279V232Q233 208 218 196T185 184Q167 184 152 196T136 232V279Q136 312 142 334T162 374T194 409T238 448Q242 451 252 462T262
501V531Q262 560 242 580T191 601H185Q155 601 135 582T114 535V532Q114 508 99 496T66 484Q47 484 32 496T17 532V535Q17 566 29 595T63 647T116 683T185 697H191Q228 697 259 684T312 649T347 596T359 531V496ZM233 42Q233 18 218 7T185 -5Q168 -5 153 6T138
42V64Q138 88 153 100T185 112Q203 112 218 100T233 64V42Z" />
<glyph unicode="@" glyph-name="at" horiz-adv-x="807" d="M743 139Q743 105 733 79T706 34T666 5T617 -5H594Q568 -5 546 5T507 35Q464 -5 397 -5H388Q356 -5 327 5T274 36T237 86T223 154Q223 192 237 217T275 258T326 282T381 297T431 308T468 321V326Q468
355 448 374T402 393H395Q372 393 356 385T329 354Q322 339 311 332T288 325Q269 325 254 338T238 373Q238 386 242 393Q254 420 272 438T310 468T353 483T395 488H402Q436 488 465 476T516 442T550 391T563 330V149Q563 130 567 119T577 101T588 92T597 89H616Q620
89 625 90T636 97T644 112T648 139V321Q648 367 631 407T583 478T513 525T426 543H380Q334 543 294 526T223 478T176 408T158 321V157Q158 110 175 70T223 0T293 -47T380 -64H426Q466 -64 511 -47Q518 -43 531 -43Q552 -43 564 -58T577 -92Q577 -112 562 -124T523
-145T474 -156T426 -159H380Q314 -159 257 -134T156 -67T88 33T63 157V321Q63 387 88 444T156 545T256 613T380 638H426Q492 638 549 613T650 545T718 445T743 321V139ZM468 219Q442 212 416 208T368 198T333 182T319 153V152Q319 125 336 107T388 89H397Q426 89
447 109T468 159V219Z" />
<glyph unicode="A" glyph-name="A" horiz-adv-x="545" d="M519 40Q519 20 506 8T470 -5Q456 -5 443 3T424 29L383 161H161L121 29Q116 11 102 3T74 -5Q52 -5 39 7T25 39Q25 42 25 46T27 55L217 659Q223 678 239 687T272 697Q290 697 305 688T327 659L517 55Q518
50 518 46T519 40ZM272 521L191 256H353L272 521Z" />
<glyph unicode="B" glyph-name="B" horiz-adv-x="519" d="M468 195Q468 154 453 119T411 57T349 16T273 0H124Q104 0 90 14T76 48V643Q76 662 90 676T124 691H273Q314 691 348 677T407 638T446 579T460 505Q460 460 442 422T389 358Q424 332 446 291T468 204V195ZM364
505Q364 547 340 571T273 596H172V403H273Q312 403 338 431T364 505ZM372 204Q372 225 364 244T343 277T311 300T273 308H172V95H273Q294 95 312 103T343 124T364 156T372 195V204Z" />
<glyph unicode="C" glyph-name="C" horiz-adv-x="495" d="M461 161Q461 124 445 94T401 41T338 7T267 -5H258Q217 -5 182 9T120 49T79 110T63 186V506Q63 546 78 581T120 642T181 682T258 697H267Q303 697 338 685T400 650T444 597T461 530V527Q461 504 449 490T412
475Q392 475 381 486T365 516Q358 553 332 577T267 602H258Q216 602 188 576T159 507V185Q159 143 187 116T258 89H267Q306 89 332 113T365 175Q370 194 381 205T412 216Q436 216 448 202T461 164V161Z" />
<glyph unicode="D" glyph-name="D" horiz-adv-x="540" d="M476 195Q476 151 461 115T419 54T357 14T281 0H124Q105 0 91 14T76 48V643Q76 662 90 676T124 691H281Q321 691 357 677T419 638T460 576T476 496V195ZM380 496Q380 517 372 535T351 566T319 588T281
596H172V95H281Q301 95 319 103T350 124T372 156T380 195V496Z" />
<glyph unicode="E" glyph-name="E" horiz-adv-x="502" d="M476 47Q476 30 464 15T428 0H124Q105 0 91 14T76 48V643Q76 662 90 676T124 691H428Q452 691 464 676T476 643Q476 626 464 611T428 596H172V403H346Q370 403 382 389T394 356Q394 338 382 323T346 308H172V95H428Q452
95 464 80T476 47Z" />
<glyph unicode="F" glyph-name="F" horiz-adv-x="476" d="M476 643Q476 626 464 611T428 596H172V403H346Q370 403 382 389T394 356Q394 338 382 323T346 308H172V42Q172 18 157 7T124 -5Q106 -5 91 6T76 42V643Q76 662 90 676T124 691H428Q452 691 464 676T476 643Z" />
<glyph unicode="G" glyph-name="G" horiz-adv-x="527" d="M463 189Q463 148 448 113T406 51T344 10T268 -5H258Q217 -5 182 9T120 49T79 110T63 186V506Q63 546 78 581T120 642T182 682T258 697H268Q307 697 341 685T401 651T443 602T462 540V535Q462 512 448
501T415 490Q399 490 385 500T368 533Q364 567 335 584T268 602H258Q216 602 188 575T159 506V186Q159 144 187 117T258 89H268Q288 89 306 97T337 118T359 150T367 189V292H286Q262 292 250 307T238 340Q238 358 250 372T286 387H414Q434 387 448 373T463 339V189Z"
/>
<glyph unicode="H" glyph-name="H" horiz-adv-x="552" d="M476 42Q476 18 461 7T428 -5Q409 -5 395 6T380 42V308H172V42Q172 18 157 7T124 -5Q106 -5 91 6T76 42V649Q76 673 91 685T124 697Q142 697 157 685T172 649V403H380V649Q380 673 395 685T428 697Q446
697 461 685T476 649V42Z" />
<glyph unicode="I" glyph-name="I" horiz-adv-x="265" d="M181 42Q181 18 166 7T133 -5Q115 -5 100 6T85 42V649Q85 673 100 685T133 697Q151 697 166 685T181 649V42Z" />
<glyph unicode="J" glyph-name="J" horiz-adv-x="470" d="M394 189Q394 148 379 113T337 51T275 10T199 -5H190Q156 -5 125 5T69 35T26 81T1 142Q0 143 0 154Q0 174 14 187T49 201Q68 201 79 191T96 163Q107 128 129 109T190 89H199Q241 89 269 118T298 189V649Q298
673 313 685T346 697Q364 697 379 685T394 649V189Z" />
<glyph unicode="K" glyph-name="K" horiz-adv-x="502" d="M476 41Q476 22 462 9T426 -5Q414 -5 403 1T384 21L243 312L172 209V42Q172 18 157 7T124 -5Q106 -5 91 6T76 42V649Q76 673 91 685T124 697Q142 697 157 685T172 649V380L373 676Q381 687 391 692T411
697Q433 697 447 683T461 649Q461 636 453 622L305 404L471 63Q476 46 476 41Z" />
<glyph unicode="L" glyph-name="L" horiz-adv-x="466" d="M440 47Q440 30 428 15T392 0H124Q104 0 90 14T76 48V649Q76 673 91 685T124 697Q142 697 156 685T171 649V95H392Q416 95 428 80T440 47Z" />
<glyph unicode="M" glyph-name="M" horiz-adv-x="664" d="M588 42Q588 18 573 7T540 -5Q522 -5 507 6T492 42V466L384 216Q377 201 363 194T333 186Q318 186 305 193T284 216L172 466V42Q172 18 157 7T124 -5Q106 -5 91 6T76 42V649Q76 668 90 682T124 697H136Q173
697 185 669L333 339L479 669Q486 685 497 691T528 697H540Q559 697 573 683T588 649V42Z" />
<glyph unicode="N" glyph-name="N" horiz-adv-x="552" d="M476 42Q476 23 462 9T428 -5H417Q407 -5 391 1T363 35L172 466V42Q172 18 158 7T125 -5Q107 -5 92 6T76 42V647Q76 667 89 682T127 697H138Q147 697 162 693T189 662L380 231V649Q380 673 394 685T427
697Q445 697 460 685T476 649V42Z" />
<glyph unicode="O" glyph-name="O" horiz-adv-x="527" d="M463 186Q463 145 448 110T406 50T344 10T268 -5H258Q218 -5 183 9T121 49T79 110T63 186V506Q63 546 78 581T120 642T182 682T259 697H268Q308 697 344 683T406 642T447 581T463 506V186ZM367 506Q367
548 339 575T268 602H258Q216 602 188 575T159 506V186Q159 144 187 117T258 89H268Q310 89 338 116T367 186V506Z" />
<glyph unicode="P" glyph-name="P" horiz-adv-x="495" d="M474 497Q474 456 460 421T421 359T361 318T286 302H172V42Q172 18 157 7T124 -5Q106 -5 91 6T76 42V643Q76 662 90 676T124 691H286Q326 691 360 676T420 635T460 573T474 497ZM378 497Q378 539 353 567T286
596H172V397H286Q328 397 353 426T378 497Z" />
<glyph unicode="Q" glyph-name="Q" horiz-adv-x="527" d="M463 189Q463 131 435 88L446 76Q453 68 457 60T461 43Q461 23 446 9T411 -5Q391 -5 377 9L366 20Q323 -5 268 -5H258Q218 -5 183 10T121 51T79 113T63 189V502Q63 542 78 578T120 640T182 681T258 697H268Q308
697 344 682T406 640T447 578T463 502V189ZM367 503Q367 524 359 542T338 573T306 594T268 602H258Q238 602 220 594T189 573T167 541T159 503V188Q159 168 167 150T188 119T220 97T258 89H268Q285 89 293 93L283 103Q268 118 268 136Q268 156 283 171T318 186Q337
186 352 171L363 160Q367 169 367 188V503Z" />
<glyph unicode="R" glyph-name="R" horiz-adv-x="524" d="M482 487Q482 422 447 372T355 302L469 63Q474 50 474 42Q474 22 460 9T423 -5Q411 -5 400 1T382 21L253 293H172V42Q172 18 158 7T125 -5Q106 -5 91 6T76 42V643Q76 662 90 676T124 691H287Q327 691 363
676T425 634T466 572T482 496V487ZM386 496Q386 539 359 567T290 596H172V388H291Q333 388 359 416T386 487V496Z" />
<glyph unicode="S" glyph-name="S" horiz-adv-x="489" d="M446 180Q446 138 431 104T389 45T326 8T247 -5H237Q198 -5 163 8T100 46T58 107T42 189Q42 213 57 225T90 237Q108 237 123 225T138 189Q138 141 166 115T237 89H247Q292 89 321 112T350 180Q350 215
328 240T272 285T199 325T127 369T71 425T48 502V520Q48 560 65 593T109 649T170 684T238 697H247Q283 697 317 688T377 659T420 611T436 544V538Q436 518 423 506T390 493Q369 493 357 505T340 537Q331 578 309 590T247 602H238Q221 602 205 597T175 582T153 558T144
525V505Q144 481 166 462T222 424T295 384T367 335T423 270T446 180Z" />
<glyph unicode="T" glyph-name="T" horiz-adv-x="407" d="M395 643Q395 626 383 611T347 596H252V42Q252 18 237 7T204 -5Q186 -5 171 6T156 42V596H61Q37 596 25 611T13 643Q13 661 25 676T61 691H347Q371 691 383 676T395 643Z" />
<glyph unicode="U" glyph-name="U" horiz-adv-x="552" d="M476 189Q476 148 461 113T419 52T357 10T281 -5H271Q231 -5 196 10T134 51T92 113T76 189V649Q76 673 91 685T124 697Q142 697 157 685T172 649V189Q172 169 180 151T201 120T233 98T272 90H281Q301 90
319 98T350 119T372 151T380 189V649Q380 673 395 685T428 697Q446 697 461 685T476 649V189Z" />
<glyph unicode="V" glyph-name="V" horiz-adv-x="474" d="M440 650Q440 638 439 637L293 36Q288 15 272 5T237 -5Q218 -5 202 5T181 36L35 637Q34 638 34 650Q34 670 48 683T84 697Q98 697 111 689T129 660L237 200L345 660Q350 680 363 688T390 697Q412 697 426
684T440 650Z" />
<glyph unicode="W" glyph-name="W" horiz-adv-x="762" d="M728 650Q728 640 727 639L598 35Q593 14 577 5T542 -5Q522 -5 506 4T485 34L381 483L277 34Q272 14 256 5T221 -5Q202 -5 186 5T164 35L35 639Q34 640 34 650Q34 670 48 683T83 697Q99 697 111 688T129
659L223 222L327 657Q332 677 347 687T381 697Q399 697 414 687T435 657L539 222L633 659Q638 679 650 688T679 697Q700 697 714 684T728 650Z" />
<glyph unicode="X" glyph-name="X" horiz-adv-x="495" d="M452 41Q452 22 438 9T402 -5Q390 -5 379 0T360 21L247 248L134 21Q127 7 116 1T92 -5Q70 -5 56 8T42 41Q42 52 48 64L193 356L59 627Q53 639 53 650Q53 669 67 683T103 697Q115 697 126 691T145 670L247
465L349 670Q357 685 368 691T391 697Q413 697 427 683T441 650Q441 639 435 627L301 356L446 64Q452 52 452 41Z" />
<glyph unicode="Y" glyph-name="Y" horiz-adv-x="474" d="M440 649Q440 637 436 630L285 267V42Q285 18 270 7T237 -5Q219 -5 204 6T189 42V267L38 630Q34 637 34 649Q34 669 47 683T84 697Q97 697 108 690T127 667L237 402L347 667Q354 683 365 690T390 697Q413
697 426 683T440 649Z" />
<glyph unicode="Z" glyph-name="Z" horiz-adv-x="458" d="M424 48Q424 30 412 15T376 0H87Q62 0 48 17T34 55Q34 68 40 80L294 596H93Q69 596 57 611T45 644Q45 661 57 676T93 691H364Q391 691 405 677T419 642Q419 634 417 626T410 609L157 95H376Q400 95 412
80T424 48Z" />
<glyph unicode="[" glyph-name="bracketleft" horiz-adv-x="295" d="M252 -69Q252 -87 240 -102T204 -117H128Q108 -117 94 -103T80 -70V649Q80 668 94 682T128 697H204Q228 697 240 682T252 649Q252 632 240 617T204 602H176V-22H204Q228 -22 240 -36T252 -69Z" />
<glyph unicode="\" glyph-name="backslash" horiz-adv-x="393" d="M390 -64Q390 -85 376 -100T338 -115Q308 -115 295 -82L-9 693Q-13 700 -13 714Q-13 735 1 750T37 765Q51 765 63 757T82 732L386 -43Q390 -50 390 -64Z" />
<glyph unicode="]" glyph-name="bracketright" horiz-adv-x="295" d="M214 -70Q214 -89 200 -103T166 -117H90Q66 -117 54 -102T42 -69Q42 -51 54 -37T90 -22H118V602H90Q66 602 54 617T42 649Q42 667 54 682T90 697H166Q186 697 200 683T214 649V-70Z" />
<glyph unicode="^" glyph-name="asciicircum" horiz-adv-x="494" d="M494 470Q494 450 479 436T445 422Q436 422 428 425T411 437L247 622L85 439Q77 429 68 426T49 422Q30 422 15 436T0 470Q0 488 13 501L203 713Q222 734 247 734Q272 734 290 715L480 503Q494
486 494 470Z" />
<glyph unicode="_" glyph-name="underscore" horiz-adv-x="544" d="M506 47Q506 30 495 15T459 0H86Q62 0 50 15T38 47Q38 65 50 80T86 95H459Q483 95 494 80T506 47Z" />
<glyph unicode="`" glyph-name="grave" horiz-adv-x="427" d="M335 581Q335 562 322 547T289 531Q281 531 268 536L119 606Q105 613 98 624T91 648Q91 666 103 681T136 697Q145 697 158 692L307 623Q322 616 328 605T335 581Z" />
<glyph unicode="a" glyph-name="a" horiz-adv-x="466" d="M436 41Q436 24 425 10T391 -5Q366 -5 347 6T316 31Q272 -5 215 -5H206Q175 -5 146 3T93 30T56 77T42 144V149Q42 201 68 230T130 275T206 297T272 309Q281 311 283 317T285 328Q285 358 266 375T220 393H213Q191
393 175 385T148 354Q142 339 130 332T106 325Q87 325 72 338T56 372Q56 386 60 393Q72 420 90 438T128 468T171 483T213 488H220Q250 488 279 478T330 448T367 400T381 337V116Q381 105 383 99T397 89Q417 84 426 71T436 41ZM285 222Q259 215 232 211T184 200T149
181T135 146Q135 121 153 105T206 89H215Q244 89 264 109T285 159V222Z" />
<glyph unicode="b" glyph-name="b" horiz-adv-x="471" d="M416 159Q416 124 403 95T368 43T315 8T250 -5H243Q231 -5 210 -1T172 20Q167 8 156 2T124 -5Q106 -5 91 7T76 42V649Q76 673 91 685T124 697Q142 697 157 685T172 649V462Q188 476 209 482T243 488H250Q284
488 314 475T367 440T403 388T416 323V159ZM320 323Q320 352 300 372T250 393H242Q213 393 193 373T172 323V159Q172 132 192 111T242 89H250Q279 89 299 109T320 159V323Z" />
<glyph unicode="c" glyph-name="c" horiz-adv-x="437" d="M395 154Q395 119 382 90T347 40T294 7T229 -5H221Q186 -5 156 7T104 41T68 92T55 156V326Q55 360 68 389T103 441T156 475T221 488H229Q263 488 293 476T346 443T382 392T395 328Q395 304 380 292T347
280Q329 280 314 292T299 328Q299 357 279 375T229 393H221Q192 393 172 374T151 326V156Q151 127 171 108T221 89H229Q258 89 278 107T299 154Q299 178 314 190T347 202Q365 202 380 190T395 154Z" />
<glyph unicode="d" glyph-name="d" horiz-adv-x="471" d="M395 42Q395 19 380 7T347 -5Q326 -5 315 1T299 20Q283 3 262 -1T228 -5H221Q186 -5 156 7T104 42T68 94T55 159V323Q55 357 68 387T103 440T156 475T221 488H228Q240 488 261 482T299 462V649Q299 673
314 685T347 697Q365 697 380 685T395 649V42ZM299 323Q299 352 279 372T229 393H221Q192 393 172 373T151 323V159Q151 130 171 110T221 89H229Q258 89 278 110T299 159V323Z" />
<glyph unicode="e" glyph-name="e" horiz-adv-x="442" d="M395 240Q395 221 381 207T347 192H151V156Q151 127 171 108T221 89H229Q255 89 267 100T287 123T305 147T334 158Q353 158 368 147T384 115Q384 111 379 93Q355 45 320 20T229 -5H221Q186 -5 156 7T104
41T68 92T55 156V326Q55 360 68 389T104 441T157 475T221 488H229Q263 488 293 476T346 442T382 390T395 323V240ZM299 323Q299 354 278 373T231 393H222Q193 393 172 374T151 326V281H299V323Z" />
<glyph unicode="f" glyph-name="f" horiz-adv-x="297" d="M276 650Q276 632 265 617T229 602Q211 602 201 590T190 559V485H224Q248 485 259 471T271 438Q271 420 260 405T224 390H190V42Q190 18 175 7T142 -5Q124 -5 109 6T94 42V390H85Q61 390 50 405T38 438Q38
456 49 470T85 485H94V560Q94 588 102 613T128 657T171 686T229 697Q253 697 264 683T276 650Z" />
<glyph unicode="g" glyph-name="g" horiz-adv-x="463" d="M400 -50Q400 -84 387 -114T352 -166T299 -202T235 -215H226Q200 -215 174 -209T124 -188T82 -153T54 -103Q51 -94 51 -87Q51 -66 66 -54T101 -41Q123 -41 131 -53T148 -80T172 -107T226 -120H235Q264
-120 284 -100T304 -50V20Q289 2 272 -1T242 -5H226Q192 -5 162 7T110 42T74 94T61 159V323Q61 357 74 387T109 439T162 475T226 488H235Q250 488 269 483T304 462Q313 479 326 483T353 488Q370 488 385 476T400 440V-50ZM304 324Q304 353 284 373T235 393H226Q197
393 177 373T157 323V159Q157 130 177 110T226 89H235Q264 89 284 109T304 158V324Z" />
<glyph unicode="h" glyph-name="h" horiz-adv-x="467" d="M416 42Q416 18 401 7T368 -5Q350 -5 335 6T320 42V324Q320 359 298 376T249 393H246Q211 393 192 372T172 318V42Q172 18 157 7T124 -5Q106 -5 91 6T76 42V649Q76 673 91 685T124 697Q142 697 157 685T172
649V462Q188 476 209 482T242 488H254Q290 488 319 475T370 440T404 388T416 324V42Z" />
<glyph unicode="i" glyph-name="i" horiz-adv-x="240" d="M168 628Q168 605 153 593T120 581Q102 581 88 593T73 628V649Q73 673 87 685T120 697Q138 697 153 685T168 649V628ZM168 42Q168 18 153 7T120 -5Q102 -5 87 6T72 42V440Q72 464 87 476T120 488Q137 488
152 476T168 440V42Z" />
<glyph unicode="j" glyph-name="j" horiz-adv-x="248" d="M176 628Q176 604 161 592T128 580Q110 580 95 592T80 628V649Q80 673 95 684T128 696Q145 696 160 685T176 649V628ZM176 -87Q176 -156 151 -185T67 -215H52Q28 -215 16 -200T4 -167Q4 -149 16 -134T52
-119Q68 -119 74 -112T80 -87V440Q80 464 95 476T128 488Q145 488 160 476T176 440V-87Z" />
<glyph unicode="k" glyph-name="k" horiz-adv-x="455" d="M425 41Q425 22 411 9T375 -5Q364 -5 354 0T335 19L221 219L172 165V42Q172 18 157 7T123 -5Q105 -5 91 6T76 42V649Q76 673 90 685T123 697Q141 697 156 685T172 649V305L327 472Q343 488 362 488Q382
488 396 473T410 439Q410 420 397 407L289 292L418 66Q425 56 425 41Z" />
<glyph unicode="l" glyph-name="l" horiz-adv-x="290" d="M256 45Q256 24 243 11T208 -2Q142 -2 107 33T72 134V649Q72 670 85 683T120 697Q140 697 154 684T168 650V134Q168 117 179 105T208 92Q228 92 242 79T256 45Z" />
<glyph unicode="m" glyph-name="m" horiz-adv-x="708" d="M653 42Q653 18 638 7T604 -5Q587 -5 572 6T557 42V323Q557 352 536 372T486 393H477Q448 393 427 373T406 323V44Q406 19 391 7T358 -5Q340 -5 325 7T310 44V323Q310 352 289 372T239 393H230Q201 393
180 373T159 323V42Q159 18 144 7T111 -5Q94 -5 79 6T63 42V440Q63 464 78 476T111 488Q128 488 139 483T159 462Q170 474 190 481T230 488H239Q278 488 306 475T358 439Q381 462 411 475T477 488H486Q571 488 612 445T653 326V42Z" />
<glyph unicode="n" glyph-name="n" horiz-adv-x="458" d="M403 42Q403 18 388 7T355 -5Q338 -5 323 6T307 42V323Q307 352 287 372T238 393H229Q200 393 180 373T159 323V42Q159 18 144 7T111 -5Q93 -5 78 6T63 42V440Q63 464 78 476T111 488Q125 488 137 483T159
462Q179 481 194 484T225 488H238Q275 488 305 475T357 440T391 388T403 323V42Z" />
<glyph unicode="o" glyph-name="o" horiz-adv-x="448" d="M394 156Q394 121 381 92T346 41T293 7T228 -5H220Q185 -5 155 7T103 41T67 92T54 156V326Q54 360 67 389T102 441T155 475T220 488H228Q262 488 292 476T345 441T381 390T394 326V156ZM298 326Q298 355
278 374T228 393H220Q191 393 171 374T150 326V156Q150 127 170 108T220 89H228Q257 89 277 108T298 156V326Z" />
<glyph unicode="p" glyph-name="p" horiz-adv-x="471" d="M416 159Q416 124 403 94T368 42T315 8T250 -5H243Q231 -5 210 0T172 20V-167Q172 -191 157 -203T124 -215Q106 -215 91 -203T76 -167V440Q76 463 91 475T124 488Q145 488 156 481T172 462Q188 479 209
483T243 488H250Q284 488 314 475T367 440T403 387T416 323V159ZM320 323Q320 352 300 372T250 393H242Q213 393 193 372T172 323V159Q172 130 192 110T242 89H250Q279 89 299 109T320 159V323Z" />
<glyph unicode="q" glyph-name="q" horiz-adv-x="471" d="M395 -167Q395 -191 380 -203T347 -215Q329 -215 314 -203T299 -167V20Q283 6 262 1T228 -5H221Q186 -5 156 7T104 42T68 94T55 159V323Q55 357 68 387T103 439T156 475T221 488H228Q240 488 261 484T299
462Q304 474 315 481T347 488Q365 488 380 476T395 440V-167ZM299 323Q299 350 279 371T229 393H221Q192 393 172 373T151 323V159Q151 130 171 110T221 89H229Q258 89 278 109T299 159V323Z" />
<glyph unicode="r" glyph-name="r" horiz-adv-x="345" d="M328 398Q328 378 311 368T277 357Q260 357 255 362T245 375T234 387T206 393Q185 393 170 384T155 348V44Q155 19 140 7T106 -5Q88 -5 74 7T59 44V440Q59 464 73 476T107 488Q144 488 155 468Q163 479
178 483T204 488Q234 488 255 481T291 462T313 437T326 410Q327 405 327 402T328 398Z" />
<glyph unicode="s" glyph-name="s" horiz-adv-x="432" d="M394 144Q394 101 377 73T335 27T279 2T220 -5H203Q155 -5 111 21T43 97Q38 112 38 119Q38 139 53 152T87 165Q105 165 116 153T138 127T163 101T203 89H220Q262 89 280 104T298 144Q298 164 289 176T267
194T236 204T204 211Q178 216 151 224T100 247T63 284T48 338V355Q48 392 66 417T110 458T166 481T220 488H224Q257 488 285 480T335 458T367 430T379 402Q379 385 366 372T333 358Q319 358 309 363T288 375T263 387T224 393H220Q187 393 166 381T144 352V342Q144
324 162 315T209 300T269 286T329 262T375 218T394 144Z" />
<glyph unicode="t" glyph-name="t" horiz-adv-x="316" d="M282 45Q282 27 270 13T234 -2Q205 -2 181 8T138 37T109 80T98 134V390H82Q58 390 46 405T34 438Q34 455 46 470T82 485H98V649Q98 673 113 685T145 697Q163 697 178 685T194 649V485H229Q253 485 265
470T277 438Q277 420 265 405T229 390H194V134Q194 122 205 107T234 92Q258 92 270 77T282 45Z" />
<glyph unicode="u" glyph-name="u" horiz-adv-x="454" d="M395 42Q395 18 380 7T347 -5Q333 -5 321 -1T299 20Q281 2 266 -1T237 -5H220Q183 -5 153 7T101 42T67 94T55 159V440Q55 464 70 476T103 488Q120 488 135 476T151 440V159Q151 130 171 110T220 89H229Q258
89 278 109T299 159V440Q299 464 314 476T347 488Q365 488 380 476T395 440V42Z" />
<glyph unicode="v" glyph-name="v" horiz-adv-x="432" d="M398 441Q398 439 398 435T396 426L264 25Q259 9 246 2T219 -5H213Q199 -5 186 2T168 25L36 426Q34 436 34 441Q34 461 47 474T83 488Q97 488 109 480T127 455L216 181L305 455Q310 472 322 480T349 488Q371
488 384 475T398 441Z" />
<glyph unicode="w" glyph-name="w" horiz-adv-x="660" d="M626 441Q626 436 624 426L508 25Q503 8 490 2T463 -5H459Q445 -5 432 1T414 25L330 288L244 25Q238 6 225 1T199 -5H196Q182 -5 169 2T151 25L36 426Q34 436 34 441Q34 461 47 474T83 488Q97 488 109
481T127 455L204 197L285 455Q290 471 299 479T330 488H334Q355 488 364 480T379 455L459 197L533 455Q538 473 550 480T577 488Q599 488 612 475T626 441Z" />
<glyph unicode="x" glyph-name="x" horiz-adv-x="428" d="M390 41Q390 22 376 9T341 -5Q330 -5 320 -1T302 17L214 158L126 17Q118 4 108 0T87 -5Q66 -5 52 8T38 41Q38 57 45 67L158 248L54 414Q49 421 48 427T47 440Q47 459 61 473T96 488Q120 488 135 464L214
338L293 464Q308 488 332 488Q353 488 367 474T381 440Q381 433 380 427T374 414L270 248L383 67Q390 57 390 41Z" />
<glyph unicode="y" glyph-name="y" horiz-adv-x="415" d="M386 442Q386 438 385 434T383 426L207 -115Q197 -146 183 -165T153 -196T119 -211T84 -215Q51 -215 41 -201T30 -167Q30 -148 40 -134T81 -120Q98 -120 107 -107T124 -73L168 56L40 424Q37 433 37 442Q37
462 50 475T86 488Q100 488 112 481T130 456L216 211L293 455Q298 472 310 480T337 488Q358 488 372 475T386 442Z" />
<glyph unicode="z" glyph-name="z" horiz-adv-x="399" d="M365 48Q365 30 354 15T318 0H84Q65 0 50 14T34 53Q34 62 36 71T46 92L232 387H86Q62 387 50 402T38 435Q38 453 50 467T86 482H309Q328 482 343 468T359 435Q359 421 357 411T344 384L165 95H318Q342
95 353 81T365 48Z" />
<glyph unicode="{" glyph-name="braceleft" horiz-adv-x="371" d="M328 -59Q328 -75 317 -90T277 -105Q237 -105 211 -94T170 -66T149 -28T143 14V243Q143 254 137 263T126 278Q114 290 105 298T91 312T83 326T80 345Q80 357 82 364T91 377T105 390T126 410Q131
415 137 425T143 447V637Q143 658 149 679T170 718T211 746T277 757Q306 757 317 742T328 711Q328 693 317 678T279 662Q260 662 249 648T238 609V435Q238 406 224 384T190 345Q210 329 224 307T238 255V42Q238 18 249 4T279 -10Q305 -10 316 -25T328 -59Z" />
<glyph unicode="|" glyph-name="bar" horiz-adv-x="282" d="M189 -107Q189 -132 175 -144T142 -156Q124 -156 109 -144T93 -107V719Q93 744 108 756T141 768Q159 768 174 756T189 719V-107Z" />
<glyph unicode="}" glyph-name="braceright" horiz-adv-x="371" d="M290 345Q290 334 288 327T279 312T265 298T244 278Q239 273 233 264T227 243V14Q227 -7 222 -28T201 -66T160 -94T93 -105Q64 -105 53 -90T42 -59Q42 -41 53 -26T91 -10Q110 -10 121 4T132 42V255Q132
284 146 306T180 345Q160 362 146 384T132 435V609Q132 633 121 647T91 662Q65 662 54 677T42 711Q42 727 53 742T93 757Q134 757 160 747T201 719T221 680T227 637V447Q227 435 233 425T244 410Q256 398 264 391T279 377T287 364T290 345Z" />
<glyph unicode="~" glyph-name="asciitilde" horiz-adv-x="439" d="M383 659Q383 648 377 637T357 615T322 598T272 591Q256 591 242 595T214 603T187 612T158 616Q150 616 142 612T126 604T111 595T97 591Q79 591 68 604T57 633Q57 648 66 659T89 679T120 692T156
697Q174 697 190 693T220 684T248 675T274 671Q284 671 292 675T309 684T326 693T343 697Q360 697 371 686T383 659Z" />
</font>
</defs>
</svg>
